<ttFont>
    <TTGlyph name=".notdef" xMin="96" yMin="0" xMax="528" yMax="660">
      <contour>
        <pt x="96" y="660" on="1"/>
        <pt x="528" y="660" on="1"/>
        <pt x="528" y="0" on="1"/>
        <pt x="96" y="0" on="1"/>
      </contour>
      <contour>
        <pt x="314" y="366" on="1"/>
        <pt x="368" y="458" on="1"/>
        <pt x="462" y="626" on="1"/>
        <pt x="160" y="626" on="1"/>
        <pt x="254" y="458" on="1"/>
        <pt x="310" y="366" on="1"/>
      </contour>
      <contour>
        <pt x="288" y="340" on="1"/>
        <pt x="134" y="610" on="1"/>
        <pt x="134" y="74" on="1"/>
      </contour>
      <contour>
        <pt x="488" y="610" on="1"/>
        <pt x="336" y="340" on="1"/>
        <pt x="488" y="74" on="1"/>
      </contour>
      <contour>
        <pt x="476" y="32" on="1"/>
        <pt x="376" y="208" on="1"/>
        <pt x="314" y="314" on="1"/>
        <pt x="310" y="314" on="1"/>
        <pt x="246" y="208" on="1"/>
        <pt x="144" y="32" on="1"/>
      </contour>
    </TTGlyph>
    <TTGlyph name="A" xMin="10" yMin="0" xMax="510" yMax="660">
      <contour>
        <pt x="394" y="236" on="1"/>
        <pt x="125" y="236" on="1"/>
        <pt x="42" y="0" on="1"/>
        <pt x="10" y="0" on="1"/>
        <pt x="246" y="660" on="1"/>
        <pt x="274" y="660" on="1"/>
        <pt x="510" y="0" on="1"/>
        <pt x="476" y="0" on="1"/>
      </contour>
      <contour>
        <pt x="384" y="264" on="1"/>
        <pt x="338" y="396" on="1"/>
        <pt x="285" y="547" on="0"/>
        <pt x="262" y="626" on="1"/>
        <pt x="258" y="626" on="1"/>
        <pt x="235" y="547" on="0"/>
        <pt x="182" y="396" on="1"/>
        <pt x="135" y="264" on="1"/>
      </contour>
    </TTGlyph>
    <TTGlyph name="AE" xMin="26" yMin="0" xMax="758" yMax="660">
      <contour>
        <pt x="758" y="28" on="1"/>
        <pt x="758" y="0" on="1"/>
        <pt x="414" y="0" on="1"/>
        <pt x="414" y="226" on="1"/>
        <pt x="187" y="226" on="1"/>
        <pt x="60" y="0" on="1"/>
        <pt x="26" y="0" on="1"/>
        <pt x="398" y="660" on="1"/>
        <pt x="748" y="660" on="1"/>
        <pt x="748" y="632" on="1"/>
        <pt x="446" y="632" on="1"/>
        <pt x="446" y="366" on="1"/>
        <pt x="696" y="366" on="1"/>
        <pt x="696" y="338" on="1"/>
        <pt x="446" y="338" on="1"/>
        <pt x="446" y="28" on="1"/>
      </contour>
      <contour>
        <pt x="414" y="254" on="1"/>
        <pt x="414" y="630" on="1"/>
        <pt x="410" y="630" on="1"/>
        <pt x="331" y="487" on="0"/>
        <pt x="280" y="392" on="1"/>
        <pt x="203" y="254" on="1"/>
      </contour>
    </TTGlyph>
    <TTGlyph name="Aacute" xMin="10" yMin="0" xMax="510" yMax="846">
      <component glyphName="A" x="0" y="0" flags="0x0"/>
      <component glyphName="acutecomb.cap" x="260" y="0" flags="0x0"/>
    </TTGlyph>
    <TTGlyph name="Abreve" xMin="10" yMin="0" xMax="510" yMax="838">
      <component glyphName="A" x="0" y="0" flags="0x0"/>
      <component glyphName="uni0306.cap" x="260" y="0" flags="0x0"/>
    </TTGlyph>
    <TTGlyph name="Acircumflex" xMin="10" yMin="0" xMax="510" yMax="840">
      <component glyphName="A" x="0" y="0" flags="0x0"/>
      <component glyphName="uni0302.cap" x="260" y="0" flags="0x0"/>
    </TTGlyph>
    <TTGlyph name="Adieresis" xMin="10" yMin="0" xMax="510" yMax="792">
      <component glyphName="A" x="0" y="0" flags="0x0"/>
      <component glyphName="uni0308.cap" x="260" y="0" flags="0x0"/>
    </TTGlyph>
    <TTGlyph name="Agrave" xMin="10" yMin="0" xMax="510" yMax="846">
      <component glyphName="A" x="0" y="0" flags="0x0"/>
      <component glyphName="gravecomb.cap" x="260" y="0" flags="0x0"/>
    </TTGlyph>
    <TTGlyph name="Amacron" xMin="10" yMin="0" xMax="510" yMax="774">
      <component glyphName="A" x="0" y="0" flags="0x0"/>
      <component glyphName="uni0304.cap" x="260" y="0" flags="0x0"/>
    </TTGlyph>
    <TTGlyph name="Aring" xMin="10" yMin="0" xMax="510" yMax="868">
      <component glyphName="A" x="0" y="0" flags="0x0"/>
      <component glyphName="uni030A.cap" x="260" y="0" flags="0x0"/>
    </TTGlyph>
    <TTGlyph name="Atilde" xMin="10" yMin="0" xMax="510" yMax="832">
      <component glyphName="A" x="0" y="0" flags="0x0"/>
      <component glyphName="tildecomb.cap" x="260" y="0" flags="0x0"/>
    </TTGlyph>
    <TTGlyph name="B" xMin="100" yMin="0" xMax="528" yMax="660">
      <contour>
        <pt x="100" y="660" on="1"/>
        <pt x="272" y="660" on="1"/>
        <pt x="373" y="660" on="0"/>
        <pt x="486" y="579" on="0"/>
        <pt x="486" y="500" on="1"/>
        <pt x="486" y="447" on="0"/>
        <pt x="432" y="371" on="0"/>
        <pt x="382" y="356" on="1"/>
        <pt x="382" y="352" on="1"/>
        <pt x="450" y="341" on="0"/>
        <pt x="528" y="259" on="0"/>
        <pt x="528" y="192" on="1"/>
        <pt x="528" y="99" on="0"/>
        <pt x="398" y="0" on="0"/>
        <pt x="284" y="0" on="1"/>
        <pt x="100" y="0" on="1"/>
      </contour>
      <contour>
        <pt x="252" y="366" on="1"/>
        <pt x="454" y="366" on="0"/>
        <pt x="454" y="498" on="1"/>
        <pt x="454" y="570" on="0"/>
        <pt x="357" y="632" on="0"/>
        <pt x="258" y="632" on="1"/>
        <pt x="132" y="632" on="1"/>
        <pt x="132" y="366" on="1"/>
      </contour>
      <contour>
        <pt x="272" y="28" on="1"/>
        <pt x="379" y="28" on="0"/>
        <pt x="496" y="108" on="0"/>
        <pt x="496" y="190" on="1"/>
        <pt x="496" y="264" on="0"/>
        <pt x="380" y="338" on="0"/>
        <pt x="272" y="338" on="1"/>
        <pt x="132" y="338" on="1"/>
        <pt x="132" y="28" on="1"/>
      </contour>
    </TTGlyph>
    <TTGlyph name="Bethb" xMin="64" yMin="0" xMax="476" yMax="545">
      <contour>
        <pt x="334" y="181" on="1"/>
        <pt x="465" y="0" on="1"/>
        <pt x="430" y="0" on="1"/>
        <pt x="183" y="341" on="1"/>
        <pt x="132" y="318" on="0"/>
        <pt x="96" y="234" on="0"/>
        <pt x="96" y="159" on="1"/>
        <pt x="96" y="0" on="1"/>
        <pt x="64" y="0" on="1"/>
        <pt x="64" y="159" on="1"/>
        <pt x="64" y="239" on="0"/>
        <pt x="112" y="337" on="0"/>
        <pt x="168" y="363" on="1"/>
        <pt x="121" y="428" on="1"/>
        <pt x="104" y="452" on="0"/>
        <pt x="81" y="519" on="0"/>
        <pt x="80" y="545" on="1"/>
        <pt x="111" y="545" on="1"/>
        <pt x="110" y="523" on="0"/>
        <pt x="136" y="454" on="0"/>
        <pt x="155" y="428" on="1"/>
        <pt x="315" y="207" on="1"/>
        <pt x="444" y="545" on="1"/>
        <pt x="476" y="545" on="1"/>
      </contour>
    </TTGlyph>
    <TTGlyph name="C" xMin="56" yMin="-12" xMax="522" yMax="672">
      <contour>
        <pt x="248" y="-12" on="0"/>
        <pt x="124" y="73" on="0"/>
        <pt x="56" y="229" on="0"/>
        <pt x="56" y="332" on="1"/>
        <pt x="56" y="435" on="0"/>
        <pt x="125" y="589" on="0"/>
        <pt x="251" y="672" on="0"/>
        <pt x="334" y="672" on="1"/>
        <pt x="387" y="672" on="0"/>
        <pt x="473" y="628" on="0"/>
        <pt x="502" y="594" on="1"/>
        <pt x="482" y="572" on="1"/>
        <pt x="454" y="605" on="0"/>
        <pt x="379" y="642" on="0"/>
        <pt x="334" y="642" on="1"/>
        <pt x="259" y="642" on="0"/>
        <pt x="149" y="566" on="0"/>
        <pt x="90" y="427" on="0"/>
        <pt x="90" y="332" on="1"/>
        <pt x="90" y="238" on="0"/>
        <pt x="148" y="96" on="0"/>
        <pt x="257" y="18" on="0"/>
        <pt x="330" y="18" on="1"/>
        <pt x="382" y="18" on="0"/>
        <pt x="464" y="59" on="0"/>
        <pt x="502" y="102" on="1"/>
        <pt x="522" y="82" on="1"/>
        <pt x="482" y="36" on="0"/>
        <pt x="390" y="-12" on="0"/>
        <pt x="328" y="-12" on="1"/>
      </contour>
    </TTGlyph>
    <TTGlyph name="Ccaron" xMin="56" yMin="-12" xMax="522" yMax="840">
      <component glyphName="C" x="0" y="0" flags="0x0"/>
      <component glyphName="uni030C.cap" x="318" y="0" flags="0x0"/>
    </TTGlyph>
    <TTGlyph name="Ccedilla" xMin="56" yMin="-12" xMax="522" yMax="672">
      <contour>
        <pt x="248" y="-12" on="0"/>
        <pt x="124" y="73" on="0"/>
        <pt x="56" y="229" on="0"/>
        <pt x="56" y="332" on="1"/>
        <pt x="56" y="435" on="0"/>
        <pt x="125" y="589" on="0"/>
        <pt x="251" y="672" on="0"/>
        <pt x="334" y="672" on="1"/>
        <pt x="387" y="672" on="0"/>
        <pt x="473" y="628" on="0"/>
        <pt x="502" y="594" on="1"/>
        <pt x="482" y="572" on="1"/>
        <pt x="454" y="605" on="0"/>
        <pt x="379" y="642" on="0"/>
        <pt x="334" y="642" on="1"/>
        <pt x="259" y="642" on="0"/>
        <pt x="149" y="566" on="0"/>
        <pt x="90" y="427" on="0"/>
        <pt x="90" y="332" on="1"/>
        <pt x="90" y="238" on="0"/>
        <pt x="148" y="96" on="0"/>
        <pt x="257" y="18" on="0"/>
        <pt x="330" y="18" on="1"/>
        <pt x="382" y="18" on="0"/>
        <pt x="464" y="59" on="0"/>
        <pt x="502" y="102" on="1"/>
        <pt x="522" y="82" on="1"/>
        <pt x="482" y="36" on="0"/>
        <pt x="390" y="-12" on="0"/>
        <pt x="328" y="-12" on="1"/>
      </contour>
    </TTGlyph>
    <TTGlyph name="D" xMin="100" yMin="0" xMax="544" yMax="660">
      <contour>
        <pt x="100" y="660" on="1"/>
        <pt x="248" y="660" on="1"/>
        <pt x="396" y="660" on="0"/>
        <pt x="544" y="485" on="0"/>
        <pt x="544" y="332" on="1"/>
        <pt x="544" y="179" on="0"/>
        <pt x="396" y="0" on="0"/>
        <pt x="248" y="0" on="1"/>
        <pt x="100" y="0" on="1"/>
      </contour>
      <contour>
        <pt x="244" y="28" on="1"/>
        <pt x="379" y="28" on="0"/>
        <pt x="510" y="194" on="0"/>
        <pt x="510" y="332" on="1"/>
        <pt x="510" y="470" on="0"/>
        <pt x="379" y="632" on="0"/>
        <pt x="244" y="632" on="1"/>
        <pt x="132" y="632" on="1"/>
        <pt x="132" y="28" on="1"/>
      </contour>
    </TTGlyph>
    <TTGlyph name="E" xMin="100" yMin="0" xMax="464" yMax="660">
      <contour>
        <pt x="100" y="660" on="1"/>
        <pt x="454" y="660" on="1"/>
        <pt x="454" y="632" on="1"/>
        <pt x="132" y="632" on="1"/>
        <pt x="132" y="366" on="1"/>
        <pt x="402" y="366" on="1"/>
        <pt x="402" y="338" on="1"/>
        <pt x="132" y="338" on="1"/>
        <pt x="132" y="28" on="1"/>
        <pt x="464" y="28" on="1"/>
        <pt x="464" y="0" on="1"/>
        <pt x="100" y="0" on="1"/>
      </contour>
    </TTGlyph>
    <TTGlyph name="Eacute" xMin="100" yMin="0" xMax="464" yMax="846">
      <component glyphName="E" x="0" y="0" flags="0x0"/>
      <component glyphName="acutecomb.cap" x="282" y="0" flags="0x0"/>
    </TTGlyph>
    <TTGlyph name="Ebreve" xMin="100" yMin="0" xMax="464" yMax="838">
      <component glyphName="E" x="0" y="0" flags="0x0"/>
      <component glyphName="uni0306.cap" x="282" y="0" flags="0x0"/>
    </TTGlyph>
    <TTGlyph name="Ecircumflex" xMin="100" yMin="0" xMax="464" yMax="840">
      <component glyphName="E" x="0" y="0" flags="0x0"/>
      <component glyphName="uni0302.cap" x="282" y="0" flags="0x0"/>
    </TTGlyph>
    <TTGlyph name="Edieresis" xMin="100" yMin="0" xMax="464" yMax="792">
      <component glyphName="E" x="0" y="0" flags="0x0"/>
      <component glyphName="uni0308.cap" x="282" y="0" flags="0x0"/>
    </TTGlyph>
    <TTGlyph name="Egrave" xMin="100" yMin="0" xMax="464" yMax="846">
      <component glyphName="E" x="0" y="0" flags="0x0"/>
      <component glyphName="gravecomb.cap" x="282" y="0" flags="0x0"/>
    </TTGlyph>
    <TTGlyph name="Emacron" xMin="100" yMin="0" xMax="464" yMax="774">
      <component glyphName="E" x="0" y="0" flags="0x0"/>
      <component glyphName="uni0304.cap" x="282" y="0" flags="0x0"/>
    </TTGlyph>
    <TTGlyph name="Eogonek" xMin="100" yMin="-202" xMax="476" yMax="660">
      <contour>
        <pt x="381" y="-202" on="0"/>
        <pt x="336" y="-161" on="0"/>
        <pt x="336" y="-122" on="1"/>
        <pt x="336" y="-86" on="0"/>
        <pt x="377" y="-20" on="0"/>
        <pt x="408" y="0" on="1"/>
        <pt x="100" y="0" on="1"/>
        <pt x="100" y="660" on="1"/>
        <pt x="454" y="660" on="1"/>
        <pt x="454" y="632" on="1"/>
        <pt x="132" y="632" on="1"/>
        <pt x="132" y="366" on="1"/>
        <pt x="402" y="366" on="1"/>
        <pt x="402" y="338" on="1"/>
        <pt x="132" y="338" on="1"/>
        <pt x="132" y="28" on="1"/>
        <pt x="464" y="28" on="1"/>
        <pt x="464" y="0" on="1"/>
        <pt x="462" y="0" on="1"/>
        <pt x="426" y="-8" on="0"/>
        <pt x="366" y="-77" on="0"/>
        <pt x="366" y="-120" on="1"/>
        <pt x="366" y="-146" on="0"/>
        <pt x="397" y="-174" on="0"/>
        <pt x="418" y="-174" on="1"/>
        <pt x="442" y="-174" on="0"/>
        <pt x="462" y="-160" on="1"/>
        <pt x="476" y="-180" on="1"/>
        <pt x="465" y="-189" on="0"/>
        <pt x="431" y="-202" on="0"/>
        <pt x="416" y="-202" on="1"/>
      </contour>
    </TTGlyph>
    <TTGlyph name="Eth" xMin="38" yMin="0" xMax="564" yMax="660">
      <contour>
        <pt x="416" y="660" on="0"/>
        <pt x="564" y="485" on="0"/>
        <pt x="564" y="332" on="1"/>
        <pt x="564" y="179" on="0"/>
        <pt x="416" y="0" on="0"/>
        <pt x="268" y="0" on="1"/>
        <pt x="120" y="0" on="1"/>
        <pt x="120" y="336" on="1"/>
        <pt x="38" y="336" on="1"/>
        <pt x="38" y="362" on="1"/>
        <pt x="120" y="364" on="1"/>
        <pt x="120" y="660" on="1"/>
        <pt x="268" y="660" on="1"/>
      </contour>
      <contour>
        <pt x="399" y="28" on="0"/>
        <pt x="530" y="194" on="0"/>
        <pt x="530" y="332" on="1"/>
        <pt x="530" y="470" on="0"/>
        <pt x="399" y="632" on="0"/>
        <pt x="264" y="632" on="1"/>
        <pt x="152" y="632" on="1"/>
        <pt x="152" y="364" on="1"/>
        <pt x="320" y="364" on="1"/>
        <pt x="320" y="336" on="1"/>
        <pt x="152" y="336" on="1"/>
        <pt x="152" y="28" on="1"/>
        <pt x="264" y="28" on="1"/>
      </contour>
    </TTGlyph>
    <TTGlyph name="Euro" xMin="24" yMin="-12" xMax="468" yMax="652">
      <contour>
        <pt x="468" y="82" on="1"/>
        <pt x="435" y="36" on="0"/>
        <pt x="357" y="-12" on="0"/>
        <pt x="304" y="-12" on="1"/>
        <pt x="217" y="-12" on="0"/>
        <pt x="104" y="129" on="0"/>
        <pt x="90" y="250" on="1"/>
        <pt x="24" y="250" on="1"/>
        <pt x="24" y="274" on="1"/>
        <pt x="87" y="278" on="1"/>
        <pt x="86" y="292" on="0"/>
        <pt x="86" y="322" on="1"/>
        <pt x="86" y="346" on="0"/>
        <pt x="87" y="358" on="1"/>
        <pt x="24" y="358" on="1"/>
        <pt x="24" y="382" on="1"/>
        <pt x="89" y="386" on="1"/>
        <pt x="102" y="510" on="0"/>
        <pt x="224" y="652" on="0"/>
        <pt x="320" y="652" on="1"/>
        <pt x="362" y="652" on="0"/>
        <pt x="435" y="607" on="0"/>
        <pt x="458" y="574" on="1"/>
        <pt x="436" y="554" on="1"/>
        <pt x="386" y="624" on="0"/>
        <pt x="320" y="624" on="1"/>
        <pt x="237" y="624" on="0"/>
        <pt x="134" y="498" on="0"/>
        <pt x="123" y="386" on="1"/>
        <pt x="410" y="386" on="1"/>
        <pt x="410" y="358" on="1"/>
        <pt x="121" y="358" on="1"/>
        <pt x="120" y="346" on="0"/>
        <pt x="120" y="322" on="1"/>
        <pt x="120" y="292" on="0"/>
        <pt x="121" y="278" on="1"/>
        <pt x="370" y="278" on="1"/>
        <pt x="370" y="250" on="1"/>
        <pt x="124" y="250" on="1"/>
        <pt x="136" y="141" on="0"/>
        <pt x="231" y="16" on="0"/>
        <pt x="306" y="16" on="1"/>
        <pt x="348" y="16" on="0"/>
        <pt x="414" y="57" on="0"/>
        <pt x="446" y="100" on="1"/>
      </contour>
    </TTGlyph>
    <TTGlyph name="Euro.001" xMin="24" yMin="-12" xMax="468" yMax="652">
      <contour>
        <pt x="468" y="82" on="1"/>
        <pt x="435" y="36" on="0"/>
        <pt x="357" y="-12" on="0"/>
        <pt x="304" y="-12" on="1"/>
        <pt x="217" y="-12" on="0"/>
        <pt x="104" y="129" on="0"/>
        <pt x="90" y="250" on="1"/>
        <pt x="24" y="250" on="1"/>
        <pt x="24" y="274" on="1"/>
        <pt x="87" y="278" on="1"/>
        <pt x="86" y="292" on="0"/>
        <pt x="86" y="322" on="1"/>
        <pt x="86" y="346" on="0"/>
        <pt x="87" y="358" on="1"/>
        <pt x="24" y="358" on="1"/>
        <pt x="24" y="382" on="1"/>
        <pt x="89" y="386" on="1"/>
        <pt x="102" y="510" on="0"/>
        <pt x="224" y="652" on="0"/>
        <pt x="320" y="652" on="1"/>
        <pt x="362" y="652" on="0"/>
        <pt x="435" y="607" on="0"/>
        <pt x="458" y="574" on="1"/>
        <pt x="436" y="554" on="1"/>
        <pt x="386" y="624" on="0"/>
        <pt x="320" y="624" on="1"/>
        <pt x="237" y="624" on="0"/>
        <pt x="134" y="498" on="0"/>
        <pt x="123" y="386" on="1"/>
        <pt x="410" y="386" on="1"/>
        <pt x="410" y="358" on="1"/>
        <pt x="121" y="358" on="1"/>
        <pt x="120" y="346" on="0"/>
        <pt x="120" y="322" on="1"/>
        <pt x="120" y="292" on="0"/>
        <pt x="121" y="278" on="1"/>
        <pt x="370" y="278" on="1"/>
        <pt x="370" y="250" on="1"/>
        <pt x="124" y="250" on="1"/>
        <pt x="136" y="141" on="0"/>
        <pt x="231" y="16" on="0"/>
        <pt x="306" y="16" on="1"/>
        <pt x="348" y="16" on="0"/>
        <pt x="414" y="57" on="0"/>
        <pt x="446" y="100" on="1"/>
      </contour>
    </TTGlyph>
    <TTGlyph name="Euro.lat" xMin="24" yMin="-12" xMax="468" yMax="652">
      <contour>
        <pt x="468" y="82" on="1"/>
        <pt x="435" y="36" on="0"/>
        <pt x="357" y="-12" on="0"/>
        <pt x="304" y="-12" on="1"/>
        <pt x="217" y="-12" on="0"/>
        <pt x="104" y="129" on="0"/>
        <pt x="90" y="250" on="1"/>
        <pt x="24" y="250" on="1"/>
        <pt x="24" y="274" on="1"/>
        <pt x="87" y="278" on="1"/>
        <pt x="86" y="292" on="0"/>
        <pt x="86" y="322" on="1"/>
        <pt x="86" y="346" on="0"/>
        <pt x="87" y="358" on="1"/>
        <pt x="24" y="358" on="1"/>
        <pt x="24" y="382" on="1"/>
        <pt x="89" y="386" on="1"/>
        <pt x="102" y="510" on="0"/>
        <pt x="224" y="652" on="0"/>
        <pt x="320" y="652" on="1"/>
        <pt x="362" y="652" on="0"/>
        <pt x="435" y="607" on="0"/>
        <pt x="458" y="574" on="1"/>
        <pt x="436" y="554" on="1"/>
        <pt x="386" y="624" on="0"/>
        <pt x="320" y="624" on="1"/>
        <pt x="237" y="624" on="0"/>
        <pt x="134" y="498" on="0"/>
        <pt x="123" y="386" on="1"/>
        <pt x="410" y="386" on="1"/>
        <pt x="410" y="358" on="1"/>
        <pt x="121" y="358" on="1"/>
        <pt x="120" y="346" on="0"/>
        <pt x="120" y="322" on="1"/>
        <pt x="120" y="292" on="0"/>
        <pt x="121" y="278" on="1"/>
        <pt x="370" y="278" on="1"/>
        <pt x="370" y="250" on="1"/>
        <pt x="124" y="250" on="1"/>
        <pt x="136" y="141" on="0"/>
        <pt x="231" y="16" on="0"/>
        <pt x="306" y="16" on="1"/>
        <pt x="348" y="16" on="0"/>
        <pt x="414" y="57" on="0"/>
        <pt x="446" y="100" on="1"/>
      </contour>
    </TTGlyph>
    <TTGlyph name="Euro.lat.001" xMin="24" yMin="-12" xMax="468" yMax="652">
      <contour>
        <pt x="468" y="82" on="1"/>
        <pt x="435" y="36" on="0"/>
        <pt x="357" y="-12" on="0"/>
        <pt x="304" y="-12" on="1"/>
        <pt x="217" y="-12" on="0"/>
        <pt x="104" y="129" on="0"/>
        <pt x="90" y="250" on="1"/>
        <pt x="24" y="250" on="1"/>
        <pt x="24" y="274" on="1"/>
        <pt x="87" y="278" on="1"/>
        <pt x="86" y="292" on="0"/>
        <pt x="86" y="322" on="1"/>
        <pt x="86" y="346" on="0"/>
        <pt x="87" y="358" on="1"/>
        <pt x="24" y="358" on="1"/>
        <pt x="24" y="382" on="1"/>
        <pt x="89" y="386" on="1"/>
        <pt x="102" y="510" on="0"/>
        <pt x="224" y="652" on="0"/>
        <pt x="320" y="652" on="1"/>
        <pt x="362" y="652" on="0"/>
        <pt x="435" y="607" on="0"/>
        <pt x="458" y="574" on="1"/>
        <pt x="436" y="554" on="1"/>
        <pt x="386" y="624" on="0"/>
        <pt x="320" y="624" on="1"/>
        <pt x="237" y="624" on="0"/>
        <pt x="134" y="498" on="0"/>
        <pt x="123" y="386" on="1"/>
        <pt x="410" y="386" on="1"/>
        <pt x="410" y="358" on="1"/>
        <pt x="121" y="358" on="1"/>
        <pt x="120" y="346" on="0"/>
        <pt x="120" y="322" on="1"/>
        <pt x="120" y="292" on="0"/>
        <pt x="121" y="278" on="1"/>
        <pt x="370" y="278" on="1"/>
        <pt x="370" y="250" on="1"/>
        <pt x="124" y="250" on="1"/>
        <pt x="136" y="141" on="0"/>
        <pt x="231" y="16" on="0"/>
        <pt x="306" y="16" on="1"/>
        <pt x="348" y="16" on="0"/>
        <pt x="414" y="57" on="0"/>
        <pt x="446" y="100" on="1"/>
      </contour>
    </TTGlyph>
    <TTGlyph name="F" xMin="100" yMin="0" xMax="452" yMax="660">
      <contour>
        <pt x="100" y="660" on="1"/>
        <pt x="452" y="660" on="1"/>
        <pt x="452" y="632" on="1"/>
        <pt x="132" y="632" on="1"/>
        <pt x="132" y="354" on="1"/>
        <pt x="402" y="354" on="1"/>
        <pt x="402" y="326" on="1"/>
        <pt x="132" y="326" on="1"/>
        <pt x="132" y="0" on="1"/>
        <pt x="100" y="0" on="1"/>
      </contour>
    </TTGlyph>
    <TTGlyph name="G" xMin="56" yMin="-12" xMax="526" yMax="672">
      <contour>
        <pt x="251" y="-12" on="0"/>
        <pt x="125" y="73" on="0"/>
        <pt x="56" y="229" on="0"/>
        <pt x="56" y="332" on="1"/>
        <pt x="56" y="435" on="0"/>
        <pt x="127" y="589" on="0"/>
        <pt x="258" y="672" on="0"/>
        <pt x="344" y="672" on="1"/>
        <pt x="446" y="672" on="0"/>
        <pt x="520" y="594" on="1"/>
        <pt x="500" y="572" on="1"/>
        <pt x="437" y="642" on="0"/>
        <pt x="344" y="642" on="1"/>
        <pt x="266" y="642" on="0"/>
        <pt x="151" y="566" on="0"/>
        <pt x="90" y="426" on="0"/>
        <pt x="90" y="332" on="1"/>
        <pt x="90" y="237" on="0"/>
        <pt x="149" y="95" on="0"/>
        <pt x="260" y="18" on="0"/>
        <pt x="336" y="18" on="1"/>
        <pt x="384" y="18" on="0"/>
        <pt x="469" y="47" on="0"/>
        <pt x="494" y="72" on="1"/>
        <pt x="494" y="290" on="1"/>
        <pt x="330" y="290" on="1"/>
        <pt x="330" y="318" on="1"/>
        <pt x="526" y="318" on="1"/>
        <pt x="526" y="62" on="1"/>
        <pt x="495" y="28" on="0"/>
        <pt x="396" y="-12" on="0"/>
        <pt x="334" y="-12" on="1"/>
      </contour>
    </TTGlyph>
    <TTGlyph name="Gcaron" xMin="56" yMin="-12" xMax="526" yMax="840">
      <component glyphName="G" x="0" y="0" flags="0x0"/>
      <component glyphName="uni030C.cap" x="342" y="0" flags="0x0"/>
    </TTGlyph>
    <TTGlyph name="Gdotaccent" xMin="56" yMin="-12" xMax="526" yMax="794">
      <component glyphName="G" x="0" y="0" flags="0x0"/>
      <component glyphName="uni0307.cap" x="342" y="0" flags="0x0"/>
    </TTGlyph>
    <TTGlyph name="H" xMin="100" yMin="0" xMax="534" yMax="660">
      <contour>
        <pt x="100" y="660" on="1"/>
        <pt x="132" y="660" on="1"/>
        <pt x="132" y="366" on="1"/>
        <pt x="502" y="366" on="1"/>
        <pt x="502" y="660" on="1"/>
        <pt x="534" y="660" on="1"/>
        <pt x="534" y="0" on="1"/>
        <pt x="502" y="0" on="1"/>
        <pt x="502" y="338" on="1"/>
        <pt x="132" y="338" on="1"/>
        <pt x="132" y="0" on="1"/>
        <pt x="100" y="0" on="1"/>
      </contour>
    </TTGlyph>
    <TTGlyph name="Hbar" xMin="38" yMin="0" xMax="628" yMax="660">
      <contour>
        <pt x="628" y="496" on="1"/>
        <pt x="554" y="496" on="1"/>
        <pt x="554" y="0" on="1"/>
        <pt x="522" y="0" on="1"/>
        <pt x="522" y="338" on="1"/>
        <pt x="152" y="338" on="1"/>
        <pt x="152" y="0" on="1"/>
        <pt x="120" y="0" on="1"/>
        <pt x="120" y="496" on="1"/>
        <pt x="38" y="496" on="1"/>
        <pt x="38" y="520" on="1"/>
        <pt x="120" y="524" on="1"/>
        <pt x="120" y="660" on="1"/>
        <pt x="152" y="660" on="1"/>
        <pt x="152" y="524" on="1"/>
        <pt x="522" y="524" on="1"/>
        <pt x="522" y="660" on="1"/>
        <pt x="554" y="660" on="1"/>
        <pt x="554" y="524" on="1"/>
        <pt x="628" y="524" on="1"/>
      </contour>
      <contour>
        <pt x="522" y="496" on="1"/>
        <pt x="152" y="496" on="1"/>
        <pt x="152" y="366" on="1"/>
        <pt x="522" y="366" on="1"/>
      </contour>
    </TTGlyph>
    <TTGlyph name="I" xMin="100" yMin="0" xMax="132" yMax="660">
      <contour>
        <pt x="100" y="660" on="1"/>
        <pt x="132" y="660" on="1"/>
        <pt x="132" y="0" on="1"/>
        <pt x="100" y="0" on="1"/>
      </contour>
    </TTGlyph>
    <TTGlyph name="Iacute" xMin="80" yMin="0" xMax="220" yMax="846">
      <component glyphName="I" x="0" y="0" flags="0x0"/>
      <component glyphName="acutecomb.cap" x="116" y="0" flags="0x0"/>
    </TTGlyph>
    <TTGlyph name="Icircumflex" xMin="-14" yMin="0" xMax="246" yMax="840">
      <component glyphName="I" x="0" y="0" flags="0x0"/>
      <component glyphName="uni0302.cap" x="116" y="0" flags="0x0"/>
    </TTGlyph>
    <TTGlyph name="Idieresis" xMin="-12" yMin="0" xMax="244" yMax="792">
      <component glyphName="I" x="0" y="0" flags="0x0"/>
      <component glyphName="uni0308.cap" x="116" y="0" flags="0x0"/>
    </TTGlyph>
    <TTGlyph name="Igrave" xMin="12" yMin="0" xMax="152" yMax="846">
      <component glyphName="I" x="0" y="0" flags="0x0"/>
      <component glyphName="gravecomb.cap" x="116" y="0" flags="0x0"/>
    </TTGlyph>
    <TTGlyph name="Imacron" xMin="-4" yMin="0" xMax="236" yMax="774">
      <component glyphName="I" x="0" y="0" flags="0x0"/>
      <component glyphName="uni0304.cap" x="116" y="0" flags="0x0"/>
    </TTGlyph>
    <TTGlyph name="J" xMin="44" yMin="-12" xMax="358" yMax="660">
      <contour>
        <pt x="148" y="-12" on="0"/>
        <pt x="68" y="37" on="0"/>
        <pt x="44" y="82" on="1"/>
        <pt x="70" y="98" on="1"/>
        <pt x="95" y="55" on="0"/>
        <pt x="158" y="18" on="0"/>
        <pt x="202" y="18" on="1"/>
        <pt x="265" y="18" on="0"/>
        <pt x="326" y="96" on="0"/>
        <pt x="326" y="178" on="1"/>
        <pt x="326" y="660" on="1"/>
        <pt x="358" y="660" on="1"/>
        <pt x="358" y="174" on="1"/>
        <pt x="358" y="90" on="0"/>
        <pt x="282" y="-12" on="0"/>
        <pt x="200" y="-12" on="1"/>
      </contour>
    </TTGlyph>
    <TTGlyph name="K" xMin="100" yMin="0" xMax="538" yMax="660">
      <contour>
        <pt x="100" y="660" on="1"/>
        <pt x="132" y="660" on="1"/>
        <pt x="132" y="280" on="1"/>
        <pt x="134" y="280" on="1"/>
        <pt x="470" y="660" on="1"/>
        <pt x="510" y="660" on="1"/>
        <pt x="298" y="418" on="1"/>
        <pt x="538" y="0" on="1"/>
        <pt x="500" y="0" on="1"/>
        <pt x="274" y="394" on="1"/>
        <pt x="132" y="234" on="1"/>
        <pt x="132" y="0" on="1"/>
        <pt x="100" y="0" on="1"/>
      </contour>
    </TTGlyph>
    <TTGlyph name="L" xMin="100" yMin="0" xMax="442" yMax="660">
      <contour>
        <pt x="100" y="660" on="1"/>
        <pt x="132" y="660" on="1"/>
        <pt x="132" y="28" on="1"/>
        <pt x="442" y="28" on="1"/>
        <pt x="442" y="0" on="1"/>
        <pt x="100" y="0" on="1"/>
      </contour>
    </TTGlyph>
    <TTGlyph name="Lslash" xMin="8" yMin="0" xMax="446" yMax="660">
      <contour>
        <pt x="446" y="28" on="1"/>
        <pt x="446" y="0" on="1"/>
        <pt x="104" y="0" on="1"/>
        <pt x="104" y="264" on="1"/>
        <pt x="22" y="220" on="1"/>
        <pt x="8" y="244" on="1"/>
        <pt x="104" y="294" on="1"/>
        <pt x="104" y="660" on="1"/>
        <pt x="136" y="660" on="1"/>
        <pt x="136" y="308" on="1"/>
        <pt x="326" y="408" on="1"/>
        <pt x="340" y="384" on="1"/>
        <pt x="136" y="278" on="1"/>
        <pt x="136" y="28" on="1"/>
      </contour>
    </TTGlyph>
    <TTGlyph name="M" xMin="100" yMin="0" xMax="598" yMax="660">
      <contour>
        <pt x="100" y="660" on="1"/>
        <pt x="152" y="660" on="1"/>
        <pt x="294" y="260" on="1"/>
        <pt x="348" y="110" on="1"/>
        <pt x="352" y="110" on="1"/>
        <pt x="370" y="160" on="0"/>
        <pt x="378" y="185" on="1"/>
        <pt x="404" y="260" on="1"/>
        <pt x="546" y="660" on="1"/>
        <pt x="598" y="660" on="1"/>
        <pt x="598" y="0" on="1"/>
        <pt x="566" y="0" on="1"/>
        <pt x="566" y="460" on="1"/>
        <pt x="566" y="524" on="0"/>
        <pt x="570" y="632" on="1"/>
        <pt x="566" y="632" on="1"/>
        <pt x="515" y="486" on="1"/>
        <pt x="366" y="74" on="1"/>
        <pt x="332" y="74" on="1"/>
        <pt x="182" y="486" on="1"/>
        <pt x="130" y="632" on="1"/>
        <pt x="126" y="632" on="1"/>
        <pt x="130" y="524" on="0"/>
        <pt x="130" y="460" on="1"/>
        <pt x="130" y="0" on="1"/>
        <pt x="100" y="0" on="1"/>
      </contour>
    </TTGlyph>
    <TTGlyph name="N" xMin="100" yMin="0" xMax="532" yMax="660">
      <contour>
        <pt x="100" y="660" on="1"/>
        <pt x="134" y="660" on="1"/>
        <pt x="426" y="176" on="1"/>
        <pt x="502" y="46" on="1"/>
        <pt x="506" y="46" on="1"/>
        <pt x="502" y="174" on="0"/>
        <pt x="502" y="232" on="1"/>
        <pt x="502" y="660" on="1"/>
        <pt x="532" y="660" on="1"/>
        <pt x="532" y="0" on="1"/>
        <pt x="498" y="0" on="1"/>
        <pt x="206" y="484" on="1"/>
        <pt x="130" y="614" on="1"/>
        <pt x="126" y="614" on="1"/>
        <pt x="130" y="490" on="0"/>
        <pt x="130" y="434" on="1"/>
        <pt x="130" y="0" on="1"/>
        <pt x="100" y="0" on="1"/>
      </contour>
    </TTGlyph>
    <TTGlyph name="Ntilde" xMin="100" yMin="0" xMax="532" yMax="832">
      <component glyphName="N" x="0" y="0" flags="0x0"/>
      <component glyphName="tildecomb.cap" x="322" y="0" flags="0x0"/>
    </TTGlyph>
    <TTGlyph name="O" xMin="56" yMin="-12" xMax="592" yMax="672">
      <contour>
        <pt x="246" y="-12" on="0"/>
        <pt x="125" y="73" on="0"/>
        <pt x="56" y="230" on="0"/>
        <pt x="56" y="332" on="1"/>
        <pt x="56" y="434" on="0"/>
        <pt x="124" y="588" on="0"/>
        <pt x="246" y="672" on="0"/>
        <pt x="324" y="672" on="1"/>
        <pt x="402" y="672" on="0"/>
        <pt x="524" y="588" on="0"/>
        <pt x="592" y="434" on="0"/>
        <pt x="592" y="332" on="1"/>
        <pt x="592" y="230" on="0"/>
        <pt x="523" y="73" on="0"/>
        <pt x="402" y="-12" on="0"/>
        <pt x="324" y="-12" on="1"/>
      </contour>
      <contour>
        <pt x="393" y="18" on="0"/>
        <pt x="500" y="96" on="0"/>
        <pt x="558" y="238" on="0"/>
        <pt x="558" y="332" on="1"/>
        <pt x="558" y="426" on="0"/>
        <pt x="500" y="566" on="0"/>
        <pt x="394" y="642" on="0"/>
        <pt x="324" y="642" on="1"/>
        <pt x="254" y="642" on="0"/>
        <pt x="148" y="566" on="0"/>
        <pt x="90" y="426" on="0"/>
        <pt x="90" y="332" on="1"/>
        <pt x="90" y="238" on="0"/>
        <pt x="148" y="96" on="0"/>
        <pt x="255" y="18" on="0"/>
        <pt x="324" y="18" on="1"/>
      </contour>
    </TTGlyph>
    <TTGlyph name="OE" xMin="56" yMin="0" xMax="782" yMax="660">
      <contour>
        <pt x="213" y="0" on="0"/>
        <pt x="56" y="180" on="0"/>
        <pt x="56" y="332" on="1"/>
        <pt x="56" y="484" on="0"/>
        <pt x="213" y="660" on="0"/>
        <pt x="366" y="660" on="1"/>
        <pt x="772" y="660" on="1"/>
        <pt x="772" y="632" on="1"/>
        <pt x="470" y="632" on="1"/>
        <pt x="470" y="366" on="1"/>
        <pt x="720" y="366" on="1"/>
        <pt x="720" y="338" on="1"/>
        <pt x="470" y="338" on="1"/>
        <pt x="470" y="28" on="1"/>
        <pt x="782" y="28" on="1"/>
        <pt x="782" y="0" on="1"/>
        <pt x="366" y="0" on="1"/>
      </contour>
      <contour>
        <pt x="438" y="28" on="1"/>
        <pt x="438" y="632" on="1"/>
        <pt x="370" y="632" on="1"/>
        <pt x="230" y="632" on="0"/>
        <pt x="90" y="469" on="0"/>
        <pt x="90" y="332" on="1"/>
        <pt x="90" y="194" on="0"/>
        <pt x="230" y="28" on="0"/>
        <pt x="370" y="28" on="1"/>
      </contour>
    </TTGlyph>
    <TTGlyph name="Oacute" xMin="56" yMin="-12" xMax="592" yMax="846">
      <component glyphName="O" x="0" y="0" flags="0x0"/>
      <component glyphName="acutecomb.cap" x="324" y="0" flags="0x0"/>
    </TTGlyph>
    <TTGlyph name="Obreve" xMin="56" yMin="-12" xMax="592" yMax="838">
      <component glyphName="O" x="0" y="0" flags="0x0"/>
      <component glyphName="uni0306.cap" x="324" y="0" flags="0x0"/>
    </TTGlyph>
    <TTGlyph name="Ocircumflex" xMin="56" yMin="-12" xMax="592" yMax="840">
      <component glyphName="O" x="0" y="0" flags="0x0"/>
      <component glyphName="uni0302.cap" x="324" y="0" flags="0x0"/>
    </TTGlyph>
    <TTGlyph name="Odieresis" xMin="56" yMin="-12" xMax="592" yMax="792">
      <component glyphName="O" x="0" y="0" flags="0x0"/>
      <component glyphName="uni0308.cap" x="324" y="0" flags="0x0"/>
    </TTGlyph>
    <TTGlyph name="Ograve" xMin="56" yMin="-12" xMax="592" yMax="846">
      <component glyphName="O" x="0" y="0" flags="0x0"/>
      <component glyphName="gravecomb.cap" x="324" y="0" flags="0x0"/>
    </TTGlyph>
    <TTGlyph name="Omacron" xMin="56" yMin="-12" xMax="592" yMax="774">
      <component glyphName="O" x="0" y="0" flags="0x0"/>
      <component glyphName="uni0304.cap" x="324" y="0" flags="0x0"/>
    </TTGlyph>
    <TTGlyph name="Oslash" xMin="58" yMin="-20" xMax="596" yMax="680">
      <contour>
        <pt x="558" y="533" on="0"/>
        <pt x="596" y="408" on="0"/>
        <pt x="596" y="332" on="1"/>
        <pt x="596" y="230" on="0"/>
        <pt x="527" y="73" on="0"/>
        <pt x="406" y="-12" on="0"/>
        <pt x="328" y="-12" on="1"/>
        <pt x="274" y="-12" on="0"/>
        <pt x="182" y="30" on="0"/>
        <pt x="146" y="69" on="1"/>
        <pt x="80" y="-20" on="1"/>
        <pt x="58" y="-4" on="1"/>
        <pt x="128" y="91" on="1"/>
        <pt x="60" y="186" on="0"/>
        <pt x="60" y="332" on="1"/>
        <pt x="60" y="434" on="0"/>
        <pt x="128" y="588" on="0"/>
        <pt x="250" y="672" on="0"/>
        <pt x="328" y="672" on="1"/>
        <pt x="379" y="672" on="0"/>
        <pt x="469" y="634" on="0"/>
        <pt x="504" y="599" on="1"/>
        <pt x="564" y="680" on="1"/>
        <pt x="586" y="664" on="1"/>
        <pt x="522" y="578" on="1"/>
      </contour>
      <contour>
        <pt x="94" y="204" on="0"/>
        <pt x="148" y="118" on="1"/>
        <pt x="485" y="573" on="1"/>
        <pt x="424" y="642" on="0"/>
        <pt x="328" y="642" on="1"/>
        <pt x="258" y="642" on="0"/>
        <pt x="152" y="566" on="0"/>
        <pt x="94" y="426" on="0"/>
        <pt x="94" y="332" on="1"/>
      </contour>
      <contour>
        <pt x="397" y="18" on="0"/>
        <pt x="504" y="96" on="0"/>
        <pt x="562" y="238" on="0"/>
        <pt x="562" y="332" on="1"/>
        <pt x="562" y="399" on="0"/>
        <pt x="531" y="510" on="0"/>
        <pt x="503" y="551" on="1"/>
        <pt x="165" y="95" on="1"/>
        <pt x="196" y="58" on="0"/>
        <pt x="279" y="18" on="0"/>
        <pt x="328" y="18" on="1"/>
      </contour>
    </TTGlyph>
    <TTGlyph name="Otilde" xMin="56" yMin="-12" xMax="592" yMax="832">
      <component glyphName="O" x="0" y="0" flags="0x0"/>
      <component glyphName="tildecomb.cap" x="324" y="0" flags="0x0"/>
    </TTGlyph>
    <TTGlyph name="P" xMin="100" yMin="0" xMax="494" yMax="660">
      <contour>
        <pt x="100" y="660" on="1"/>
        <pt x="258" y="660" on="1"/>
        <pt x="375" y="660" on="0"/>
        <pt x="494" y="576" on="0"/>
        <pt x="494" y="480" on="1"/>
        <pt x="494" y="387" on="0"/>
        <pt x="374" y="292" on="0"/>
        <pt x="262" y="292" on="1"/>
        <pt x="132" y="292" on="1"/>
        <pt x="132" y="0" on="1"/>
        <pt x="100" y="0" on="1"/>
      </contour>
      <contour>
        <pt x="250" y="320" on="1"/>
        <pt x="358" y="320" on="0"/>
        <pt x="460" y="396" on="0"/>
        <pt x="460" y="480" on="1"/>
        <pt x="460" y="564" on="0"/>
        <pt x="358" y="632" on="0"/>
        <pt x="246" y="632" on="1"/>
        <pt x="132" y="632" on="1"/>
        <pt x="132" y="320" on="1"/>
      </contour>
    </TTGlyph>
    <TTGlyph name="Q" xMin="56" yMin="-152" xMax="592" yMax="672">
      <contour>
        <pt x="550" y="-120" on="0"/>
        <pt x="582" y="-112" on="1"/>
        <pt x="590" y="-142" on="1"/>
        <pt x="550" y="-152" on="0"/>
        <pt x="514" y="-152" on="1"/>
        <pt x="437" y="-152" on="0"/>
        <pt x="328" y="-75" on="0"/>
        <pt x="304" y="-11" on="1"/>
        <pt x="231" y="-6" on="0"/>
        <pt x="119" y="82" on="0"/>
        <pt x="56" y="234" on="0"/>
        <pt x="56" y="332" on="1"/>
        <pt x="56" y="434" on="0"/>
        <pt x="124" y="588" on="0"/>
        <pt x="246" y="672" on="0"/>
        <pt x="324" y="672" on="1"/>
        <pt x="402" y="672" on="0"/>
        <pt x="524" y="588" on="0"/>
        <pt x="592" y="434" on="0"/>
        <pt x="592" y="332" on="1"/>
        <pt x="592" y="233" on="0"/>
        <pt x="528" y="81" on="0"/>
        <pt x="414" y="-7" on="0"/>
        <pt x="341" y="-11" on="1"/>
        <pt x="363" y="-63" on="0"/>
        <pt x="453" y="-120" on="0"/>
        <pt x="516" y="-120" on="1"/>
      </contour>
      <contour>
        <pt x="90" y="238" on="0"/>
        <pt x="149" y="95" on="0"/>
        <pt x="255" y="16" on="0"/>
        <pt x="324" y="16" on="1"/>
        <pt x="393" y="16" on="0"/>
        <pt x="499" y="95" on="0"/>
        <pt x="558" y="238" on="0"/>
        <pt x="558" y="332" on="1"/>
        <pt x="558" y="426" on="0"/>
        <pt x="500" y="566" on="0"/>
        <pt x="394" y="642" on="0"/>
        <pt x="324" y="642" on="1"/>
        <pt x="254" y="642" on="0"/>
        <pt x="148" y="566" on="0"/>
        <pt x="90" y="426" on="0"/>
        <pt x="90" y="332" on="1"/>
      </contour>
    </TTGlyph>
    <TTGlyph name="R" xMin="100" yMin="0" xMax="504" yMax="660">
      <contour>
        <pt x="466" y="0" on="1"/>
        <pt x="280" y="312" on="1"/>
        <pt x="132" y="312" on="1"/>
        <pt x="132" y="0" on="1"/>
        <pt x="100" y="0" on="1"/>
        <pt x="100" y="660" on="1"/>
        <pt x="282" y="660" on="1"/>
        <pt x="494" y="660" on="0"/>
        <pt x="494" y="490" on="1"/>
        <pt x="494" y="412" on="0"/>
        <pt x="400" y="322" on="0"/>
        <pt x="316" y="314" on="1"/>
        <pt x="504" y="0" on="1"/>
      </contour>
      <contour>
        <pt x="270" y="340" on="1"/>
        <pt x="363" y="340" on="0"/>
        <pt x="460" y="415" on="0"/>
        <pt x="460" y="490" on="1"/>
        <pt x="460" y="566" on="0"/>
        <pt x="365" y="632" on="0"/>
        <pt x="270" y="632" on="1"/>
        <pt x="132" y="632" on="1"/>
        <pt x="132" y="340" on="1"/>
      </contour>
    </TTGlyph>
    <TTGlyph name="S" xMin="48" yMin="-12" xMax="474" yMax="672">
      <contour>
        <pt x="134" y="-12" on="0"/>
        <pt x="48" y="88" on="1"/>
        <pt x="70" y="110" on="1"/>
        <pt x="107" y="67" on="0"/>
        <pt x="209" y="18" on="0"/>
        <pt x="268" y="18" on="1"/>
        <pt x="347" y="18" on="0"/>
        <pt x="442" y="97" on="0"/>
        <pt x="442" y="160" on="1"/>
        <pt x="442" y="201" on="0"/>
        <pt x="411" y="255" on="0"/>
        <pt x="361" y="287" on="0"/>
        <pt x="320" y="306" on="1"/>
        <pt x="218" y="352" on="1"/>
        <pt x="159" y="379" on="0"/>
        <pt x="84" y="449" on="0"/>
        <pt x="84" y="514" on="1"/>
        <pt x="84" y="560" on="0"/>
        <pt x="132" y="632" on="0"/>
        <pt x="217" y="672" on="0"/>
        <pt x="270" y="672" on="1"/>
        <pt x="326" y="672" on="0"/>
        <pt x="418" y="628" on="0"/>
        <pt x="450" y="594" on="1"/>
        <pt x="430" y="572" on="1"/>
        <pt x="400" y="605" on="0"/>
        <pt x="319" y="642" on="0"/>
        <pt x="270" y="642" on="1"/>
        <pt x="201" y="642" on="0"/>
        <pt x="116" y="573" on="0"/>
        <pt x="116" y="516" on="1"/>
        <pt x="116" y="478" on="0"/>
        <pt x="151" y="426" on="0"/>
        <pt x="198" y="397" on="0"/>
        <pt x="232" y="382" on="1"/>
        <pt x="334" y="336" on="1"/>
        <pt x="378" y="316" on="0"/>
        <pt x="437" y="275" on="0"/>
        <pt x="474" y="210" on="0"/>
        <pt x="474" y="162" on="1"/>
        <pt x="474" y="112" on="0"/>
        <pt x="423" y="33" on="0"/>
        <pt x="329" y="-12" on="0"/>
        <pt x="268" y="-12" on="1"/>
      </contour>
    </TTGlyph>
    <TTGlyph name="Sacute" xMin="48" yMin="-12" xMax="474" yMax="846">
      <component glyphName="S" x="0" y="0" flags="0x0"/>
      <component glyphName="acutecomb.cap" x="268" y="0" flags="0x0"/>
    </TTGlyph>
    <TTGlyph name="Scaron" xMin="48" yMin="-12" xMax="474" yMax="840">
      <component glyphName="S" x="0" y="0" flags="0x0"/>
      <component glyphName="uni030C.cap" x="268" y="0" flags="0x0"/>
    </TTGlyph>
    <TTGlyph name="T" xMin="30" yMin="0" xMax="490" yMax="660">
      <contour>
        <pt x="244" y="632" on="1"/>
        <pt x="30" y="632" on="1"/>
        <pt x="30" y="660" on="1"/>
        <pt x="490" y="660" on="1"/>
        <pt x="490" y="632" on="1"/>
        <pt x="276" y="632" on="1"/>
        <pt x="276" y="0" on="1"/>
        <pt x="244" y="0" on="1"/>
      </contour>
    </TTGlyph>
    <TTGlyph name="Thorn" xMin="100" yMin="0" xMax="504" yMax="660">
      <contour>
        <pt x="100" y="660" on="1"/>
        <pt x="132" y="660" on="1"/>
        <pt x="132" y="540" on="1"/>
        <pt x="272" y="540" on="1"/>
        <pt x="387" y="540" on="0"/>
        <pt x="504" y="456" on="0"/>
        <pt x="504" y="360" on="1"/>
        <pt x="504" y="267" on="0"/>
        <pt x="384" y="172" on="0"/>
        <pt x="272" y="172" on="1"/>
        <pt x="132" y="172" on="1"/>
        <pt x="132" y="0" on="1"/>
        <pt x="100" y="0" on="1"/>
      </contour>
      <contour>
        <pt x="260" y="200" on="1"/>
        <pt x="368" y="200" on="0"/>
        <pt x="470" y="276" on="0"/>
        <pt x="470" y="360" on="1"/>
        <pt x="470" y="445" on="0"/>
        <pt x="370" y="512" on="0"/>
        <pt x="260" y="512" on="1"/>
        <pt x="132" y="512" on="1"/>
        <pt x="132" y="200" on="1"/>
      </contour>
    </TTGlyph>
    <TTGlyph name="U" xMin="98" yMin="-12" xMax="532" yMax="660">
      <contour>
        <pt x="221" y="-12" on="0"/>
        <pt x="98" y="106" on="0"/>
        <pt x="98" y="246" on="1"/>
        <pt x="98" y="660" on="1"/>
        <pt x="130" y="660" on="1"/>
        <pt x="130" y="254" on="1"/>
        <pt x="130" y="127" on="0"/>
        <pt x="233" y="18" on="0"/>
        <pt x="314" y="18" on="1"/>
        <pt x="397" y="18" on="0"/>
        <pt x="502" y="127" on="0"/>
        <pt x="502" y="254" on="1"/>
        <pt x="502" y="660" on="1"/>
        <pt x="532" y="660" on="1"/>
        <pt x="532" y="246" on="1"/>
        <pt x="532" y="106" on="0"/>
        <pt x="407" y="-12" on="0"/>
        <pt x="314" y="-12" on="1"/>
      </contour>
    </TTGlyph>
    <TTGlyph name="Uacute" xMin="98" yMin="-12" xMax="532" yMax="846">
      <component glyphName="U" x="0" y="0" flags="0x0"/>
      <component glyphName="acutecomb.cap" x="314" y="0" flags="0x0"/>
    </TTGlyph>
    <TTGlyph name="Ucircumflex" xMin="98" yMin="-12" xMax="532" yMax="840">
      <component glyphName="U" x="0" y="0" flags="0x0"/>
      <component glyphName="uni0302.cap" x="314" y="0" flags="0x0"/>
    </TTGlyph>
    <TTGlyph name="Udieresis" xMin="98" yMin="-12" xMax="532" yMax="792">
      <component glyphName="U" x="0" y="0" flags="0x0"/>
      <component glyphName="uni0308.cap" x="314" y="0" flags="0x0"/>
    </TTGlyph>
    <TTGlyph name="Ugrave" xMin="98" yMin="-12" xMax="532" yMax="846">
      <component glyphName="U" x="0" y="0" flags="0x0"/>
      <component glyphName="gravecomb.cap" x="314" y="0" flags="0x0"/>
    </TTGlyph>
    <TTGlyph name="Umacron" xMin="98" yMin="-12" xMax="532" yMax="774">
      <component glyphName="U" x="0" y="0" flags="0x0"/>
      <component glyphName="uni0304.cap" x="314" y="0" flags="0x0"/>
    </TTGlyph>
    <TTGlyph name="V" xMin="6" yMin="0" xMax="476" yMax="660">
      <contour>
        <pt x="6" y="660" on="1"/>
        <pt x="40" y="660" on="1"/>
        <pt x="168" y="264" on="1"/>
        <pt x="186" y="207" on="1"/>
        <pt x="214" y="118" on="0"/>
        <pt x="240" y="41" on="1"/>
        <pt x="244" y="41" on="1"/>
        <pt x="270" y="118" on="0"/>
        <pt x="298" y="207" on="1"/>
        <pt x="316" y="264" on="1"/>
        <pt x="444" y="660" on="1"/>
        <pt x="476" y="660" on="1"/>
        <pt x="258" y="0" on="1"/>
        <pt x="226" y="0" on="1"/>
      </contour>
    </TTGlyph>
    <TTGlyph name="W" xMin="30" yMin="0" xMax="732" yMax="660">
      <contour>
        <pt x="30" y="660" on="1"/>
        <pt x="64" y="660" on="1"/>
        <pt x="152" y="260" on="1"/>
        <pt x="200" y="44" on="1"/>
        <pt x="204" y="44" on="1"/>
        <pt x="220" y="116" on="0"/>
        <pt x="256" y="260" on="1"/>
        <pt x="364" y="660" on="1"/>
        <pt x="400" y="660" on="1"/>
        <pt x="508" y="260" on="1"/>
        <pt x="562" y="44" on="1"/>
        <pt x="566" y="44" on="1"/>
        <pt x="582" y="116" on="0"/>
        <pt x="589" y="152" on="1"/>
        <pt x="612" y="260" on="1"/>
        <pt x="700" y="660" on="1"/>
        <pt x="732" y="660" on="1"/>
        <pt x="580" y="0" on="1"/>
        <pt x="548" y="0" on="1"/>
        <pt x="420" y="474" on="1"/>
        <pt x="402" y="548" on="1"/>
        <pt x="384" y="622" on="1"/>
        <pt x="380" y="622" on="1"/>
        <pt x="370" y="580" on="0"/>
        <pt x="361" y="548" on="1"/>
        <pt x="357" y="534" on="0"/>
        <pt x="347" y="497" on="0"/>
        <pt x="342" y="474" on="1"/>
        <pt x="216" y="0" on="1"/>
        <pt x="184" y="0" on="1"/>
      </contour>
    </TTGlyph>
    <TTGlyph name="X" xMin="18" yMin="0" xMax="452" yMax="660">
      <contour>
        <pt x="218" y="342" on="1"/>
        <pt x="32" y="660" on="1"/>
        <pt x="66" y="660" on="1"/>
        <pt x="182" y="456" on="1"/>
        <pt x="236" y="368" on="1"/>
        <pt x="240" y="368" on="1"/>
        <pt x="275" y="431" on="0"/>
        <pt x="290" y="456" on="1"/>
        <pt x="406" y="660" on="1"/>
        <pt x="438" y="660" on="1"/>
        <pt x="252" y="340" on="1"/>
        <pt x="452" y="0" on="1"/>
        <pt x="418" y="0" on="1"/>
        <pt x="296" y="212" on="1"/>
        <pt x="262" y="269" on="0"/>
        <pt x="254" y="282" on="1"/>
        <pt x="234" y="316" on="1"/>
        <pt x="230" y="316" on="1"/>
        <pt x="172" y="212" on="1"/>
        <pt x="50" y="0" on="1"/>
        <pt x="18" y="0" on="1"/>
      </contour>
    </TTGlyph>
    <TTGlyph name="Y" xMin="4" yMin="0" xMax="432" yMax="660">
      <contour>
        <pt x="202" y="272" on="1"/>
        <pt x="4" y="660" on="1"/>
        <pt x="38" y="660" on="1"/>
        <pt x="144" y="446" on="1"/>
        <pt x="162" y="410" on="1"/>
        <pt x="184" y="364" on="0"/>
        <pt x="216" y="304" on="1"/>
        <pt x="220" y="304" on="1"/>
        <pt x="234" y="329" on="1"/>
        <pt x="279" y="412" on="0"/>
        <pt x="294" y="446" on="1"/>
        <pt x="400" y="660" on="1"/>
        <pt x="432" y="660" on="1"/>
        <pt x="234" y="272" on="1"/>
        <pt x="234" y="0" on="1"/>
        <pt x="202" y="0" on="1"/>
      </contour>
    </TTGlyph>
    <TTGlyph name="Yacute" xMin="4" yMin="0" xMax="432" yMax="846">
      <component glyphName="Y" x="0" y="0" flags="0x0"/>
      <component glyphName="acutecomb.cap" x="218" y="0" flags="0x0"/>
    </TTGlyph>
    <TTGlyph name="Ydieresis" xMin="4" yMin="0" xMax="432" yMax="792">
      <component glyphName="Y" x="0" y="0" flags="0x0"/>
      <component glyphName="uni0308.cap" x="218" y="0" flags="0x0"/>
    </TTGlyph>
    <TTGlyph name="Z" xMin="52" yMin="0" xMax="488" yMax="660">
      <contour>
        <pt x="52" y="18" on="1"/>
        <pt x="444" y="632" on="1"/>
        <pt x="86" y="632" on="1"/>
        <pt x="86" y="660" on="1"/>
        <pt x="484" y="660" on="1"/>
        <pt x="484" y="642" on="1"/>
        <pt x="92" y="28" on="1"/>
        <pt x="488" y="28" on="1"/>
        <pt x="488" y="0" on="1"/>
        <pt x="52" y="0" on="1"/>
      </contour>
    </TTGlyph>
    <TTGlyph name="ZWJ" xMin="-150" yMin="785" xMax="151" yMax="894">
      <contour>
        <pt x="-150" y="894" on="1"/>
        <pt x="151" y="894" on="1"/>
        <pt x="151" y="785" on="1"/>
        <pt x="117" y="785" on="1"/>
        <pt x="117" y="858" on="1"/>
        <pt x="-116" y="858" on="1"/>
        <pt x="-116" y="785" on="1"/>
        <pt x="-150" y="785" on="1"/>
      </contour>
    </TTGlyph>
    <TTGlyph name="ZWNJ" xMin="-104" yMin="767" xMax="103" yMax="984">
      <contour>
        <pt x="-104" y="792" on="1"/>
        <pt x="-26" y="875" on="1"/>
        <pt x="-104" y="957" on="1"/>
        <pt x="-81" y="984" on="1"/>
        <pt x="0" y="900" on="1"/>
        <pt x="79" y="982" on="1"/>
        <pt x="103" y="957" on="1"/>
        <pt x="24" y="875" on="1"/>
        <pt x="103" y="792" on="1"/>
        <pt x="79" y="768" on="1"/>
        <pt x="0" y="848" on="1"/>
        <pt x="-81" y="767" on="1"/>
      </contour>
    </TTGlyph>
    <TTGlyph name="Zcaron" xMin="52" yMin="0" xMax="488" yMax="840">
      <component glyphName="Z" x="0" y="0" flags="0x0"/>
      <component glyphName="uni030C.cap" x="278" y="0" flags="0x0"/>
    </TTGlyph>
    <TTGlyph name="a" xMin="60" yMin="-12" xMax="404" yMax="490">
      <contour>
        <pt x="138" y="-12" on="0"/>
        <pt x="60" y="52" on="0"/>
        <pt x="60" y="117" on="1"/>
        <pt x="60" y="196" on="0"/>
        <pt x="209" y="280" on="0"/>
        <pt x="374" y="298" on="1"/>
        <pt x="376" y="368" on="0"/>
        <pt x="324" y="462" on="0"/>
        <pt x="256" y="462" on="1"/>
        <pt x="210" y="462" on="0"/>
        <pt x="129" y="427" on="0"/>
        <pt x="100" y="404" on="1"/>
        <pt x="84" y="428" on="1"/>
        <pt x="116" y="452" on="0"/>
        <pt x="207" y="490" on="0"/>
        <pt x="258" y="490" on="1"/>
        <pt x="336" y="490" on="0"/>
        <pt x="404" y="391" on="0"/>
        <pt x="404" y="310" on="1"/>
        <pt x="404" y="0" on="1"/>
        <pt x="378" y="0" on="1"/>
        <pt x="374" y="64" on="1"/>
        <pt x="372" y="64" on="1"/>
        <pt x="277" y="-12" on="0"/>
        <pt x="198" y="-12" on="1"/>
      </contour>
      <contour>
        <pt x="242" y="16" on="0"/>
        <pt x="324" y="56" on="0"/>
        <pt x="374" y="98" on="1"/>
        <pt x="374" y="272" on="1"/>
        <pt x="220" y="254" on="0"/>
        <pt x="92" y="181" on="0"/>
        <pt x="92" y="118" on="1"/>
        <pt x="92" y="66" on="0"/>
        <pt x="153" y="16" on="0"/>
        <pt x="200" y="16" on="1"/>
      </contour>
    </TTGlyph>
    <TTGlyph name="a.sups" xMin="44" yMin="402" xMax="280" yMax="734">
      <contour>
        <pt x="97" y="402" on="0"/>
        <pt x="44" y="449" on="0"/>
        <pt x="44" y="492" on="1"/>
        <pt x="44" y="544" on="0"/>
        <pt x="143" y="599" on="0"/>
        <pt x="252" y="610" on="1"/>
        <pt x="252" y="656" on="0"/>
        <pt x="220" y="708" on="0"/>
        <pt x="180" y="708" on="1"/>
        <pt x="151" y="708" on="0"/>
        <pt x="90" y="684" on="0"/>
        <pt x="70" y="670" on="1"/>
        <pt x="58" y="692" on="1"/>
        <pt x="82" y="708" on="0"/>
        <pt x="147" y="734" on="0"/>
        <pt x="182" y="734" on="1"/>
        <pt x="236" y="734" on="0"/>
        <pt x="280" y="671" on="0"/>
        <pt x="280" y="612" on="1"/>
        <pt x="280" y="410" on="1"/>
        <pt x="258" y="410" on="1"/>
        <pt x="252" y="450" on="1"/>
        <pt x="248" y="450" on="1"/>
        <pt x="192" y="402" on="0"/>
        <pt x="140" y="402" on="1"/>
      </contour>
      <contour>
        <pt x="197" y="428" on="0"/>
        <pt x="252" y="480" on="1"/>
        <pt x="252" y="588" on="1"/>
        <pt x="156" y="578" on="0"/>
        <pt x="74" y="532" on="0"/>
        <pt x="74" y="494" on="1"/>
        <pt x="74" y="461" on="0"/>
        <pt x="112" y="428" on="0"/>
        <pt x="146" y="428" on="1"/>
      </contour>
    </TTGlyph>
    <TTGlyph name="aacute" xMin="60" yMin="-12" xMax="404" yMax="744">
      <component glyphName="a" x="0" y="0" flags="0x0"/>
      <component glyphName="acutecomb" x="260" y="0" flags="0x0"/>
    </TTGlyph>
    <TTGlyph name="abreve" xMin="60" yMin="-12" xMax="406" yMax="720">
      <component glyphName="a" x="0" y="0" flags="0x0"/>
      <component glyphName="uni0306" x="260" y="0" flags="0x0"/>
    </TTGlyph>
    <TTGlyph name="acircumflex" xMin="60" yMin="-12" xMax="404" yMax="736">
      <component glyphName="a" x="0" y="0" flags="0x0"/>
      <component glyphName="uni0302" x="260" y="0" flags="0x0"/>
    </TTGlyph>
    <TTGlyph name="acute" xMin="214" yMin="574" xMax="370" yMax="744">
      <component glyphName="acutecomb" x="266" y="0" flags="0x0"/>
    </TTGlyph>
    <TTGlyph name="acutecomb" xMin="-52" yMin="574" xMax="104" yMax="744">
      <contour>
        <pt x="-52" y="590" on="1"/>
        <pt x="80" y="744" on="1"/>
        <pt x="104" y="724" on="1"/>
        <pt x="-34" y="574" on="1"/>
      </contour>
    </TTGlyph>
    <TTGlyph name="acutecomb.cap" xMin="-36" yMin="710" xMax="104" yMax="846">
      <contour>
        <pt x="-36" y="726" on="1"/>
        <pt x="82" y="846" on="1"/>
        <pt x="104" y="822" on="1"/>
        <pt x="-22" y="710" on="1"/>
      </contour>
    </TTGlyph>
    <TTGlyph name="adieresis" xMin="60" yMin="-12" xMax="404" yMax="666">
      <component glyphName="a" x="0" y="0" flags="0x0"/>
      <component glyphName="uni0308" x="260" y="0" flags="0x0"/>
    </TTGlyph>
    <TTGlyph name="ae" xMin="68" yMin="-12" xMax="746" yMax="490">
      <contour>
        <pt x="146" y="-12" on="0"/>
        <pt x="68" y="52" on="0"/>
        <pt x="68" y="116" on="1"/>
        <pt x="68" y="195" on="0"/>
        <pt x="216" y="280" on="0"/>
        <pt x="376" y="298" on="1"/>
        <pt x="378" y="368" on="0"/>
        <pt x="326" y="462" on="0"/>
        <pt x="258" y="462" on="1"/>
        <pt x="216" y="462" on="0"/>
        <pt x="136" y="427" on="0"/>
        <pt x="108" y="404" on="1"/>
        <pt x="92" y="428" on="1"/>
        <pt x="124" y="451" on="0"/>
        <pt x="212" y="490" on="0"/>
        <pt x="260" y="490" on="1"/>
        <pt x="318" y="490" on="0"/>
        <pt x="389" y="423" on="0"/>
        <pt x="400" y="364" on="1"/>
        <pt x="426" y="422" on="0"/>
        <pt x="517" y="490" on="0"/>
        <pt x="570" y="490" on="1"/>
        <pt x="653" y="490" on="0"/>
        <pt x="746" y="376" on="0"/>
        <pt x="746" y="270" on="1"/>
        <pt x="746" y="250" on="0"/>
        <pt x="744" y="238" on="1"/>
        <pt x="406" y="238" on="1"/>
        <pt x="405" y="175" on="0"/>
        <pt x="451" y="74" on="0"/>
        <pt x="534" y="16" on="0"/>
        <pt x="584" y="16" on="1"/>
        <pt x="622" y="16" on="0"/>
        <pt x="682" y="39" on="0"/>
        <pt x="712" y="60" on="1"/>
        <pt x="726" y="34" on="1"/>
        <pt x="688" y="11" on="0"/>
        <pt x="630" y="-12" on="0"/>
        <pt x="582" y="-12" on="1"/>
        <pt x="522" y="-12" on="0"/>
        <pt x="441" y="44" on="0"/>
        <pt x="410" y="90" on="1"/>
        <pt x="364" y="44" on="0"/>
        <pt x="251" y="-12" on="0"/>
        <pt x="206" y="-12" on="1"/>
      </contour>
      <contour>
        <pt x="716" y="264" on="1"/>
        <pt x="716" y="361" on="0"/>
        <pt x="639" y="462" on="0"/>
        <pt x="570" y="462" on="1"/>
        <pt x="528" y="462" on="0"/>
        <pt x="457" y="411" on="0"/>
        <pt x="411" y="321" on="0"/>
        <pt x="406" y="264" on="1"/>
      </contour>
      <contour>
        <pt x="250" y="16" on="0"/>
        <pt x="356" y="70" on="0"/>
        <pt x="398" y="116" on="1"/>
        <pt x="388" y="138" on="0"/>
        <pt x="376" y="207" on="0"/>
        <pt x="376" y="244" on="1"/>
        <pt x="376" y="272" on="1"/>
        <pt x="228" y="254" on="0"/>
        <pt x="100" y="181" on="0"/>
        <pt x="100" y="118" on="1"/>
        <pt x="100" y="66" on="0"/>
        <pt x="161" y="16" on="0"/>
        <pt x="208" y="16" on="1"/>
      </contour>
    </TTGlyph>
    <TTGlyph name="agrave" xMin="60" yMin="-12" xMax="404" yMax="744">
      <component glyphName="a" x="0" y="0" flags="0x0"/>
      <component glyphName="gravecomb" x="260" y="0" flags="0x0"/>
    </TTGlyph>
    <TTGlyph name="alphalatin" xMin="54" yMin="-12" xMax="488" yMax="490">
      <contour>
        <pt x="160" y="-12" on="0"/>
        <pt x="54" y="118" on="0"/>
        <pt x="54" y="238" on="1"/>
        <pt x="54" y="313" on="0"/>
        <pt x="112" y="428" on="0"/>
        <pt x="210" y="490" on="0"/>
        <pt x="268" y="490" on="1"/>
        <pt x="309" y="490" on="0"/>
        <pt x="374" y="462" on="0"/>
        <pt x="412" y="432" on="1"/>
        <pt x="414" y="432" on="1"/>
        <pt x="416" y="478" on="1"/>
        <pt x="444" y="478" on="1"/>
        <pt x="444" y="46" on="1"/>
        <pt x="444" y="31" on="0"/>
        <pt x="455" y="16" on="0"/>
        <pt x="464" y="16" on="1"/>
        <pt x="472" y="16" on="0"/>
        <pt x="482" y="18" on="1"/>
        <pt x="488" y="-8" on="1"/>
        <pt x="472" y="-12" on="0"/>
        <pt x="462" y="-12" on="1"/>
        <pt x="435" y="-12" on="0"/>
        <pt x="414" y="24" on="0"/>
        <pt x="414" y="64" on="1"/>
        <pt x="412" y="64" on="1"/>
        <pt x="336" y="-12" on="0"/>
        <pt x="252" y="-12" on="1"/>
      </contour>
      <contour>
        <pt x="295" y="16" on="0"/>
        <pt x="372" y="58" on="0"/>
        <pt x="414" y="100" on="1"/>
        <pt x="414" y="396" on="1"/>
        <pt x="374" y="431" on="0"/>
        <pt x="304" y="462" on="0"/>
        <pt x="266" y="462" on="1"/>
        <pt x="216" y="462" on="0"/>
        <pt x="133" y="402" on="0"/>
        <pt x="86" y="299" on="0"/>
        <pt x="86" y="238" on="1"/>
        <pt x="86" y="137" on="0"/>
        <pt x="174" y="16" on="0"/>
        <pt x="254" y="16" on="1"/>
      </contour>
    </TTGlyph>
    <TTGlyph name="amacron" xMin="60" yMin="-12" xMax="404" yMax="636">
      <component glyphName="a" x="0" y="0" flags="0x0"/>
      <component glyphName="uni0304" x="260" y="0" flags="0x0"/>
    </TTGlyph>
    <TTGlyph name="ampersand" xMin="38" yMin="-12" xMax="550" yMax="672">
      <contour>
        <pt x="538" y="-12" on="1"/>
        <pt x="475" y="12" on="0"/>
        <pt x="401" y="74" on="1"/>
        <pt x="362" y="33" on="0"/>
        <pt x="276" y="-12" on="0"/>
        <pt x="224" y="-12" on="1"/>
        <pt x="174" y="-12" on="0"/>
        <pt x="88" y="32" on="0"/>
        <pt x="38" y="113" on="0"/>
        <pt x="38" y="166" on="1"/>
        <pt x="38" y="223" on="0"/>
        <pt x="109" y="312" on="0"/>
        <pt x="175" y="362" on="1"/>
        <pt x="130" y="454" on="0"/>
        <pt x="130" y="528" on="1"/>
        <pt x="130" y="591" on="0"/>
        <pt x="203" y="672" on="0"/>
        <pt x="260" y="672" on="1"/>
        <pt x="309" y="672" on="0"/>
        <pt x="364" y="607" on="0"/>
        <pt x="364" y="556" on="1"/>
        <pt x="364" y="517" on="0"/>
        <pt x="322" y="449" on="0"/>
        <pt x="263" y="398" on="0"/>
        <pt x="210" y="357" on="1"/>
        <pt x="244" y="292" on="0"/>
        <pt x="344" y="165" on="0"/>
        <pt x="399" y="115" on="1"/>
        <pt x="470" y="203" on="0"/>
        <pt x="508" y="342" on="1"/>
        <pt x="538" y="342" on="1"/>
        <pt x="496" y="193" on="0"/>
        <pt x="420" y="97" on="1"/>
        <pt x="490" y="39" on="0"/>
        <pt x="550" y="16" on="1"/>
      </contour>
      <contour>
        <pt x="160" y="465" on="0"/>
        <pt x="199" y="380" on="1"/>
        <pt x="244" y="414" on="0"/>
        <pt x="298" y="462" on="0"/>
        <pt x="334" y="520" on="0"/>
        <pt x="334" y="554" on="1"/>
        <pt x="334" y="591" on="0"/>
        <pt x="297" y="644" on="0"/>
        <pt x="258" y="644" on="1"/>
        <pt x="213" y="644" on="0"/>
        <pt x="160" y="578" on="0"/>
        <pt x="160" y="530" on="1"/>
      </contour>
      <contour>
        <pt x="306" y="16" on="0"/>
        <pt x="380" y="93" on="1"/>
        <pt x="323" y="146" on="0"/>
        <pt x="222" y="273" on="0"/>
        <pt x="187" y="339" on="1"/>
        <pt x="131" y="295" on="0"/>
        <pt x="70" y="216" on="0"/>
        <pt x="70" y="168" on="1"/>
        <pt x="70" y="123" on="0"/>
        <pt x="112" y="54" on="0"/>
        <pt x="184" y="16" on="0"/>
        <pt x="226" y="16" on="1"/>
      </contour>
    </TTGlyph>
    <TTGlyph name="ampersand.lat" xMin="38" yMin="-12" xMax="550" yMax="672">
      <contour>
        <pt x="538" y="-12" on="1"/>
        <pt x="475" y="12" on="0"/>
        <pt x="401" y="74" on="1"/>
        <pt x="362" y="33" on="0"/>
        <pt x="276" y="-12" on="0"/>
        <pt x="224" y="-12" on="1"/>
        <pt x="174" y="-12" on="0"/>
        <pt x="88" y="32" on="0"/>
        <pt x="38" y="113" on="0"/>
        <pt x="38" y="166" on="1"/>
        <pt x="38" y="223" on="0"/>
        <pt x="109" y="312" on="0"/>
        <pt x="175" y="362" on="1"/>
        <pt x="130" y="454" on="0"/>
        <pt x="130" y="528" on="1"/>
        <pt x="130" y="591" on="0"/>
        <pt x="203" y="672" on="0"/>
        <pt x="260" y="672" on="1"/>
        <pt x="309" y="672" on="0"/>
        <pt x="364" y="607" on="0"/>
        <pt x="364" y="556" on="1"/>
        <pt x="364" y="517" on="0"/>
        <pt x="322" y="449" on="0"/>
        <pt x="263" y="398" on="0"/>
        <pt x="210" y="357" on="1"/>
        <pt x="244" y="292" on="0"/>
        <pt x="344" y="165" on="0"/>
        <pt x="399" y="115" on="1"/>
        <pt x="470" y="203" on="0"/>
        <pt x="508" y="342" on="1"/>
        <pt x="538" y="342" on="1"/>
        <pt x="496" y="193" on="0"/>
        <pt x="420" y="97" on="1"/>
        <pt x="490" y="39" on="0"/>
        <pt x="550" y="16" on="1"/>
      </contour>
      <contour>
        <pt x="160" y="465" on="0"/>
        <pt x="199" y="380" on="1"/>
        <pt x="244" y="414" on="0"/>
        <pt x="298" y="462" on="0"/>
        <pt x="334" y="520" on="0"/>
        <pt x="334" y="554" on="1"/>
        <pt x="334" y="591" on="0"/>
        <pt x="297" y="644" on="0"/>
        <pt x="258" y="644" on="1"/>
        <pt x="213" y="644" on="0"/>
        <pt x="160" y="578" on="0"/>
        <pt x="160" y="530" on="1"/>
      </contour>
      <contour>
        <pt x="306" y="16" on="0"/>
        <pt x="380" y="93" on="1"/>
        <pt x="323" y="146" on="0"/>
        <pt x="222" y="273" on="0"/>
        <pt x="187" y="339" on="1"/>
        <pt x="131" y="295" on="0"/>
        <pt x="70" y="216" on="0"/>
        <pt x="70" y="168" on="1"/>
        <pt x="70" y="123" on="0"/>
        <pt x="112" y="54" on="0"/>
        <pt x="184" y="16" on="0"/>
        <pt x="226" y="16" on="1"/>
      </contour>
    </TTGlyph>
    <TTGlyph name="approxequal" xMin="42" yMin="170" xMax="430" yMax="490">
      <component glyphName="asciitilde" x="0" y="100" flags="0x4"/>
      <component glyphName="asciitilde" x="0" y="-100" flags="0x4"/>
    </TTGlyph>
    <TTGlyph name="aring" xMin="60" yMin="-12" xMax="404" yMax="734">
      <component glyphName="a" x="0" y="0" flags="0x0"/>
      <component glyphName="uni030A" x="260" y="0" flags="0x0"/>
    </TTGlyph>
    <TTGlyph name="asciicircum" xMin="68" yMin="292" xMax="404" yMax="670">
      <contour>
        <pt x="218" y="670" on="1"/>
        <pt x="254" y="670" on="1"/>
        <pt x="404" y="292" on="1"/>
        <pt x="372" y="292" on="1"/>
        <pt x="290" y="506" on="1"/>
        <pt x="238" y="638" on="1"/>
        <pt x="234" y="638" on="1"/>
        <pt x="182" y="506" on="1"/>
        <pt x="100" y="292" on="1"/>
        <pt x="68" y="292" on="1"/>
      </contour>
    </TTGlyph>
    <TTGlyph name="asciicircum.lat" xMin="68" yMin="292" xMax="404" yMax="670">
      <contour>
        <pt x="218" y="670" on="1"/>
        <pt x="254" y="670" on="1"/>
        <pt x="404" y="292" on="1"/>
        <pt x="372" y="292" on="1"/>
        <pt x="290" y="506" on="1"/>
        <pt x="238" y="638" on="1"/>
        <pt x="234" y="638" on="1"/>
        <pt x="182" y="506" on="1"/>
        <pt x="100" y="292" on="1"/>
        <pt x="68" y="292" on="1"/>
      </contour>
    </TTGlyph>
    <TTGlyph name="asciitilde" xMin="42" yMin="270" xMax="430" yMax="390">
      <contour>
        <pt x="299" y="270" on="0"/>
        <pt x="253" y="296" on="0"/>
        <pt x="222" y="321" on="1"/>
        <pt x="196" y="342" on="0"/>
        <pt x="162" y="362" on="0"/>
        <pt x="144" y="362" on="1"/>
        <pt x="120" y="362" on="0"/>
        <pt x="81" y="333" on="0"/>
        <pt x="64" y="298" on="1"/>
        <pt x="42" y="310" on="1"/>
        <pt x="61" y="349" on="0"/>
        <pt x="116" y="390" on="0"/>
        <pt x="146" y="390" on="1"/>
        <pt x="173" y="390" on="0"/>
        <pt x="219" y="364" on="0"/>
        <pt x="250" y="339" on="1"/>
        <pt x="276" y="318" on="0"/>
        <pt x="310" y="298" on="0"/>
        <pt x="328" y="298" on="1"/>
        <pt x="352" y="298" on="0"/>
        <pt x="391" y="327" on="0"/>
        <pt x="408" y="362" on="1"/>
        <pt x="430" y="348" on="1"/>
        <pt x="411" y="310" on="0"/>
        <pt x="356" y="270" on="0"/>
        <pt x="326" y="270" on="1"/>
      </contour>
    </TTGlyph>
    <TTGlyph name="asterisk" xMin="74" yMin="478" xMax="312" yMax="712">
      <contour>
        <pt x="108" y="494" on="1"/>
        <pt x="162" y="580" on="1"/>
        <pt x="74" y="614" on="1"/>
        <pt x="82" y="638" on="1"/>
        <pt x="174" y="612" on="1"/>
        <pt x="180" y="712" on="1"/>
        <pt x="206" y="712" on="1"/>
        <pt x="212" y="614" on="1"/>
        <pt x="304" y="638" on="1"/>
        <pt x="312" y="614" on="1"/>
        <pt x="224" y="580" on="1"/>
        <pt x="278" y="494" on="1"/>
        <pt x="256" y="478" on="1"/>
        <pt x="194" y="560" on="1"/>
        <pt x="130" y="478" on="1"/>
      </contour>
    </TTGlyph>
    <TTGlyph name="asterisk.lat" xMin="74" yMin="478" xMax="312" yMax="712">
      <contour>
        <pt x="108" y="494" on="1"/>
        <pt x="162" y="580" on="1"/>
        <pt x="74" y="614" on="1"/>
        <pt x="82" y="638" on="1"/>
        <pt x="174" y="612" on="1"/>
        <pt x="180" y="712" on="1"/>
        <pt x="206" y="712" on="1"/>
        <pt x="212" y="614" on="1"/>
        <pt x="304" y="638" on="1"/>
        <pt x="312" y="614" on="1"/>
        <pt x="224" y="580" on="1"/>
        <pt x="278" y="494" on="1"/>
        <pt x="256" y="478" on="1"/>
        <pt x="194" y="560" on="1"/>
        <pt x="130" y="478" on="1"/>
      </contour>
    </TTGlyph>
    <TTGlyph name="at" xMin="52" yMin="-142" xMax="750" yMax="628">
      <contour>
        <pt x="286" y="-142" on="0"/>
        <pt x="136" y="-59" on="0"/>
        <pt x="52" y="96" on="0"/>
        <pt x="52" y="202" on="1"/>
        <pt x="52" y="327" on="0"/>
        <pt x="159" y="521" on="0"/>
        <pt x="338" y="628" on="0"/>
        <pt x="442" y="628" on="1"/>
        <pt x="536" y="628" on="0"/>
        <pt x="675" y="551" on="0"/>
        <pt x="750" y="410" on="0"/>
        <pt x="750" y="316" on="1"/>
        <pt x="750" y="236" on="0"/>
        <pt x="696" y="119" on="0"/>
        <pt x="614" y="58" on="0"/>
        <pt x="572" y="58" on="1"/>
        <pt x="531" y="58" on="0"/>
        <pt x="481" y="96" on="0"/>
        <pt x="478" y="134" on="1"/>
        <pt x="476" y="134" on="1"/>
        <pt x="445" y="101" on="0"/>
        <pt x="386" y="64" on="0"/>
        <pt x="354" y="64" on="1"/>
        <pt x="306" y="64" on="0"/>
        <pt x="242" y="134" on="0"/>
        <pt x="242" y="198" on="1"/>
        <pt x="242" y="247" on="0"/>
        <pt x="287" y="351" on="0"/>
        <pt x="370" y="420" on="0"/>
        <pt x="426" y="420" on="1"/>
        <pt x="480" y="420" on="0"/>
        <pt x="510" y="372" on="1"/>
        <pt x="512" y="372" on="1"/>
        <pt x="520" y="412" on="1"/>
        <pt x="546" y="412" on="1"/>
        <pt x="512" y="228" on="1"/>
        <pt x="503" y="191" on="0"/>
        <pt x="503" y="162" on="1"/>
        <pt x="503" y="86" on="0"/>
        <pt x="574" y="86" on="1"/>
        <pt x="607" y="86" on="0"/>
        <pt x="675" y="141" on="0"/>
        <pt x="720" y="245" on="0"/>
        <pt x="720" y="314" on="1"/>
        <pt x="720" y="401" on="0"/>
        <pt x="651" y="530" on="0"/>
        <pt x="524" y="600" on="0"/>
        <pt x="440" y="600" on="1"/>
        <pt x="347" y="600" on="0"/>
        <pt x="182" y="501" on="0"/>
        <pt x="82" y="320" on="0"/>
        <pt x="82" y="204" on="1"/>
        <pt x="82" y="108" on="0"/>
        <pt x="157" y="-36" on="0"/>
        <pt x="294" y="-114" on="0"/>
        <pt x="384" y="-114" on="1"/>
        <pt x="474" y="-114" on="0"/>
        <pt x="554" y="-64" on="1"/>
        <pt x="568" y="-88" on="1"/>
        <pt x="484" y="-142" on="0"/>
        <pt x="382" y="-142" on="1"/>
      </contour>
      <contour>
        <pt x="409" y="92" on="0"/>
        <pt x="470" y="162" on="1"/>
        <pt x="502" y="340" on="1"/>
        <pt x="483" y="370" on="0"/>
        <pt x="448" y="392" on="0"/>
        <pt x="424" y="392" on="1"/>
        <pt x="379" y="392" on="0"/>
        <pt x="310" y="334" on="0"/>
        <pt x="272" y="245" on="0"/>
        <pt x="272" y="200" on="1"/>
        <pt x="272" y="144" on="0"/>
        <pt x="318" y="92" on="0"/>
        <pt x="356" y="92" on="1"/>
      </contour>
    </TTGlyph>
    <TTGlyph name="at.lat" xMin="52" yMin="-142" xMax="750" yMax="628">
      <contour>
        <pt x="286" y="-142" on="0"/>
        <pt x="136" y="-59" on="0"/>
        <pt x="52" y="96" on="0"/>
        <pt x="52" y="202" on="1"/>
        <pt x="52" y="327" on="0"/>
        <pt x="159" y="521" on="0"/>
        <pt x="338" y="628" on="0"/>
        <pt x="442" y="628" on="1"/>
        <pt x="536" y="628" on="0"/>
        <pt x="675" y="551" on="0"/>
        <pt x="750" y="410" on="0"/>
        <pt x="750" y="316" on="1"/>
        <pt x="750" y="236" on="0"/>
        <pt x="696" y="119" on="0"/>
        <pt x="614" y="58" on="0"/>
        <pt x="572" y="58" on="1"/>
        <pt x="531" y="58" on="0"/>
        <pt x="481" y="96" on="0"/>
        <pt x="478" y="134" on="1"/>
        <pt x="476" y="134" on="1"/>
        <pt x="445" y="101" on="0"/>
        <pt x="386" y="64" on="0"/>
        <pt x="354" y="64" on="1"/>
        <pt x="306" y="64" on="0"/>
        <pt x="242" y="134" on="0"/>
        <pt x="242" y="198" on="1"/>
        <pt x="242" y="247" on="0"/>
        <pt x="287" y="351" on="0"/>
        <pt x="370" y="420" on="0"/>
        <pt x="426" y="420" on="1"/>
        <pt x="480" y="420" on="0"/>
        <pt x="510" y="372" on="1"/>
        <pt x="512" y="372" on="1"/>
        <pt x="520" y="412" on="1"/>
        <pt x="546" y="412" on="1"/>
        <pt x="512" y="228" on="1"/>
        <pt x="503" y="191" on="0"/>
        <pt x="503" y="162" on="1"/>
        <pt x="503" y="86" on="0"/>
        <pt x="574" y="86" on="1"/>
        <pt x="607" y="86" on="0"/>
        <pt x="675" y="141" on="0"/>
        <pt x="720" y="245" on="0"/>
        <pt x="720" y="314" on="1"/>
        <pt x="720" y="401" on="0"/>
        <pt x="651" y="530" on="0"/>
        <pt x="524" y="600" on="0"/>
        <pt x="440" y="600" on="1"/>
        <pt x="347" y="600" on="0"/>
        <pt x="182" y="501" on="0"/>
        <pt x="82" y="320" on="0"/>
        <pt x="82" y="204" on="1"/>
        <pt x="82" y="108" on="0"/>
        <pt x="157" y="-36" on="0"/>
        <pt x="294" y="-114" on="0"/>
        <pt x="384" y="-114" on="1"/>
        <pt x="474" y="-114" on="0"/>
        <pt x="554" y="-64" on="1"/>
        <pt x="568" y="-88" on="1"/>
        <pt x="484" y="-142" on="0"/>
        <pt x="382" y="-142" on="1"/>
      </contour>
      <contour>
        <pt x="409" y="92" on="0"/>
        <pt x="470" y="162" on="1"/>
        <pt x="502" y="340" on="1"/>
        <pt x="483" y="370" on="0"/>
        <pt x="448" y="392" on="0"/>
        <pt x="424" y="392" on="1"/>
        <pt x="379" y="392" on="0"/>
        <pt x="310" y="334" on="0"/>
        <pt x="272" y="245" on="0"/>
        <pt x="272" y="200" on="1"/>
        <pt x="272" y="144" on="0"/>
        <pt x="318" y="92" on="0"/>
        <pt x="356" y="92" on="1"/>
      </contour>
    </TTGlyph>
    <TTGlyph name="atilde" xMin="60" yMin="-12" xMax="420" yMax="706">
      <component glyphName="a" x="0" y="0" flags="0x0"/>
      <component glyphName="tildecomb" x="260" y="0" flags="0x0"/>
    </TTGlyph>
    <TTGlyph name="b" xMin="96" yMin="-12" xMax="486" yMax="722">
      <contour>
        <pt x="240" y="-12" on="0"/>
        <pt x="163" y="20" on="0"/>
        <pt x="128" y="48" on="1"/>
        <pt x="126" y="48" on="1"/>
        <pt x="122" y="0" on="1"/>
        <pt x="96" y="0" on="1"/>
        <pt x="96" y="722" on="1"/>
        <pt x="126" y="722" on="1"/>
        <pt x="126" y="508" on="1"/>
        <pt x="124" y="412" on="1"/>
        <pt x="217" y="490" on="0"/>
        <pt x="294" y="490" on="1"/>
        <pt x="389" y="490" on="0"/>
        <pt x="486" y="360" on="0"/>
        <pt x="486" y="246" on="1"/>
        <pt x="486" y="168" on="0"/>
        <pt x="429" y="50" on="0"/>
        <pt x="332" y="-12" on="0"/>
        <pt x="274" y="-12" on="1"/>
      </contour>
      <contour>
        <pt x="327" y="16" on="0"/>
        <pt x="408" y="75" on="0"/>
        <pt x="454" y="180" on="0"/>
        <pt x="454" y="246" on="1"/>
        <pt x="454" y="344" on="0"/>
        <pt x="376" y="462" on="0"/>
        <pt x="292" y="462" on="1"/>
        <pt x="219" y="462" on="0"/>
        <pt x="126" y="378" on="1"/>
        <pt x="126" y="82" on="1"/>
        <pt x="165" y="48" on="0"/>
        <pt x="245" y="16" on="0"/>
        <pt x="276" y="16" on="1"/>
      </contour>
    </TTGlyph>
    <TTGlyph name="backslash" xMin="2" yMin="-160" xMax="352" yMax="710">
      <contour>
        <pt x="2" y="710" on="1"/>
        <pt x="32" y="710" on="1"/>
        <pt x="352" y="-160" on="1"/>
        <pt x="322" y="-160" on="1"/>
      </contour>
    </TTGlyph>
    <TTGlyph name="backslash.lat" xMin="2" yMin="-160" xMax="352" yMax="710">
      <contour>
        <pt x="2" y="710" on="1"/>
        <pt x="32" y="710" on="1"/>
        <pt x="352" y="-160" on="1"/>
        <pt x="322" y="-160" on="1"/>
      </contour>
    </TTGlyph>
    <TTGlyph name="bar" xMin="96" yMin="-250" xMax="124" yMax="750">
      <contour>
        <pt x="96" y="750" on="1"/>
        <pt x="124" y="750" on="1"/>
        <pt x="124" y="-250" on="1"/>
        <pt x="96" y="-250" on="1"/>
      </contour>
    </TTGlyph>
    <TTGlyph name="braceleft" xMin="36" yMin="-152" xMax="252" yMax="708">
      <contour>
        <pt x="165" y="-152" on="0"/>
        <pt x="114" y="-98" on="0"/>
        <pt x="114" y="-26" on="1"/>
        <pt x="114" y="12" on="0"/>
        <pt x="118" y="82" on="1"/>
        <pt x="122" y="150" on="0"/>
        <pt x="122" y="184" on="1"/>
        <pt x="122" y="266" on="0"/>
        <pt x="36" y="266" on="1"/>
        <pt x="36" y="290" on="1"/>
        <pt x="122" y="290" on="0"/>
        <pt x="122" y="370" on="1"/>
        <pt x="122" y="405" on="0"/>
        <pt x="118" y="475" on="1"/>
        <pt x="114" y="545" on="0"/>
        <pt x="114" y="582" on="1"/>
        <pt x="114" y="654" on="0"/>
        <pt x="165" y="708" on="0"/>
        <pt x="222" y="708" on="1"/>
        <pt x="252" y="708" on="1"/>
        <pt x="252" y="686" on="1"/>
        <pt x="220" y="686" on="1"/>
        <pt x="174" y="686" on="0"/>
        <pt x="140" y="635" on="0"/>
        <pt x="140" y="578" on="1"/>
        <pt x="140" y="531" on="0"/>
        <pt x="143" y="486" on="1"/>
        <pt x="143" y="471" on="0"/>
        <pt x="146" y="408" on="0"/>
        <pt x="146" y="382" on="1"/>
        <pt x="146" y="337" on="0"/>
        <pt x="125" y="289" on="0"/>
        <pt x="98" y="280" on="1"/>
        <pt x="98" y="276" on="1"/>
        <pt x="125" y="267" on="0"/>
        <pt x="146" y="218" on="0"/>
        <pt x="146" y="174" on="1"/>
        <pt x="146" y="148" on="0"/>
        <pt x="143" y="85" on="0"/>
        <pt x="143" y="70" on="1"/>
        <pt x="140" y="25" on="0"/>
        <pt x="140" y="-22" on="1"/>
        <pt x="140" y="-79" on="0"/>
        <pt x="174" y="-130" on="0"/>
        <pt x="220" y="-130" on="1"/>
        <pt x="252" y="-130" on="1"/>
        <pt x="252" y="-152" on="1"/>
        <pt x="222" y="-152" on="1"/>
      </contour>
    </TTGlyph>
    <TTGlyph name="braceleft.lat" xMin="36" yMin="-152" xMax="252" yMax="708">
      <contour>
        <pt x="165" y="-152" on="0"/>
        <pt x="114" y="-98" on="0"/>
        <pt x="114" y="-26" on="1"/>
        <pt x="114" y="12" on="0"/>
        <pt x="118" y="82" on="1"/>
        <pt x="122" y="150" on="0"/>
        <pt x="122" y="184" on="1"/>
        <pt x="122" y="266" on="0"/>
        <pt x="36" y="266" on="1"/>
        <pt x="36" y="290" on="1"/>
        <pt x="122" y="290" on="0"/>
        <pt x="122" y="370" on="1"/>
        <pt x="122" y="405" on="0"/>
        <pt x="118" y="475" on="1"/>
        <pt x="114" y="545" on="0"/>
        <pt x="114" y="582" on="1"/>
        <pt x="114" y="654" on="0"/>
        <pt x="165" y="708" on="0"/>
        <pt x="222" y="708" on="1"/>
        <pt x="252" y="708" on="1"/>
        <pt x="252" y="686" on="1"/>
        <pt x="220" y="686" on="1"/>
        <pt x="174" y="686" on="0"/>
        <pt x="140" y="635" on="0"/>
        <pt x="140" y="578" on="1"/>
        <pt x="140" y="531" on="0"/>
        <pt x="143" y="486" on="1"/>
        <pt x="143" y="471" on="0"/>
        <pt x="146" y="408" on="0"/>
        <pt x="146" y="382" on="1"/>
        <pt x="146" y="337" on="0"/>
        <pt x="125" y="289" on="0"/>
        <pt x="98" y="280" on="1"/>
        <pt x="98" y="276" on="1"/>
        <pt x="125" y="267" on="0"/>
        <pt x="146" y="218" on="0"/>
        <pt x="146" y="174" on="1"/>
        <pt x="146" y="148" on="0"/>
        <pt x="143" y="85" on="0"/>
        <pt x="143" y="70" on="1"/>
        <pt x="140" y="25" on="0"/>
        <pt x="140" y="-22" on="1"/>
        <pt x="140" y="-79" on="0"/>
        <pt x="174" y="-130" on="0"/>
        <pt x="220" y="-130" on="1"/>
        <pt x="252" y="-130" on="1"/>
        <pt x="252" y="-152" on="1"/>
        <pt x="222" y="-152" on="1"/>
      </contour>
    </TTGlyph>
    <TTGlyph name="braceright" xMin="18" yMin="-152" xMax="234" yMax="708">
      <contour>
        <pt x="18" y="-130" on="1"/>
        <pt x="50" y="-130" on="1"/>
        <pt x="96" y="-130" on="0"/>
        <pt x="130" y="-79" on="0"/>
        <pt x="130" y="-22" on="1"/>
        <pt x="130" y="25" on="0"/>
        <pt x="127" y="70" on="1"/>
        <pt x="127" y="85" on="0"/>
        <pt x="124" y="148" on="0"/>
        <pt x="124" y="174" on="1"/>
        <pt x="124" y="218" on="0"/>
        <pt x="145" y="267" on="0"/>
        <pt x="172" y="276" on="1"/>
        <pt x="172" y="280" on="1"/>
        <pt x="145" y="289" on="0"/>
        <pt x="124" y="337" on="0"/>
        <pt x="124" y="382" on="1"/>
        <pt x="124" y="408" on="0"/>
        <pt x="127" y="471" on="0"/>
        <pt x="127" y="486" on="1"/>
        <pt x="130" y="531" on="0"/>
        <pt x="130" y="578" on="1"/>
        <pt x="130" y="635" on="0"/>
        <pt x="96" y="686" on="0"/>
        <pt x="50" y="686" on="1"/>
        <pt x="18" y="686" on="1"/>
        <pt x="18" y="708" on="1"/>
        <pt x="48" y="708" on="1"/>
        <pt x="105" y="708" on="0"/>
        <pt x="156" y="654" on="0"/>
        <pt x="156" y="582" on="1"/>
        <pt x="156" y="545" on="0"/>
        <pt x="152" y="475" on="1"/>
        <pt x="148" y="405" on="0"/>
        <pt x="148" y="370" on="1"/>
        <pt x="148" y="290" on="0"/>
        <pt x="234" y="290" on="1"/>
        <pt x="234" y="266" on="1"/>
        <pt x="148" y="266" on="0"/>
        <pt x="148" y="184" on="1"/>
        <pt x="148" y="150" on="0"/>
        <pt x="152" y="82" on="1"/>
        <pt x="156" y="12" on="0"/>
        <pt x="156" y="-26" on="1"/>
        <pt x="156" y="-98" on="0"/>
        <pt x="105" y="-152" on="0"/>
        <pt x="48" y="-152" on="1"/>
        <pt x="18" y="-152" on="1"/>
      </contour>
    </TTGlyph>
    <TTGlyph name="braceright.lat" xMin="18" yMin="-152" xMax="234" yMax="708">
      <contour>
        <pt x="18" y="-130" on="1"/>
        <pt x="50" y="-130" on="1"/>
        <pt x="96" y="-130" on="0"/>
        <pt x="130" y="-79" on="0"/>
        <pt x="130" y="-22" on="1"/>
        <pt x="130" y="25" on="0"/>
        <pt x="127" y="70" on="1"/>
        <pt x="127" y="85" on="0"/>
        <pt x="124" y="148" on="0"/>
        <pt x="124" y="174" on="1"/>
        <pt x="124" y="218" on="0"/>
        <pt x="145" y="267" on="0"/>
        <pt x="172" y="276" on="1"/>
        <pt x="172" y="280" on="1"/>
        <pt x="145" y="289" on="0"/>
        <pt x="124" y="337" on="0"/>
        <pt x="124" y="382" on="1"/>
        <pt x="124" y="408" on="0"/>
        <pt x="127" y="471" on="0"/>
        <pt x="127" y="486" on="1"/>
        <pt x="130" y="531" on="0"/>
        <pt x="130" y="578" on="1"/>
        <pt x="130" y="635" on="0"/>
        <pt x="96" y="686" on="0"/>
        <pt x="50" y="686" on="1"/>
        <pt x="18" y="686" on="1"/>
        <pt x="18" y="708" on="1"/>
        <pt x="48" y="708" on="1"/>
        <pt x="105" y="708" on="0"/>
        <pt x="156" y="654" on="0"/>
        <pt x="156" y="582" on="1"/>
        <pt x="156" y="545" on="0"/>
        <pt x="152" y="475" on="1"/>
        <pt x="148" y="405" on="0"/>
        <pt x="148" y="370" on="1"/>
        <pt x="148" y="290" on="0"/>
        <pt x="234" y="290" on="1"/>
        <pt x="234" y="266" on="1"/>
        <pt x="148" y="266" on="0"/>
        <pt x="148" y="184" on="1"/>
        <pt x="148" y="150" on="0"/>
        <pt x="152" y="82" on="1"/>
        <pt x="156" y="12" on="0"/>
        <pt x="156" y="-26" on="1"/>
        <pt x="156" y="-98" on="0"/>
        <pt x="105" y="-152" on="0"/>
        <pt x="48" y="-152" on="1"/>
        <pt x="18" y="-152" on="1"/>
      </contour>
    </TTGlyph>
    <TTGlyph name="bracketleft" xMin="100" yMin="-152" xMax="252" yMax="708">
      <contour>
        <pt x="100" y="708" on="1"/>
        <pt x="252" y="708" on="1"/>
        <pt x="252" y="686" on="1"/>
        <pt x="124" y="686" on="1"/>
        <pt x="124" y="-130" on="1"/>
        <pt x="252" y="-130" on="1"/>
        <pt x="252" y="-152" on="1"/>
        <pt x="100" y="-152" on="1"/>
      </contour>
    </TTGlyph>
    <TTGlyph name="bracketleft.lat" xMin="100" yMin="-152" xMax="252" yMax="708">
      <contour>
        <pt x="100" y="708" on="1"/>
        <pt x="252" y="708" on="1"/>
        <pt x="252" y="686" on="1"/>
        <pt x="124" y="686" on="1"/>
        <pt x="124" y="-130" on="1"/>
        <pt x="252" y="-130" on="1"/>
        <pt x="252" y="-152" on="1"/>
        <pt x="100" y="-152" on="1"/>
      </contour>
    </TTGlyph>
    <TTGlyph name="bracketright" xMin="18" yMin="-152" xMax="170" yMax="708">
      <contour>
        <pt x="18" y="-130" on="1"/>
        <pt x="146" y="-130" on="1"/>
        <pt x="146" y="686" on="1"/>
        <pt x="18" y="686" on="1"/>
        <pt x="18" y="708" on="1"/>
        <pt x="170" y="708" on="1"/>
        <pt x="170" y="-152" on="1"/>
        <pt x="18" y="-152" on="1"/>
      </contour>
    </TTGlyph>
    <TTGlyph name="bracketright.lat" xMin="18" yMin="-152" xMax="170" yMax="708">
      <contour>
        <pt x="18" y="-130" on="1"/>
        <pt x="146" y="-130" on="1"/>
        <pt x="146" y="686" on="1"/>
        <pt x="18" y="686" on="1"/>
        <pt x="18" y="708" on="1"/>
        <pt x="170" y="708" on="1"/>
        <pt x="170" y="-152" on="1"/>
        <pt x="18" y="-152" on="1"/>
      </contour>
    </TTGlyph>
    <TTGlyph name="breve" xMin="120" yMin="570" xMax="412" yMax="720">
      <component glyphName="uni0306" x="266" y="0" flags="0x0"/>
    </TTGlyph>
    <TTGlyph name="brokenbar" xMin="96" yMin="-250" xMax="124" yMax="750">
      <contour>
        <pt x="96" y="750" on="1"/>
        <pt x="124" y="750" on="1"/>
        <pt x="124" y="274" on="1"/>
        <pt x="96" y="274" on="1"/>
      </contour>
      <contour>
        <pt x="96" y="222" on="1"/>
        <pt x="124" y="222" on="1"/>
        <pt x="124" y="-250" on="1"/>
        <pt x="96" y="-250" on="1"/>
      </contour>
    </TTGlyph>
    <TTGlyph name="bullet" xMin="40" yMin="158" xMax="232" yMax="370">
      <contour>
        <pt x="98" y="158" on="0"/>
        <pt x="40" y="217" on="0"/>
        <pt x="40" y="264" on="1"/>
        <pt x="40" y="311" on="0"/>
        <pt x="98" y="370" on="0"/>
        <pt x="136" y="370" on="1"/>
        <pt x="174" y="370" on="0"/>
        <pt x="232" y="311" on="0"/>
        <pt x="232" y="264" on="1"/>
        <pt x="232" y="217" on="0"/>
        <pt x="174" y="158" on="0"/>
        <pt x="136" y="158" on="1"/>
      </contour>
    </TTGlyph>
    <TTGlyph name="bullet.lat" xMin="40" yMin="158" xMax="232" yMax="370">
      <contour>
        <pt x="98" y="158" on="0"/>
        <pt x="40" y="217" on="0"/>
        <pt x="40" y="264" on="1"/>
        <pt x="40" y="311" on="0"/>
        <pt x="98" y="370" on="0"/>
        <pt x="136" y="370" on="1"/>
        <pt x="174" y="370" on="0"/>
        <pt x="232" y="311" on="0"/>
        <pt x="232" y="264" on="1"/>
        <pt x="232" y="217" on="0"/>
        <pt x="174" y="158" on="0"/>
        <pt x="136" y="158" on="1"/>
      </contour>
    </TTGlyph>
    <TTGlyph name="c" xMin="54" yMin="-12" xMax="420" yMax="490">
      <contour>
        <pt x="207" y="-12" on="0"/>
        <pt x="109" y="48" on="0"/>
        <pt x="54" y="161" on="0"/>
        <pt x="54" y="238" on="1"/>
        <pt x="54" y="315" on="0"/>
        <pt x="112" y="430" on="0"/>
        <pt x="210" y="490" on="0"/>
        <pt x="268" y="490" on="1"/>
        <pt x="313" y="490" on="0"/>
        <pt x="379" y="457" on="0"/>
        <pt x="408" y="430" on="1"/>
        <pt x="388" y="408" on="1"/>
        <pt x="330" y="462" on="0"/>
        <pt x="268" y="462" on="1"/>
        <pt x="217" y="462" on="0"/>
        <pt x="134" y="405" on="0"/>
        <pt x="86" y="303" on="0"/>
        <pt x="86" y="238" on="1"/>
        <pt x="86" y="173" on="0"/>
        <pt x="131" y="72" on="0"/>
        <pt x="214" y="16" on="0"/>
        <pt x="268" y="16" on="1"/>
        <pt x="340" y="16" on="0"/>
        <pt x="402" y="74" on="1"/>
        <pt x="420" y="52" on="1"/>
        <pt x="349" y="-12" on="0"/>
        <pt x="268" y="-12" on="1"/>
      </contour>
    </TTGlyph>
    <TTGlyph name="caron" xMin="134" yMin="572" xMax="398" yMax="734">
      <component glyphName="uni030C" x="266" y="0" flags="0x0"/>
    </TTGlyph>
    <TTGlyph name="ccaron" xMin="54" yMin="-12" xMax="420" yMax="734">
      <component glyphName="c" x="0" y="0" flags="0x0"/>
      <component glyphName="uni030C" x="268" y="0" flags="0x0"/>
    </TTGlyph>
    <TTGlyph name="ccedilla" xMin="54" yMin="-216" xMax="420" yMax="490">
      <contour>
        <pt x="294" y="-74" on="0"/>
        <pt x="330" y="-106" on="0"/>
        <pt x="330" y="-134" on="1"/>
        <pt x="330" y="-207" on="0"/>
        <pt x="192" y="-216" on="1"/>
        <pt x="186" y="-190" on="1"/>
        <pt x="249" y="-186" on="0"/>
        <pt x="300" y="-160" on="0"/>
        <pt x="300" y="-136" on="1"/>
        <pt x="300" y="-114" on="0"/>
        <pt x="263" y="-90" on="0"/>
        <pt x="222" y="-84" on="1"/>
        <pt x="256" y="-12" on="1"/>
        <pt x="198" y="-9" on="0"/>
        <pt x="106" y="52" on="0"/>
        <pt x="54" y="163" on="0"/>
        <pt x="54" y="238" on="1"/>
        <pt x="54" y="315" on="0"/>
        <pt x="112" y="430" on="0"/>
        <pt x="210" y="490" on="0"/>
        <pt x="268" y="490" on="1"/>
        <pt x="313" y="490" on="0"/>
        <pt x="379" y="457" on="0"/>
        <pt x="408" y="430" on="1"/>
        <pt x="388" y="408" on="1"/>
        <pt x="330" y="462" on="0"/>
        <pt x="268" y="462" on="1"/>
        <pt x="217" y="462" on="0"/>
        <pt x="134" y="405" on="0"/>
        <pt x="86" y="303" on="0"/>
        <pt x="86" y="238" on="1"/>
        <pt x="86" y="173" on="0"/>
        <pt x="131" y="72" on="0"/>
        <pt x="214" y="16" on="0"/>
        <pt x="268" y="16" on="1"/>
        <pt x="340" y="16" on="0"/>
        <pt x="402" y="74" on="1"/>
        <pt x="420" y="52" on="1"/>
        <pt x="357" y="-6" on="0"/>
        <pt x="284" y="-11" on="1"/>
        <pt x="260" y="-66" on="1"/>
      </contour>
    </TTGlyph>
    <TTGlyph name="cedilla" xMin="186" yMin="-216" xMax="330" yMax="2">
      <component glyphName="uni0327" x="266" y="0" flags="0x0"/>
    </TTGlyph>
    <TTGlyph name="cent" xMin="62" yMin="-26" xMax="428" yMax="652">
      <contour>
        <pt x="358" y="85" on="0"/>
        <pt x="280" y="84" on="1"/>
        <pt x="280" y="-26" on="1"/>
        <pt x="252" y="-26" on="1"/>
        <pt x="252" y="85" on="1"/>
        <pt x="167" y="93" on="0"/>
        <pt x="62" y="213" on="0"/>
        <pt x="62" y="312" on="1"/>
        <pt x="62" y="379" on="0"/>
        <pt x="113" y="477" on="0"/>
        <pt x="199" y="533" on="0"/>
        <pt x="252" y="539" on="1"/>
        <pt x="252" y="652" on="1"/>
        <pt x="280" y="652" on="1"/>
        <pt x="280" y="540" on="1"/>
        <pt x="323" y="539" on="0"/>
        <pt x="387" y="507" on="0"/>
        <pt x="416" y="480" on="1"/>
        <pt x="398" y="460" on="1"/>
        <pt x="344" y="511" on="0"/>
        <pt x="280" y="512" on="1"/>
        <pt x="280" y="112" on="1"/>
        <pt x="350" y="113" on="0"/>
        <pt x="410" y="168" on="1"/>
        <pt x="428" y="148" on="1"/>
      </contour>
      <contour>
        <pt x="94" y="229" on="0"/>
        <pt x="180" y="121" on="0"/>
        <pt x="252" y="113" on="1"/>
        <pt x="252" y="510" on="1"/>
        <pt x="183" y="502" on="0"/>
        <pt x="94" y="393" on="0"/>
        <pt x="94" y="312" on="1"/>
      </contour>
    </TTGlyph>
    <TTGlyph name="cent.lat" xMin="62" yMin="-26" xMax="428" yMax="652">
      <contour>
        <pt x="358" y="85" on="0"/>
        <pt x="280" y="84" on="1"/>
        <pt x="280" y="-26" on="1"/>
        <pt x="252" y="-26" on="1"/>
        <pt x="252" y="85" on="1"/>
        <pt x="167" y="93" on="0"/>
        <pt x="62" y="213" on="0"/>
        <pt x="62" y="312" on="1"/>
        <pt x="62" y="379" on="0"/>
        <pt x="113" y="477" on="0"/>
        <pt x="199" y="533" on="0"/>
        <pt x="252" y="539" on="1"/>
        <pt x="252" y="652" on="1"/>
        <pt x="280" y="652" on="1"/>
        <pt x="280" y="540" on="1"/>
        <pt x="323" y="539" on="0"/>
        <pt x="387" y="507" on="0"/>
        <pt x="416" y="480" on="1"/>
        <pt x="398" y="460" on="1"/>
        <pt x="344" y="511" on="0"/>
        <pt x="280" y="512" on="1"/>
        <pt x="280" y="112" on="1"/>
        <pt x="350" y="113" on="0"/>
        <pt x="410" y="168" on="1"/>
        <pt x="428" y="148" on="1"/>
      </contour>
      <contour>
        <pt x="94" y="229" on="0"/>
        <pt x="180" y="121" on="0"/>
        <pt x="252" y="113" on="1"/>
        <pt x="252" y="510" on="1"/>
        <pt x="183" y="502" on="0"/>
        <pt x="94" y="393" on="0"/>
        <pt x="94" y="312" on="1"/>
      </contour>
    </TTGlyph>
    <TTGlyph name="chi" xMin="10" yMin="-192" xMax="446" yMax="490">
      <contour>
        <pt x="10" y="-180" on="1"/>
        <pt x="206" y="162" on="1"/>
        <pt x="16" y="478" on="1"/>
        <pt x="46" y="490" on="1"/>
        <pt x="220" y="192" on="1"/>
        <pt x="224" y="192" on="1"/>
        <pt x="378" y="478" on="1"/>
        <pt x="412" y="478" on="1"/>
        <pt x="238" y="162" on="1"/>
        <pt x="446" y="-180" on="1"/>
        <pt x="418" y="-192" on="1"/>
        <pt x="224" y="134" on="1"/>
        <pt x="220" y="134" on="1"/>
        <pt x="38" y="-192" on="1"/>
      </contour>
    </TTGlyph>
    <TTGlyph name="circledotted" xMin="54" yMin="-12" xMax="538" yMax="490">
      <contour>
        <pt x="283" y="426" on="0"/>
        <pt x="266" y="443" on="0"/>
        <pt x="266" y="458" on="1"/>
        <pt x="266" y="473" on="0"/>
        <pt x="283" y="490" on="0"/>
        <pt x="295" y="490" on="1"/>
        <pt x="309" y="490" on="0"/>
        <pt x="326" y="473" on="0"/>
        <pt x="326" y="458" on="1"/>
        <pt x="326" y="443" on="0"/>
        <pt x="309" y="426" on="0"/>
        <pt x="295" y="426" on="1"/>
      </contour>
      <contour>
        <pt x="177" y="400" on="0"/>
        <pt x="160" y="417" on="0"/>
        <pt x="160" y="431" on="1"/>
        <pt x="160" y="447" on="0"/>
        <pt x="176" y="463" on="0"/>
        <pt x="189" y="463" on="1"/>
        <pt x="202" y="463" on="0"/>
        <pt x="219" y="447" on="0"/>
        <pt x="219" y="431" on="1"/>
        <pt x="219" y="417" on="0"/>
        <pt x="203" y="400" on="0"/>
        <pt x="189" y="400" on="1"/>
      </contour>
      <contour>
        <pt x="389" y="399" on="0"/>
        <pt x="373" y="417" on="0"/>
        <pt x="373" y="431" on="1"/>
        <pt x="373" y="446" on="0"/>
        <pt x="389" y="462" on="0"/>
        <pt x="401" y="462" on="1"/>
        <pt x="414" y="462" on="0"/>
        <pt x="431" y="446" on="0"/>
        <pt x="431" y="431" on="1"/>
        <pt x="431" y="417" on="0"/>
        <pt x="415" y="399" on="0"/>
        <pt x="401" y="399" on="1"/>
      </contour>
      <contour>
        <pt x="98" y="318" on="0"/>
        <pt x="81" y="336" on="0"/>
        <pt x="81" y="351" on="1"/>
        <pt x="81" y="366" on="0"/>
        <pt x="98" y="382" on="0"/>
        <pt x="110" y="382" on="1"/>
        <pt x="124" y="382" on="0"/>
        <pt x="141" y="366" on="0"/>
        <pt x="141" y="351" on="1"/>
        <pt x="141" y="335" on="0"/>
        <pt x="124" y="318" on="0"/>
        <pt x="110" y="318" on="1"/>
      </contour>
      <contour>
        <pt x="468" y="317" on="0"/>
        <pt x="451" y="335" on="0"/>
        <pt x="451" y="349" on="1"/>
        <pt x="451" y="363" on="0"/>
        <pt x="468" y="380" on="0"/>
        <pt x="480" y="380" on="1"/>
        <pt x="493" y="380" on="0"/>
        <pt x="510" y="364" on="0"/>
        <pt x="510" y="349" on="1"/>
        <pt x="510" y="334" on="0"/>
        <pt x="494" y="317" on="0"/>
        <pt x="480" y="317" on="1"/>
      </contour>
      <contour>
        <pt x="70" y="207" on="0"/>
        <pt x="54" y="224" on="0"/>
        <pt x="54" y="239" on="1"/>
        <pt x="54" y="254" on="0"/>
        <pt x="70" y="270" on="0"/>
        <pt x="82" y="270" on="1"/>
        <pt x="97" y="270" on="0"/>
        <pt x="114" y="254" on="0"/>
        <pt x="114" y="239" on="1"/>
        <pt x="114" y="224" on="0"/>
        <pt x="96" y="207" on="0"/>
        <pt x="82" y="207" on="1"/>
      </contour>
      <contour>
        <pt x="495" y="207" on="0"/>
        <pt x="478" y="224" on="0"/>
        <pt x="478" y="239" on="1"/>
        <pt x="478" y="254" on="0"/>
        <pt x="495" y="270" on="0"/>
        <pt x="508" y="270" on="1"/>
        <pt x="520" y="270" on="0"/>
        <pt x="538" y="254" on="0"/>
        <pt x="538" y="239" on="1"/>
        <pt x="538" y="224" on="0"/>
        <pt x="522" y="207" on="0"/>
        <pt x="508" y="207" on="1"/>
      </contour>
      <contour>
        <pt x="98" y="97" on="0"/>
        <pt x="81" y="115" on="0"/>
        <pt x="81" y="129" on="1"/>
        <pt x="81" y="144" on="0"/>
        <pt x="97" y="161" on="0"/>
        <pt x="110" y="161" on="1"/>
        <pt x="124" y="161" on="0"/>
        <pt x="141" y="144" on="0"/>
        <pt x="141" y="129" on="1"/>
        <pt x="141" y="115" on="0"/>
        <pt x="124" y="97" on="0"/>
        <pt x="110" y="97" on="1"/>
      </contour>
      <contour>
        <pt x="468" y="97" on="0"/>
        <pt x="451" y="115" on="0"/>
        <pt x="451" y="129" on="1"/>
        <pt x="451" y="144" on="0"/>
        <pt x="468" y="161" on="0"/>
        <pt x="480" y="161" on="1"/>
        <pt x="493" y="161" on="0"/>
        <pt x="510" y="144" on="0"/>
        <pt x="510" y="129" on="1"/>
        <pt x="510" y="115" on="0"/>
        <pt x="494" y="97" on="0"/>
        <pt x="480" y="97" on="1"/>
      </contour>
      <contour>
        <pt x="176" y="15" on="0"/>
        <pt x="160" y="33" on="0"/>
        <pt x="160" y="49" on="1"/>
        <pt x="160" y="63" on="0"/>
        <pt x="176" y="78" on="0"/>
        <pt x="189" y="78" on="1"/>
        <pt x="202" y="78" on="0"/>
        <pt x="219" y="63" on="0"/>
        <pt x="219" y="49" on="1"/>
        <pt x="219" y="33" on="0"/>
        <pt x="203" y="15" on="0"/>
        <pt x="189" y="15" on="1"/>
      </contour>
      <contour>
        <pt x="389" y="15" on="0"/>
        <pt x="373" y="33" on="0"/>
        <pt x="373" y="49" on="1"/>
        <pt x="373" y="63" on="0"/>
        <pt x="389" y="78" on="0"/>
        <pt x="401" y="78" on="1"/>
        <pt x="414" y="78" on="0"/>
        <pt x="431" y="63" on="0"/>
        <pt x="431" y="49" on="1"/>
        <pt x="431" y="33" on="0"/>
        <pt x="415" y="15" on="0"/>
        <pt x="401" y="15" on="1"/>
      </contour>
      <contour>
        <pt x="282" y="-12" on="0"/>
        <pt x="266" y="5" on="0"/>
        <pt x="266" y="20" on="1"/>
        <pt x="266" y="35" on="0"/>
        <pt x="283" y="51" on="0"/>
        <pt x="295" y="51" on="1"/>
        <pt x="309" y="51" on="0"/>
        <pt x="326" y="35" on="0"/>
        <pt x="326" y="20" on="1"/>
        <pt x="326" y="5" on="0"/>
        <pt x="309" y="-12" on="0"/>
        <pt x="295" y="-12" on="1"/>
      </contour>
    </TTGlyph>
    <TTGlyph name="circumflex" xMin="134" yMin="574" xMax="398" yMax="736">
      <component glyphName="uni0302" x="266" y="0" flags="0x0"/>
    </TTGlyph>
    <TTGlyph name="colon" xMin="68" yMin="-12" xMax="140" yMax="456">
      <component glyphName="period" x="0" y="390" flags="0x4"/>
      <component glyphName="period" x="0" y="0" flags="0x0"/>
    </TTGlyph>
    <TTGlyph name="comma" xMin="48" yMin="-150" xMax="152" yMax="66">
      <contour>
        <pt x="128" y="66" on="0"/>
        <pt x="152" y="32" on="0"/>
        <pt x="152" y="4" on="1"/>
        <pt x="152" y="-45" on="0"/>
        <pt x="101" y="-125" on="0"/>
        <pt x="60" y="-150" on="1"/>
        <pt x="48" y="-126" on="1"/>
        <pt x="80" y="-107" on="0"/>
        <pt x="119" y="-45" on="0"/>
        <pt x="120" y="-5" on="1"/>
        <pt x="116" y="-6" on="0"/>
        <pt x="108" y="-6" on="1"/>
        <pt x="92" y="-6" on="0"/>
        <pt x="72" y="13" on="0"/>
        <pt x="72" y="30" on="1"/>
        <pt x="72" y="47" on="0"/>
        <pt x="93" y="66" on="0"/>
        <pt x="108" y="66" on="1"/>
      </contour>
    </TTGlyph>
    <TTGlyph name="copyright" xMin="52" yMin="-12" xMax="688" yMax="652">
      <contour>
        <pt x="284" y="-12" on="0"/>
        <pt x="138" y="72" on="0"/>
        <pt x="52" y="224" on="0"/>
        <pt x="52" y="322" on="1"/>
        <pt x="52" y="419" on="0"/>
        <pt x="138" y="570" on="0"/>
        <pt x="284" y="652" on="0"/>
        <pt x="370" y="652" on="1"/>
        <pt x="456" y="652" on="0"/>
        <pt x="602" y="570" on="0"/>
        <pt x="688" y="419" on="0"/>
        <pt x="688" y="322" on="1"/>
        <pt x="688" y="224" on="0"/>
        <pt x="602" y="72" on="0"/>
        <pt x="456" y="-12" on="0"/>
        <pt x="370" y="-12" on="1"/>
      </contour>
      <contour>
        <pt x="447" y="14" on="0"/>
        <pt x="579" y="92" on="0"/>
        <pt x="658" y="233" on="0"/>
        <pt x="658" y="322" on="1"/>
        <pt x="658" y="410" on="0"/>
        <pt x="579" y="549" on="0"/>
        <pt x="447" y="626" on="0"/>
        <pt x="370" y="626" on="1"/>
        <pt x="293" y="626" on="0"/>
        <pt x="161" y="549" on="0"/>
        <pt x="82" y="410" on="0"/>
        <pt x="82" y="322" on="1"/>
        <pt x="82" y="233" on="0"/>
        <pt x="161" y="92" on="0"/>
        <pt x="293" y="14" on="0"/>
        <pt x="370" y="14" on="1"/>
      </contour>
      <contour>
        <pt x="327" y="124" on="0"/>
        <pt x="249" y="171" on="0"/>
        <pt x="202" y="261" on="0"/>
        <pt x="202" y="322" on="1"/>
        <pt x="202" y="378" on="0"/>
        <pt x="251" y="463" on="0"/>
        <pt x="332" y="508" on="0"/>
        <pt x="380" y="508" on="1"/>
        <pt x="417" y="508" on="0"/>
        <pt x="472" y="481" on="0"/>
        <pt x="498" y="454" on="1"/>
        <pt x="480" y="432" on="1"/>
        <pt x="455" y="456" on="0"/>
        <pt x="408" y="478" on="0"/>
        <pt x="378" y="478" on="1"/>
        <pt x="316" y="478" on="0"/>
        <pt x="236" y="392" on="0"/>
        <pt x="236" y="322" on="1"/>
        <pt x="236" y="245" on="0"/>
        <pt x="313" y="154" on="0"/>
        <pt x="376" y="154" on="1"/>
        <pt x="439" y="154" on="0"/>
        <pt x="496" y="206" on="1"/>
        <pt x="512" y="184" on="1"/>
        <pt x="480" y="154" on="0"/>
        <pt x="419" y="124" on="0"/>
        <pt x="374" y="124" on="1"/>
      </contour>
    </TTGlyph>
    <TTGlyph name="copyright.lat" xMin="52" yMin="-12" xMax="688" yMax="652">
      <contour>
        <pt x="284" y="-12" on="0"/>
        <pt x="138" y="72" on="0"/>
        <pt x="52" y="224" on="0"/>
        <pt x="52" y="322" on="1"/>
        <pt x="52" y="419" on="0"/>
        <pt x="138" y="570" on="0"/>
        <pt x="284" y="652" on="0"/>
        <pt x="370" y="652" on="1"/>
        <pt x="456" y="652" on="0"/>
        <pt x="602" y="570" on="0"/>
        <pt x="688" y="419" on="0"/>
        <pt x="688" y="322" on="1"/>
        <pt x="688" y="224" on="0"/>
        <pt x="602" y="72" on="0"/>
        <pt x="456" y="-12" on="0"/>
        <pt x="370" y="-12" on="1"/>
      </contour>
      <contour>
        <pt x="447" y="14" on="0"/>
        <pt x="579" y="92" on="0"/>
        <pt x="658" y="233" on="0"/>
        <pt x="658" y="322" on="1"/>
        <pt x="658" y="410" on="0"/>
        <pt x="579" y="549" on="0"/>
        <pt x="447" y="626" on="0"/>
        <pt x="370" y="626" on="1"/>
        <pt x="293" y="626" on="0"/>
        <pt x="161" y="549" on="0"/>
        <pt x="82" y="410" on="0"/>
        <pt x="82" y="322" on="1"/>
        <pt x="82" y="233" on="0"/>
        <pt x="161" y="92" on="0"/>
        <pt x="293" y="14" on="0"/>
        <pt x="370" y="14" on="1"/>
      </contour>
      <contour>
        <pt x="327" y="124" on="0"/>
        <pt x="249" y="171" on="0"/>
        <pt x="202" y="261" on="0"/>
        <pt x="202" y="322" on="1"/>
        <pt x="202" y="378" on="0"/>
        <pt x="251" y="463" on="0"/>
        <pt x="332" y="508" on="0"/>
        <pt x="380" y="508" on="1"/>
        <pt x="417" y="508" on="0"/>
        <pt x="472" y="481" on="0"/>
        <pt x="498" y="454" on="1"/>
        <pt x="480" y="432" on="1"/>
        <pt x="455" y="456" on="0"/>
        <pt x="408" y="478" on="0"/>
        <pt x="378" y="478" on="1"/>
        <pt x="316" y="478" on="0"/>
        <pt x="236" y="392" on="0"/>
        <pt x="236" y="322" on="1"/>
        <pt x="236" y="245" on="0"/>
        <pt x="313" y="154" on="0"/>
        <pt x="376" y="154" on="1"/>
        <pt x="439" y="154" on="0"/>
        <pt x="496" y="206" on="1"/>
        <pt x="512" y="184" on="1"/>
        <pt x="480" y="154" on="0"/>
        <pt x="419" y="124" on="0"/>
        <pt x="374" y="124" on="1"/>
      </contour>
    </TTGlyph>
    <TTGlyph name="currency" xMin="32" yMin="118" xMax="440" yMax="542">
      <contour>
        <pt x="32" y="140" on="1"/>
        <pt x="98" y="208" on="1"/>
        <pt x="60" y="259" on="0"/>
        <pt x="60" y="328" on="1"/>
        <pt x="60" y="400" on="0"/>
        <pt x="98" y="451" on="1"/>
        <pt x="32" y="520" on="1"/>
        <pt x="52" y="542" on="1"/>
        <pt x="118" y="473" on="1"/>
        <pt x="141" y="496" on="0"/>
        <pt x="202" y="520" on="0"/>
        <pt x="236" y="520" on="1"/>
        <pt x="269" y="520" on="0"/>
        <pt x="330" y="496" on="0"/>
        <pt x="354" y="473" on="1"/>
        <pt x="420" y="542" on="1"/>
        <pt x="440" y="520" on="1"/>
        <pt x="373" y="451" on="1"/>
        <pt x="412" y="399" on="0"/>
        <pt x="412" y="328" on="1"/>
        <pt x="412" y="261" on="0"/>
        <pt x="374" y="208" on="1"/>
        <pt x="440" y="140" on="1"/>
        <pt x="420" y="118" on="1"/>
        <pt x="354" y="186" on="1"/>
        <pt x="331" y="163" on="0"/>
        <pt x="269" y="138" on="0"/>
        <pt x="236" y="138" on="1"/>
        <pt x="202" y="138" on="0"/>
        <pt x="141" y="163" on="0"/>
        <pt x="117" y="186" on="1"/>
        <pt x="52" y="118" on="1"/>
      </contour>
      <contour>
        <pt x="275" y="166" on="0"/>
        <pt x="341" y="207" on="0"/>
        <pt x="380" y="281" on="0"/>
        <pt x="380" y="328" on="1"/>
        <pt x="380" y="375" on="0"/>
        <pt x="341" y="450" on="0"/>
        <pt x="275" y="492" on="0"/>
        <pt x="236" y="492" on="1"/>
        <pt x="197" y="492" on="0"/>
        <pt x="131" y="450" on="0"/>
        <pt x="92" y="375" on="0"/>
        <pt x="92" y="328" on="1"/>
        <pt x="92" y="281" on="0"/>
        <pt x="131" y="207" on="0"/>
        <pt x="197" y="166" on="0"/>
        <pt x="236" y="166" on="1"/>
      </contour>
    </TTGlyph>
    <TTGlyph name="d" xMin="54" yMin="-12" xMax="444" yMax="722">
      <contour>
        <pt x="160" y="-12" on="0"/>
        <pt x="54" y="118" on="0"/>
        <pt x="54" y="238" on="1"/>
        <pt x="54" y="313" on="0"/>
        <pt x="112" y="428" on="0"/>
        <pt x="210" y="490" on="0"/>
        <pt x="268" y="490" on="1"/>
        <pt x="309" y="490" on="0"/>
        <pt x="375" y="461" on="0"/>
        <pt x="416" y="430" on="1"/>
        <pt x="414" y="520" on="1"/>
        <pt x="414" y="722" on="1"/>
        <pt x="444" y="722" on="1"/>
        <pt x="444" y="0" on="1"/>
        <pt x="418" y="0" on="1"/>
        <pt x="414" y="64" on="1"/>
        <pt x="412" y="64" on="1"/>
        <pt x="336" y="-12" on="0"/>
        <pt x="252" y="-12" on="1"/>
      </contour>
      <contour>
        <pt x="295" y="16" on="0"/>
        <pt x="372" y="58" on="0"/>
        <pt x="414" y="100" on="1"/>
        <pt x="414" y="396" on="1"/>
        <pt x="374" y="431" on="0"/>
        <pt x="304" y="462" on="0"/>
        <pt x="266" y="462" on="1"/>
        <pt x="216" y="462" on="0"/>
        <pt x="133" y="402" on="0"/>
        <pt x="86" y="299" on="0"/>
        <pt x="86" y="238" on="1"/>
        <pt x="86" y="137" on="0"/>
        <pt x="174" y="16" on="0"/>
        <pt x="254" y="16" on="1"/>
      </contour>
    </TTGlyph>
    <TTGlyph name="dagger" xMin="62" yMin="-80" xMax="346" yMax="712">
      <contour>
        <pt x="190" y="534" on="1"/>
        <pt x="62" y="532" on="1"/>
        <pt x="62" y="564" on="1"/>
        <pt x="190" y="562" on="1"/>
        <pt x="188" y="712" on="1"/>
        <pt x="220" y="712" on="1"/>
        <pt x="218" y="562" on="1"/>
        <pt x="346" y="564" on="1"/>
        <pt x="346" y="532" on="1"/>
        <pt x="218" y="534" on="1"/>
        <pt x="220" y="-80" on="1"/>
        <pt x="188" y="-80" on="1"/>
      </contour>
    </TTGlyph>
    <TTGlyph name="dagger.lat" xMin="62" yMin="-80" xMax="346" yMax="712">
      <contour>
        <pt x="190" y="534" on="1"/>
        <pt x="62" y="532" on="1"/>
        <pt x="62" y="564" on="1"/>
        <pt x="190" y="562" on="1"/>
        <pt x="188" y="712" on="1"/>
        <pt x="220" y="712" on="1"/>
        <pt x="218" y="562" on="1"/>
        <pt x="346" y="564" on="1"/>
        <pt x="346" y="532" on="1"/>
        <pt x="218" y="534" on="1"/>
        <pt x="220" y="-80" on="1"/>
        <pt x="188" y="-80" on="1"/>
      </contour>
    </TTGlyph>
    <TTGlyph name="daggerdbl" xMin="62" yMin="-80" xMax="346" yMax="712">
      <contour>
        <pt x="190" y="70" on="1"/>
        <pt x="62" y="68" on="1"/>
        <pt x="62" y="100" on="1"/>
        <pt x="190" y="98" on="1"/>
        <pt x="188" y="316" on="1"/>
        <pt x="190" y="534" on="1"/>
        <pt x="62" y="532" on="1"/>
        <pt x="62" y="564" on="1"/>
        <pt x="190" y="562" on="1"/>
        <pt x="188" y="712" on="1"/>
        <pt x="220" y="712" on="1"/>
        <pt x="218" y="562" on="1"/>
        <pt x="346" y="564" on="1"/>
        <pt x="346" y="532" on="1"/>
        <pt x="218" y="534" on="1"/>
        <pt x="220" y="316" on="1"/>
        <pt x="218" y="98" on="1"/>
        <pt x="346" y="100" on="1"/>
        <pt x="346" y="68" on="1"/>
        <pt x="218" y="70" on="1"/>
        <pt x="220" y="-80" on="1"/>
        <pt x="188" y="-80" on="1"/>
      </contour>
    </TTGlyph>
    <TTGlyph name="daggerdbl.lat" xMin="62" yMin="-80" xMax="346" yMax="712">
      <contour>
        <pt x="190" y="70" on="1"/>
        <pt x="62" y="68" on="1"/>
        <pt x="62" y="100" on="1"/>
        <pt x="190" y="98" on="1"/>
        <pt x="188" y="316" on="1"/>
        <pt x="190" y="534" on="1"/>
        <pt x="62" y="532" on="1"/>
        <pt x="62" y="564" on="1"/>
        <pt x="190" y="562" on="1"/>
        <pt x="188" y="712" on="1"/>
        <pt x="220" y="712" on="1"/>
        <pt x="218" y="562" on="1"/>
        <pt x="346" y="564" on="1"/>
        <pt x="346" y="532" on="1"/>
        <pt x="218" y="534" on="1"/>
        <pt x="220" y="316" on="1"/>
        <pt x="218" y="98" on="1"/>
        <pt x="346" y="100" on="1"/>
        <pt x="346" y="68" on="1"/>
        <pt x="218" y="70" on="1"/>
        <pt x="220" y="-80" on="1"/>
        <pt x="188" y="-80" on="1"/>
      </contour>
    </TTGlyph>
    <TTGlyph name="degree" xMin="42" yMin="454" xMax="262" yMax="684">
      <contour>
        <pt x="108" y="454" on="0"/>
        <pt x="42" y="516" on="0"/>
        <pt x="42" y="568" on="1"/>
        <pt x="42" y="621" on="0"/>
        <pt x="107" y="684" on="0"/>
        <pt x="152" y="684" on="1"/>
        <pt x="197" y="684" on="0"/>
        <pt x="262" y="621" on="0"/>
        <pt x="262" y="568" on="1"/>
        <pt x="262" y="516" on="0"/>
        <pt x="196" y="454" on="0"/>
        <pt x="152" y="454" on="1"/>
      </contour>
      <contour>
        <pt x="188" y="480" on="0"/>
        <pt x="234" y="530" on="0"/>
        <pt x="234" y="568" on="1"/>
        <pt x="234" y="607" on="0"/>
        <pt x="188" y="658" on="0"/>
        <pt x="152" y="658" on="1"/>
        <pt x="116" y="658" on="0"/>
        <pt x="70" y="607" on="0"/>
        <pt x="70" y="568" on="1"/>
        <pt x="70" y="530" on="0"/>
        <pt x="116" y="480" on="0"/>
        <pt x="152" y="480" on="1"/>
      </contour>
    </TTGlyph>
    <TTGlyph name="degree.lat" xMin="42" yMin="454" xMax="262" yMax="684">
      <contour>
        <pt x="108" y="454" on="0"/>
        <pt x="42" y="516" on="0"/>
        <pt x="42" y="568" on="1"/>
        <pt x="42" y="621" on="0"/>
        <pt x="107" y="684" on="0"/>
        <pt x="152" y="684" on="1"/>
        <pt x="197" y="684" on="0"/>
        <pt x="262" y="621" on="0"/>
        <pt x="262" y="568" on="1"/>
        <pt x="262" y="516" on="0"/>
        <pt x="196" y="454" on="0"/>
        <pt x="152" y="454" on="1"/>
      </contour>
      <contour>
        <pt x="188" y="480" on="0"/>
        <pt x="234" y="530" on="0"/>
        <pt x="234" y="568" on="1"/>
        <pt x="234" y="607" on="0"/>
        <pt x="188" y="658" on="0"/>
        <pt x="152" y="658" on="1"/>
        <pt x="116" y="658" on="0"/>
        <pt x="70" y="607" on="0"/>
        <pt x="70" y="568" on="1"/>
        <pt x="70" y="530" on="0"/>
        <pt x="116" y="480" on="0"/>
        <pt x="152" y="480" on="1"/>
      </contour>
    </TTGlyph>
    <TTGlyph name="dieresis" xMin="148" yMin="602" xMax="384" yMax="666">
      <component glyphName="uni0308" x="266" y="0" flags="0x0"/>
    </TTGlyph>
    <TTGlyph name="divide" xMin="34" yMin="114" xMax="438" yMax="544">
      <contour>
        <pt x="222" y="474" on="0"/>
        <pt x="204" y="494" on="0"/>
        <pt x="204" y="510" on="1"/>
        <pt x="204" y="525" on="0"/>
        <pt x="222" y="544" on="0"/>
        <pt x="236" y="544" on="1"/>
        <pt x="250" y="544" on="0"/>
        <pt x="268" y="525" on="0"/>
        <pt x="268" y="510" on="1"/>
        <pt x="268" y="494" on="0"/>
        <pt x="250" y="474" on="0"/>
        <pt x="236" y="474" on="1"/>
      </contour>
      <contour>
        <pt x="34" y="344" on="1"/>
        <pt x="438" y="344" on="1"/>
        <pt x="438" y="316" on="1"/>
        <pt x="34" y="316" on="1"/>
      </contour>
      <contour>
        <pt x="222" y="114" on="0"/>
        <pt x="204" y="134" on="0"/>
        <pt x="204" y="150" on="1"/>
        <pt x="204" y="165" on="0"/>
        <pt x="222" y="184" on="0"/>
        <pt x="236" y="184" on="1"/>
        <pt x="250" y="184" on="0"/>
        <pt x="268" y="165" on="0"/>
        <pt x="268" y="150" on="1"/>
        <pt x="268" y="134" on="0"/>
        <pt x="250" y="114" on="0"/>
        <pt x="236" y="114" on="1"/>
      </contour>
    </TTGlyph>
    <TTGlyph name="dollar" xMin="62" yMin="-110" xMax="412" yMax="750">
      <contour>
        <pt x="412" y="79" on="0"/>
        <pt x="325" y="-7" on="0"/>
        <pt x="258" y="-12" on="1"/>
        <pt x="258" y="-110" on="1"/>
        <pt x="228" y="-110" on="1"/>
        <pt x="228" y="-11" on="1"/>
        <pt x="179" y="-8" on="0"/>
        <pt x="94" y="36" on="0"/>
        <pt x="62" y="66" on="1"/>
        <pt x="80" y="88" on="1"/>
        <pt x="156" y="16" on="0"/>
        <pt x="244" y="16" on="1"/>
        <pt x="309" y="16" on="0"/>
        <pt x="380" y="88" on="0"/>
        <pt x="380" y="146" on="1"/>
        <pt x="380" y="195" on="0"/>
        <pt x="340" y="261" on="0"/>
        <pt x="283" y="300" on="0"/>
        <pt x="233" y="325" on="1"/>
        <pt x="185" y="349" on="0"/>
        <pt x="127" y="388" on="0"/>
        <pt x="88" y="452" on="0"/>
        <pt x="88" y="500" on="1"/>
        <pt x="88" y="562" on="0"/>
        <pt x="167" y="646" on="0"/>
        <pt x="228" y="651" on="1"/>
        <pt x="228" y="750" on="1"/>
        <pt x="258" y="750" on="1"/>
        <pt x="258" y="652" on="1"/>
        <pt x="303" y="649" on="0"/>
        <pt x="364" y="614" on="0"/>
        <pt x="394" y="582" on="1"/>
        <pt x="374" y="562" on="1"/>
        <pt x="341" y="595" on="0"/>
        <pt x="286" y="624" on="0"/>
        <pt x="242" y="624" on="1"/>
        <pt x="189" y="624" on="0"/>
        <pt x="120" y="554" on="0"/>
        <pt x="120" y="502" on="1"/>
        <pt x="120" y="461" on="0"/>
        <pt x="156" y="406" on="0"/>
        <pt x="207" y="372" on="0"/>
        <pt x="253" y="349" on="1"/>
        <pt x="305" y="324" on="0"/>
        <pt x="368" y="281" on="0"/>
        <pt x="412" y="206" on="0"/>
        <pt x="412" y="148" on="1"/>
      </contour>
    </TTGlyph>
    <TTGlyph name="dollar.lat" xMin="62" yMin="-110" xMax="412" yMax="750">
      <contour>
        <pt x="412" y="79" on="0"/>
        <pt x="325" y="-7" on="0"/>
        <pt x="258" y="-12" on="1"/>
        <pt x="258" y="-110" on="1"/>
        <pt x="228" y="-110" on="1"/>
        <pt x="228" y="-11" on="1"/>
        <pt x="179" y="-8" on="0"/>
        <pt x="94" y="36" on="0"/>
        <pt x="62" y="66" on="1"/>
        <pt x="80" y="88" on="1"/>
        <pt x="156" y="16" on="0"/>
        <pt x="244" y="16" on="1"/>
        <pt x="309" y="16" on="0"/>
        <pt x="380" y="88" on="0"/>
        <pt x="380" y="146" on="1"/>
        <pt x="380" y="195" on="0"/>
        <pt x="340" y="261" on="0"/>
        <pt x="283" y="300" on="0"/>
        <pt x="233" y="325" on="1"/>
        <pt x="185" y="349" on="0"/>
        <pt x="127" y="388" on="0"/>
        <pt x="88" y="452" on="0"/>
        <pt x="88" y="500" on="1"/>
        <pt x="88" y="562" on="0"/>
        <pt x="167" y="646" on="0"/>
        <pt x="228" y="651" on="1"/>
        <pt x="228" y="750" on="1"/>
        <pt x="258" y="750" on="1"/>
        <pt x="258" y="652" on="1"/>
        <pt x="303" y="649" on="0"/>
        <pt x="364" y="614" on="0"/>
        <pt x="394" y="582" on="1"/>
        <pt x="374" y="562" on="1"/>
        <pt x="341" y="595" on="0"/>
        <pt x="286" y="624" on="0"/>
        <pt x="242" y="624" on="1"/>
        <pt x="189" y="624" on="0"/>
        <pt x="120" y="554" on="0"/>
        <pt x="120" y="502" on="1"/>
        <pt x="120" y="461" on="0"/>
        <pt x="156" y="406" on="0"/>
        <pt x="207" y="372" on="0"/>
        <pt x="253" y="349" on="1"/>
        <pt x="305" y="324" on="0"/>
        <pt x="368" y="281" on="0"/>
        <pt x="412" y="206" on="0"/>
        <pt x="412" y="148" on="1"/>
      </contour>
    </TTGlyph>
    <TTGlyph name="dotaccent" xMin="234" yMin="600" xMax="298" yMax="670">
      <component glyphName="uni0307" x="266" y="0" flags="0x0"/>
    </TTGlyph>
    <TTGlyph name="dotbelowcomb" xMin="-32" yMin="-190" xMax="32" yMax="-120">
      <contour>
        <pt x="-14" y="-190" on="0"/>
        <pt x="-32" y="-170" on="0"/>
        <pt x="-32" y="-154" on="1"/>
        <pt x="-32" y="-139" on="0"/>
        <pt x="-14" y="-120" on="0"/>
        <pt x="0" y="-120" on="1"/>
        <pt x="14" y="-120" on="0"/>
        <pt x="32" y="-139" on="0"/>
        <pt x="32" y="-154" on="1"/>
        <pt x="32" y="-170" on="0"/>
        <pt x="14" y="-190" on="0"/>
        <pt x="0" y="-190" on="1"/>
      </contour>
    </TTGlyph>
    <TTGlyph name="dotlessi" xMin="96" yMin="0" xMax="126" yMax="478">
      <contour>
        <pt x="96" y="478" on="1"/>
        <pt x="126" y="478" on="1"/>
        <pt x="126" y="0" on="1"/>
        <pt x="96" y="0" on="1"/>
      </contour>
    </TTGlyph>
    <TTGlyph name="dotlessj" xMin="-30" yMin="-234" xMax="126" yMax="478">
      <contour>
        <pt x="14" y="-234" on="0"/>
        <pt x="-19" y="-227" on="0"/>
        <pt x="-30" y="-222" on="1"/>
        <pt x="-22" y="-196" on="1"/>
        <pt x="8" y="-206" on="0"/>
        <pt x="30" y="-206" on="1"/>
        <pt x="69" y="-206" on="0"/>
        <pt x="96" y="-151" on="0"/>
        <pt x="96" y="-98" on="1"/>
        <pt x="96" y="478" on="1"/>
        <pt x="126" y="478" on="1"/>
        <pt x="126" y="-102" on="1"/>
        <pt x="126" y="-170" on="0"/>
        <pt x="78" y="-234" on="0"/>
        <pt x="28" y="-234" on="1"/>
      </contour>
    </TTGlyph>
    <TTGlyph name="e" xMin="54" yMin="-12" xMax="440" yMax="490">
      <contour>
        <pt x="440" y="250" on="0"/>
        <pt x="438" y="238" on="1"/>
        <pt x="86" y="238" on="1"/>
        <pt x="86" y="171" on="0"/>
        <pt x="135" y="70" on="0"/>
        <pt x="221" y="16" on="0"/>
        <pt x="274" y="16" on="1"/>
        <pt x="345" y="16" on="0"/>
        <pt x="406" y="60" on="1"/>
        <pt x="420" y="34" on="1"/>
        <pt x="383" y="12" on="0"/>
        <pt x="320" y="-12" on="0"/>
        <pt x="272" y="-12" on="1"/>
        <pt x="212" y="-12" on="0"/>
        <pt x="112" y="49" on="0"/>
        <pt x="54" y="162" on="0"/>
        <pt x="54" y="238" on="1"/>
        <pt x="54" y="313" on="0"/>
        <pt x="112" y="428" on="0"/>
        <pt x="206" y="490" on="0"/>
        <pt x="260" y="490" on="1"/>
        <pt x="344" y="490" on="0"/>
        <pt x="440" y="375" on="0"/>
        <pt x="440" y="270" on="1"/>
      </contour>
      <contour>
        <pt x="410" y="266" on="1"/>
        <pt x="410" y="362" on="0"/>
        <pt x="330" y="462" on="0"/>
        <pt x="260" y="462" on="1"/>
        <pt x="218" y="462" on="0"/>
        <pt x="143" y="418" on="0"/>
        <pt x="92" y="329" on="0"/>
        <pt x="87" y="266" on="1"/>
      </contour>
    </TTGlyph>
    <TTGlyph name="e.sups" xMin="32" yMin="402" xMax="298" yMax="734">
      <contour>
        <pt x="116" y="402" on="0"/>
        <pt x="32" y="490" on="0"/>
        <pt x="32" y="568" on="1"/>
        <pt x="32" y="618" on="0"/>
        <pt x="70" y="693" on="0"/>
        <pt x="135" y="734" on="0"/>
        <pt x="174" y="734" on="1"/>
        <pt x="242" y="734" on="0"/>
        <pt x="298" y="644" on="0"/>
        <pt x="298" y="594" on="1"/>
        <pt x="298" y="580" on="0"/>
        <pt x="296" y="564" on="1"/>
        <pt x="62" y="564" on="1"/>
        <pt x="62" y="503" on="0"/>
        <pt x="127" y="428" on="0"/>
        <pt x="182" y="428" on="1"/>
        <pt x="231" y="428" on="0"/>
        <pt x="272" y="458" on="1"/>
        <pt x="286" y="436" on="1"/>
        <pt x="260" y="420" on="0"/>
        <pt x="212" y="402" on="0"/>
        <pt x="180" y="402" on="1"/>
      </contour>
      <contour>
        <pt x="270" y="590" on="1"/>
        <pt x="270" y="637" on="0"/>
        <pt x="223" y="708" on="0"/>
        <pt x="174" y="708" on="1"/>
        <pt x="128" y="708" on="0"/>
        <pt x="68" y="644" on="0"/>
        <pt x="62" y="590" on="1"/>
      </contour>
    </TTGlyph>
    <TTGlyph name="eacute" xMin="54" yMin="-12" xMax="440" yMax="744">
      <component glyphName="e" x="0" y="0" flags="0x0"/>
      <component glyphName="acutecomb" x="260" y="0" flags="0x0"/>
    </TTGlyph>
    <TTGlyph name="ebreve" xMin="54" yMin="-12" xMax="440" yMax="720">
      <component glyphName="e" x="0" y="0" flags="0x0"/>
      <component glyphName="uni0306" x="260" y="0" flags="0x0"/>
    </TTGlyph>
    <TTGlyph name="ecircumflex" xMin="54" yMin="-12" xMax="440" yMax="736">
      <component glyphName="e" x="0" y="0" flags="0x0"/>
      <component glyphName="uni0302" x="260" y="0" flags="0x0"/>
    </TTGlyph>
    <TTGlyph name="edieresis" xMin="54" yMin="-12" xMax="440" yMax="666">
      <component glyphName="e" x="0" y="0" flags="0x0"/>
      <component glyphName="uni0308" x="260" y="0" flags="0x0"/>
    </TTGlyph>
    <TTGlyph name="egrave" xMin="54" yMin="-12" xMax="440" yMax="744">
      <component glyphName="e" x="0" y="0" flags="0x0"/>
      <component glyphName="gravecomb" x="260" y="0" flags="0x0"/>
    </TTGlyph>
    <TTGlyph name="eight" xMin="40" yMin="-12" xMax="430" yMax="652">
      <contour>
        <pt x="183" y="-12" on="0"/>
        <pt x="92" y="34" on="0"/>
        <pt x="40" y="115" on="0"/>
        <pt x="40" y="164" on="1"/>
        <pt x="40" y="224" on="0"/>
        <pt x="117" y="320" on="0"/>
        <pt x="170" y="348" on="1"/>
        <pt x="170" y="352" on="1"/>
        <pt x="130" y="378" on="0"/>
        <pt x="78" y="451" on="0"/>
        <pt x="78" y="498" on="1"/>
        <pt x="78" y="542" on="0"/>
        <pt x="121" y="612" on="0"/>
        <pt x="195" y="652" on="0"/>
        <pt x="240" y="652" on="1"/>
        <pt x="319" y="652" on="0"/>
        <pt x="410" y="559" on="0"/>
        <pt x="410" y="486" on="1"/>
        <pt x="410" y="438" on="0"/>
        <pt x="353" y="349" on="0"/>
        <pt x="318" y="320" on="1"/>
        <pt x="318" y="316" on="1"/>
        <pt x="371" y="283" on="0"/>
        <pt x="430" y="212" on="0"/>
        <pt x="430" y="154" on="1"/>
        <pt x="430" y="108" on="0"/>
        <pt x="382" y="32" on="0"/>
        <pt x="296" y="-12" on="0"/>
        <pt x="240" y="-12" on="1"/>
      </contour>
      <contour>
        <pt x="378" y="401" on="0"/>
        <pt x="378" y="486" on="1"/>
        <pt x="378" y="544" on="0"/>
        <pt x="304" y="624" on="0"/>
        <pt x="240" y="624" on="1"/>
        <pt x="183" y="624" on="0"/>
        <pt x="110" y="552" on="0"/>
        <pt x="110" y="498" on="1"/>
        <pt x="110" y="453" on="0"/>
        <pt x="159" y="391" on="0"/>
        <pt x="231" y="352" on="0"/>
        <pt x="288" y="330" on="1"/>
      </contour>
      <contour>
        <pt x="287" y="16" on="0"/>
        <pt x="359" y="53" on="0"/>
        <pt x="398" y="116" on="0"/>
        <pt x="398" y="154" on="1"/>
        <pt x="398" y="202" on="0"/>
        <pt x="343" y="267" on="0"/>
        <pt x="266" y="306" on="0"/>
        <pt x="194" y="334" on="1"/>
        <pt x="72" y="264" on="0"/>
        <pt x="72" y="164" on="1"/>
        <pt x="72" y="123" on="0"/>
        <pt x="115" y="56" on="0"/>
        <pt x="192" y="16" on="0"/>
        <pt x="240" y="16" on="1"/>
      </contour>
    </TTGlyph>
    <TTGlyph name="eight.heb" xMin="40" yMin="-12" xMax="430" yMax="652">
      <contour>
        <pt x="183" y="-12" on="0"/>
        <pt x="92" y="34" on="0"/>
        <pt x="40" y="115" on="0"/>
        <pt x="40" y="164" on="1"/>
        <pt x="40" y="224" on="0"/>
        <pt x="117" y="320" on="0"/>
        <pt x="170" y="348" on="1"/>
        <pt x="170" y="352" on="1"/>
        <pt x="130" y="378" on="0"/>
        <pt x="78" y="451" on="0"/>
        <pt x="78" y="498" on="1"/>
        <pt x="78" y="542" on="0"/>
        <pt x="121" y="612" on="0"/>
        <pt x="195" y="652" on="0"/>
        <pt x="240" y="652" on="1"/>
        <pt x="319" y="652" on="0"/>
        <pt x="410" y="559" on="0"/>
        <pt x="410" y="486" on="1"/>
        <pt x="410" y="438" on="0"/>
        <pt x="353" y="349" on="0"/>
        <pt x="318" y="320" on="1"/>
        <pt x="318" y="316" on="1"/>
        <pt x="371" y="283" on="0"/>
        <pt x="430" y="212" on="0"/>
        <pt x="430" y="154" on="1"/>
        <pt x="430" y="108" on="0"/>
        <pt x="382" y="32" on="0"/>
        <pt x="296" y="-12" on="0"/>
        <pt x="240" y="-12" on="1"/>
      </contour>
      <contour>
        <pt x="378" y="401" on="0"/>
        <pt x="378" y="486" on="1"/>
        <pt x="378" y="544" on="0"/>
        <pt x="304" y="624" on="0"/>
        <pt x="240" y="624" on="1"/>
        <pt x="183" y="624" on="0"/>
        <pt x="110" y="552" on="0"/>
        <pt x="110" y="498" on="1"/>
        <pt x="110" y="453" on="0"/>
        <pt x="159" y="391" on="0"/>
        <pt x="231" y="352" on="0"/>
        <pt x="288" y="330" on="1"/>
      </contour>
      <contour>
        <pt x="287" y="16" on="0"/>
        <pt x="359" y="53" on="0"/>
        <pt x="398" y="116" on="0"/>
        <pt x="398" y="154" on="1"/>
        <pt x="398" y="202" on="0"/>
        <pt x="343" y="267" on="0"/>
        <pt x="266" y="306" on="0"/>
        <pt x="194" y="334" on="1"/>
        <pt x="72" y="264" on="0"/>
        <pt x="72" y="164" on="1"/>
        <pt x="72" y="123" on="0"/>
        <pt x="115" y="56" on="0"/>
        <pt x="192" y="16" on="0"/>
        <pt x="240" y="16" on="1"/>
      </contour>
    </TTGlyph>
    <TTGlyph name="eight.lat" xMin="40" yMin="-12" xMax="430" yMax="652">
      <contour>
        <pt x="183" y="-12" on="0"/>
        <pt x="92" y="34" on="0"/>
        <pt x="40" y="115" on="0"/>
        <pt x="40" y="164" on="1"/>
        <pt x="40" y="224" on="0"/>
        <pt x="117" y="320" on="0"/>
        <pt x="170" y="348" on="1"/>
        <pt x="170" y="352" on="1"/>
        <pt x="130" y="378" on="0"/>
        <pt x="78" y="451" on="0"/>
        <pt x="78" y="498" on="1"/>
        <pt x="78" y="542" on="0"/>
        <pt x="121" y="612" on="0"/>
        <pt x="195" y="652" on="0"/>
        <pt x="240" y="652" on="1"/>
        <pt x="319" y="652" on="0"/>
        <pt x="410" y="559" on="0"/>
        <pt x="410" y="486" on="1"/>
        <pt x="410" y="438" on="0"/>
        <pt x="353" y="349" on="0"/>
        <pt x="318" y="320" on="1"/>
        <pt x="318" y="316" on="1"/>
        <pt x="371" y="283" on="0"/>
        <pt x="430" y="212" on="0"/>
        <pt x="430" y="154" on="1"/>
        <pt x="430" y="108" on="0"/>
        <pt x="382" y="32" on="0"/>
        <pt x="296" y="-12" on="0"/>
        <pt x="240" y="-12" on="1"/>
      </contour>
      <contour>
        <pt x="378" y="401" on="0"/>
        <pt x="378" y="486" on="1"/>
        <pt x="378" y="544" on="0"/>
        <pt x="304" y="624" on="0"/>
        <pt x="240" y="624" on="1"/>
        <pt x="183" y="624" on="0"/>
        <pt x="110" y="552" on="0"/>
        <pt x="110" y="498" on="1"/>
        <pt x="110" y="453" on="0"/>
        <pt x="159" y="391" on="0"/>
        <pt x="231" y="352" on="0"/>
        <pt x="288" y="330" on="1"/>
      </contour>
      <contour>
        <pt x="287" y="16" on="0"/>
        <pt x="359" y="53" on="0"/>
        <pt x="398" y="116" on="0"/>
        <pt x="398" y="154" on="1"/>
        <pt x="398" y="202" on="0"/>
        <pt x="343" y="267" on="0"/>
        <pt x="266" y="306" on="0"/>
        <pt x="194" y="334" on="1"/>
        <pt x="72" y="264" on="0"/>
        <pt x="72" y="164" on="1"/>
        <pt x="72" y="123" on="0"/>
        <pt x="115" y="56" on="0"/>
        <pt x="192" y="16" on="0"/>
        <pt x="240" y="16" on="1"/>
      </contour>
    </TTGlyph>
    <TTGlyph name="eight.pnumheb" xMin="58" yMin="-12" xMax="448" yMax="652">
      <component glyphName="eight.heb" x="18" y="0" flags="0x0"/>
    </TTGlyph>
    <TTGlyph name="eight.pnumlat" xMin="58" yMin="-12" xMax="448" yMax="652">
      <component glyphName="eight" x="18" y="0" flags="0x0"/>
    </TTGlyph>
    <TTGlyph name="ellipsis" xMin="130" yMin="-12" xMax="870" yMax="66">
      <component glyphName="period" x="62" y="0" flags="0x0"/>
      <component glyphName="period" x="396" y="0" flags="0x0"/>
      <component glyphName="period" x="730" y="0" flags="0x0"/>
    </TTGlyph>
    <TTGlyph name="emacron" xMin="54" yMin="-12" xMax="440" yMax="636">
      <component glyphName="e" x="0" y="0" flags="0x0"/>
      <component glyphName="uni0304" x="260" y="0" flags="0x0"/>
    </TTGlyph>
    <TTGlyph name="emdash" xMin="40" yMin="236" xMax="760" yMax="264">
      <contour>
        <pt x="40" y="264" on="1"/>
        <pt x="760" y="264" on="1"/>
        <pt x="760" y="236" on="1"/>
        <pt x="40" y="236" on="1"/>
      </contour>
    </TTGlyph>
    <TTGlyph name="emdash.lat" xMin="40" yMin="236" xMax="760" yMax="264">
      <contour>
        <pt x="40" y="264" on="1"/>
        <pt x="760" y="264" on="1"/>
        <pt x="760" y="236" on="1"/>
        <pt x="40" y="236" on="1"/>
      </contour>
    </TTGlyph>
    <TTGlyph name="endash" xMin="40" yMin="236" xMax="440" yMax="264">
      <contour>
        <pt x="40" y="264" on="1"/>
        <pt x="440" y="264" on="1"/>
        <pt x="440" y="236" on="1"/>
        <pt x="40" y="236" on="1"/>
      </contour>
    </TTGlyph>
    <TTGlyph name="endash.lat" xMin="40" yMin="236" xMax="440" yMax="264">
      <contour>
        <pt x="40" y="264" on="1"/>
        <pt x="440" y="264" on="1"/>
        <pt x="440" y="236" on="1"/>
        <pt x="40" y="236" on="1"/>
      </contour>
    </TTGlyph>
    <TTGlyph name="eogonek" xMin="54" yMin="-202" xMax="440" yMax="490">
      <contour>
        <pt x="319" y="-202" on="0"/>
        <pt x="276" y="-161" on="0"/>
        <pt x="276" y="-122" on="1"/>
        <pt x="276" y="-88" on="0"/>
        <pt x="315" y="-24" on="0"/>
        <pt x="340" y="-2" on="1"/>
        <pt x="313" y="-12" on="0"/>
        <pt x="272" y="-12" on="1"/>
        <pt x="212" y="-12" on="0"/>
        <pt x="112" y="49" on="0"/>
        <pt x="54" y="162" on="0"/>
        <pt x="54" y="238" on="1"/>
        <pt x="54" y="313" on="0"/>
        <pt x="112" y="428" on="0"/>
        <pt x="206" y="490" on="0"/>
        <pt x="260" y="490" on="1"/>
        <pt x="344" y="490" on="0"/>
        <pt x="440" y="375" on="0"/>
        <pt x="440" y="270" on="1"/>
        <pt x="440" y="250" on="0"/>
        <pt x="438" y="238" on="1"/>
        <pt x="86" y="238" on="1"/>
        <pt x="86" y="174" on="0"/>
        <pt x="133" y="73" on="0"/>
        <pt x="218" y="16" on="0"/>
        <pt x="274" y="16" on="1"/>
        <pt x="345" y="16" on="0"/>
        <pt x="406" y="60" on="1"/>
        <pt x="420" y="34" on="1"/>
        <pt x="358" y="-12" on="0"/>
        <pt x="306" y="-85" on="0"/>
        <pt x="306" y="-120" on="1"/>
        <pt x="306" y="-146" on="0"/>
        <pt x="335" y="-174" on="0"/>
        <pt x="356" y="-174" on="1"/>
        <pt x="380" y="-174" on="0"/>
        <pt x="400" y="-160" on="1"/>
        <pt x="414" y="-180" on="1"/>
        <pt x="403" y="-189" on="0"/>
        <pt x="369" y="-202" on="0"/>
        <pt x="354" y="-202" on="1"/>
      </contour>
      <contour>
        <pt x="410" y="266" on="1"/>
        <pt x="410" y="362" on="0"/>
        <pt x="330" y="462" on="0"/>
        <pt x="260" y="462" on="1"/>
        <pt x="217" y="462" on="0"/>
        <pt x="141" y="414" on="0"/>
        <pt x="91" y="325" on="0"/>
        <pt x="86" y="266" on="1"/>
      </contour>
    </TTGlyph>
    <TTGlyph name="eogonek.sups" xMin="32" yMin="402" xMax="298" yMax="734">
      <contour>
        <pt x="116" y="402" on="0"/>
        <pt x="32" y="490" on="0"/>
        <pt x="32" y="568" on="1"/>
        <pt x="32" y="618" on="0"/>
        <pt x="70" y="693" on="0"/>
        <pt x="135" y="734" on="0"/>
        <pt x="174" y="734" on="1"/>
        <pt x="242" y="734" on="0"/>
        <pt x="298" y="644" on="0"/>
        <pt x="298" y="594" on="1"/>
        <pt x="298" y="580" on="0"/>
        <pt x="296" y="564" on="1"/>
        <pt x="62" y="564" on="1"/>
        <pt x="62" y="503" on="0"/>
        <pt x="127" y="428" on="0"/>
        <pt x="182" y="428" on="1"/>
        <pt x="231" y="428" on="0"/>
        <pt x="272" y="458" on="1"/>
        <pt x="286" y="436" on="1"/>
        <pt x="260" y="420" on="0"/>
        <pt x="212" y="402" on="0"/>
        <pt x="180" y="402" on="1"/>
      </contour>
      <contour>
        <pt x="270" y="590" on="1"/>
        <pt x="270" y="637" on="0"/>
        <pt x="223" y="708" on="0"/>
        <pt x="174" y="708" on="1"/>
        <pt x="128" y="708" on="0"/>
        <pt x="68" y="644" on="0"/>
        <pt x="62" y="590" on="1"/>
      </contour>
    </TTGlyph>
    <TTGlyph name="equal" xMin="34" yMin="216" xMax="438" yMax="444">
      <component glyphName="minus" x="0" y="100" flags="0x4"/>
      <component glyphName="minus" x="0" y="-100" flags="0x4"/>
    </TTGlyph>
    <TTGlyph name="estimated" xMin="46" yMin="-12" xMax="754" yMax="660">
      <contour>
        <pt x="304" y="-12" on="0"/>
        <pt x="141" y="78" on="0"/>
        <pt x="46" y="232" on="0"/>
        <pt x="46" y="324" on="1"/>
        <pt x="46" y="416" on="0"/>
        <pt x="141" y="570" on="0"/>
        <pt x="304" y="660" on="0"/>
        <pt x="400" y="660" on="1"/>
        <pt x="496" y="660" on="0"/>
        <pt x="659" y="570" on="0"/>
        <pt x="754" y="416" on="0"/>
        <pt x="754" y="324" on="1"/>
        <pt x="754" y="316" on="1"/>
        <pt x="180" y="316" on="1"/>
        <pt x="176" y="316" on="0"/>
        <pt x="176" y="312" on="1"/>
        <pt x="176" y="128" on="1"/>
        <pt x="176" y="120" on="0"/>
        <pt x="184" y="108" on="1"/>
        <pt x="225" y="61" on="0"/>
        <pt x="338" y="8" on="0"/>
        <pt x="402" y="8" on="1"/>
        <pt x="468" y="8" on="0"/>
        <pt x="587" y="68" on="0"/>
        <pt x="630" y="120" on="1"/>
        <pt x="682" y="120" on="1"/>
        <pt x="631" y="59" on="0"/>
        <pt x="484" y="-12" on="0"/>
        <pt x="400" y="-12" on="1"/>
      </contour>
      <contour>
        <pt x="620" y="334" on="1"/>
        <pt x="626" y="334" on="0"/>
        <pt x="626" y="340" on="1"/>
        <pt x="626" y="524" on="1"/>
        <pt x="626" y="536" on="0"/>
        <pt x="616" y="546" on="1"/>
        <pt x="573" y="590" on="0"/>
        <pt x="462" y="640" on="0"/>
        <pt x="402" y="640" on="1"/>
        <pt x="339" y="640" on="0"/>
        <pt x="227" y="588" on="0"/>
        <pt x="184" y="542" on="1"/>
        <pt x="176" y="530" on="0"/>
        <pt x="176" y="520" on="1"/>
        <pt x="176" y="340" on="1"/>
        <pt x="176" y="334" on="0"/>
        <pt x="180" y="334" on="1"/>
      </contour>
    </TTGlyph>
    <TTGlyph name="eth" xMin="62" yMin="-12" xMax="464" yMax="722">
      <contour>
        <pt x="329" y="607" on="1"/>
        <pt x="393" y="542" on="0"/>
        <pt x="464" y="368" on="0"/>
        <pt x="464" y="250" on="1"/>
        <pt x="464" y="171" on="0"/>
        <pt x="414" y="52" on="0"/>
        <pt x="324" y="-12" on="0"/>
        <pt x="266" y="-12" on="1"/>
        <pt x="213" y="-12" on="0"/>
        <pt x="119" y="44" on="0"/>
        <pt x="62" y="149" on="0"/>
        <pt x="62" y="218" on="1"/>
        <pt x="62" y="283" on="0"/>
        <pt x="114" y="384" on="0"/>
        <pt x="208" y="440" on="0"/>
        <pt x="270" y="440" on="1"/>
        <pt x="314" y="440" on="0"/>
        <pt x="392" y="400" on="0"/>
        <pt x="423" y="361" on="1"/>
        <pt x="410" y="435" on="0"/>
        <pt x="349" y="548" on="0"/>
        <pt x="303" y="594" on="1"/>
        <pt x="162" y="520" on="1"/>
        <pt x="150" y="542" on="1"/>
        <pt x="283" y="612" on="1"/>
        <pt x="237" y="653" on="0"/>
        <pt x="156" y="700" on="1"/>
        <pt x="172" y="722" on="1"/>
        <pt x="254" y="677" on="0"/>
        <pt x="310" y="626" on="1"/>
        <pt x="452" y="700" on="1"/>
        <pt x="464" y="678" on="1"/>
      </contour>
      <contour>
        <pt x="349" y="16" on="0"/>
        <pt x="432" y="147" on="0"/>
        <pt x="432" y="250" on="1"/>
        <pt x="432" y="285" on="0"/>
        <pt x="429" y="315" on="1"/>
        <pt x="392" y="370" on="0"/>
        <pt x="313" y="412" on="0"/>
        <pt x="268" y="412" on="1"/>
        <pt x="213" y="412" on="0"/>
        <pt x="134" y="359" on="0"/>
        <pt x="94" y="270" on="0"/>
        <pt x="94" y="218" on="1"/>
        <pt x="94" y="160" on="0"/>
        <pt x="140" y="68" on="0"/>
        <pt x="219" y="16" on="0"/>
        <pt x="266" y="16" on="1"/>
      </contour>
    </TTGlyph>
    <TTGlyph name="exclam" xMin="88" yMin="-12" xMax="160" yMax="670">
      <contour>
        <pt x="108" y="608" on="1"/>
        <pt x="108" y="670" on="1"/>
        <pt x="140" y="670" on="1"/>
        <pt x="140" y="608" on="1"/>
        <pt x="136" y="172" on="1"/>
        <pt x="112" y="172" on="1"/>
      </contour>
      <contour>
        <pt x="110" y="-12" on="0"/>
        <pt x="88" y="9" on="0"/>
        <pt x="88" y="26" on="1"/>
        <pt x="88" y="45" on="0"/>
        <pt x="110" y="66" on="0"/>
        <pt x="124" y="66" on="1"/>
        <pt x="139" y="66" on="0"/>
        <pt x="160" y="45" on="0"/>
        <pt x="160" y="26" on="1"/>
        <pt x="160" y="9" on="0"/>
        <pt x="138" y="-12" on="0"/>
        <pt x="124" y="-12" on="1"/>
      </contour>
    </TTGlyph>
    <TTGlyph name="exclam.lat" xMin="88" yMin="-12" xMax="160" yMax="670">
      <contour>
        <pt x="108" y="608" on="1"/>
        <pt x="108" y="670" on="1"/>
        <pt x="140" y="670" on="1"/>
        <pt x="140" y="608" on="1"/>
        <pt x="136" y="172" on="1"/>
        <pt x="112" y="172" on="1"/>
      </contour>
      <contour>
        <pt x="110" y="-12" on="0"/>
        <pt x="88" y="9" on="0"/>
        <pt x="88" y="26" on="1"/>
        <pt x="88" y="45" on="0"/>
        <pt x="110" y="66" on="0"/>
        <pt x="124" y="66" on="1"/>
        <pt x="139" y="66" on="0"/>
        <pt x="160" y="45" on="0"/>
        <pt x="160" y="26" on="1"/>
        <pt x="160" y="9" on="0"/>
        <pt x="138" y="-12" on="0"/>
        <pt x="124" y="-12" on="1"/>
      </contour>
    </TTGlyph>
    <TTGlyph name="exclamdown" xMin="88" yMin="-192" xMax="160" yMax="490">
      <contour>
        <pt x="110" y="412" on="0"/>
        <pt x="88" y="434" on="0"/>
        <pt x="88" y="452" on="1"/>
        <pt x="88" y="469" on="0"/>
        <pt x="110" y="490" on="0"/>
        <pt x="124" y="490" on="1"/>
        <pt x="138" y="490" on="0"/>
        <pt x="160" y="469" on="0"/>
        <pt x="160" y="452" on="1"/>
        <pt x="160" y="434" on="0"/>
        <pt x="139" y="412" on="0"/>
        <pt x="124" y="412" on="1"/>
      </contour>
      <contour>
        <pt x="108" y="-130" on="1"/>
        <pt x="112" y="306" on="1"/>
        <pt x="136" y="306" on="1"/>
        <pt x="140" y="-130" on="1"/>
        <pt x="140" y="-192" on="1"/>
        <pt x="108" y="-192" on="1"/>
      </contour>
    </TTGlyph>
    <TTGlyph name="exclamdown.lat" xMin="88" yMin="-192" xMax="160" yMax="490">
      <contour>
        <pt x="110" y="412" on="0"/>
        <pt x="88" y="434" on="0"/>
        <pt x="88" y="452" on="1"/>
        <pt x="88" y="469" on="0"/>
        <pt x="110" y="490" on="0"/>
        <pt x="124" y="490" on="1"/>
        <pt x="138" y="490" on="0"/>
        <pt x="160" y="469" on="0"/>
        <pt x="160" y="452" on="1"/>
        <pt x="160" y="434" on="0"/>
        <pt x="139" y="412" on="0"/>
        <pt x="124" y="412" on="1"/>
      </contour>
      <contour>
        <pt x="108" y="-130" on="1"/>
        <pt x="112" y="306" on="1"/>
        <pt x="136" y="306" on="1"/>
        <pt x="140" y="-130" on="1"/>
        <pt x="140" y="-192" on="1"/>
        <pt x="108" y="-192" on="1"/>
      </contour>
    </TTGlyph>
    <TTGlyph name="f" xMin="34" yMin="0" xMax="276" yMax="734">
      <contour>
        <pt x="130" y="706" on="0"/>
        <pt x="130" y="592" on="1"/>
        <pt x="130" y="478" on="1"/>
        <pt x="244" y="478" on="1"/>
        <pt x="244" y="450" on="1"/>
        <pt x="130" y="450" on="1"/>
        <pt x="130" y="0" on="1"/>
        <pt x="100" y="0" on="1"/>
        <pt x="100" y="450" on="1"/>
        <pt x="34" y="450" on="1"/>
        <pt x="34" y="474" on="1"/>
        <pt x="100" y="478" on="1"/>
        <pt x="100" y="596" on="1"/>
        <pt x="100" y="665" on="0"/>
        <pt x="158" y="734" on="0"/>
        <pt x="210" y="734" on="1"/>
        <pt x="241" y="734" on="0"/>
        <pt x="276" y="718" on="1"/>
        <pt x="266" y="692" on="1"/>
        <pt x="238" y="706" on="0"/>
        <pt x="208" y="706" on="1"/>
      </contour>
    </TTGlyph>
    <TTGlyph name="fi" xMin="34" yMin="0" xMax="396" yMax="734">
      <component glyphName="f" x="0" y="0" flags="0x0"/>
      <component glyphName="dotlessi" x="252" y="0" flags="0x0"/>
      <component glyphName="uni0307" x="364" y="0" flags="0x0"/>
    </TTGlyph>
    <TTGlyph name="five" xMin="26" yMin="-12" xMax="424" yMax="640">
      <contour>
        <pt x="156" y="-12" on="0"/>
        <pt x="65" y="35" on="0"/>
        <pt x="26" y="74" on="1"/>
        <pt x="46" y="96" on="1"/>
        <pt x="81" y="59" on="0"/>
        <pt x="164" y="16" on="0"/>
        <pt x="226" y="16" on="1"/>
        <pt x="270" y="16" on="0"/>
        <pt x="346" y="62" on="0"/>
        <pt x="392" y="146" on="0"/>
        <pt x="392" y="198" on="1"/>
        <pt x="392" y="279" on="0"/>
        <pt x="303" y="372" on="0"/>
        <pt x="228" y="372" on="1"/>
        <pt x="193" y="372" on="0"/>
        <pt x="138" y="350" on="0"/>
        <pt x="106" y="328" on="1"/>
        <pt x="80" y="344" on="1"/>
        <pt x="104" y="640" on="1"/>
        <pt x="390" y="640" on="1"/>
        <pt x="390" y="612" on="1"/>
        <pt x="132" y="612" on="1"/>
        <pt x="110" y="366" on="1"/>
        <pt x="138" y="383" on="0"/>
        <pt x="195" y="402" on="0"/>
        <pt x="230" y="402" on="1"/>
        <pt x="316" y="402" on="0"/>
        <pt x="424" y="300" on="0"/>
        <pt x="424" y="200" on="1"/>
        <pt x="424" y="135" on="0"/>
        <pt x="367" y="39" on="0"/>
        <pt x="275" y="-12" on="0"/>
        <pt x="224" y="-12" on="1"/>
      </contour>
    </TTGlyph>
    <TTGlyph name="five.heb" xMin="26" yMin="-12" xMax="424" yMax="640">
      <contour>
        <pt x="156" y="-12" on="0"/>
        <pt x="65" y="35" on="0"/>
        <pt x="26" y="74" on="1"/>
        <pt x="46" y="96" on="1"/>
        <pt x="81" y="59" on="0"/>
        <pt x="164" y="16" on="0"/>
        <pt x="226" y="16" on="1"/>
        <pt x="270" y="16" on="0"/>
        <pt x="346" y="62" on="0"/>
        <pt x="392" y="146" on="0"/>
        <pt x="392" y="198" on="1"/>
        <pt x="392" y="279" on="0"/>
        <pt x="303" y="372" on="0"/>
        <pt x="228" y="372" on="1"/>
        <pt x="193" y="372" on="0"/>
        <pt x="138" y="350" on="0"/>
        <pt x="106" y="328" on="1"/>
        <pt x="80" y="344" on="1"/>
        <pt x="104" y="640" on="1"/>
        <pt x="390" y="640" on="1"/>
        <pt x="390" y="612" on="1"/>
        <pt x="132" y="612" on="1"/>
        <pt x="110" y="366" on="1"/>
        <pt x="138" y="383" on="0"/>
        <pt x="195" y="402" on="0"/>
        <pt x="230" y="402" on="1"/>
        <pt x="316" y="402" on="0"/>
        <pt x="424" y="300" on="0"/>
        <pt x="424" y="200" on="1"/>
        <pt x="424" y="135" on="0"/>
        <pt x="367" y="39" on="0"/>
        <pt x="275" y="-12" on="0"/>
        <pt x="224" y="-12" on="1"/>
      </contour>
    </TTGlyph>
    <TTGlyph name="five.lat" xMin="26" yMin="-12" xMax="424" yMax="640">
      <contour>
        <pt x="156" y="-12" on="0"/>
        <pt x="65" y="35" on="0"/>
        <pt x="26" y="74" on="1"/>
        <pt x="46" y="96" on="1"/>
        <pt x="81" y="59" on="0"/>
        <pt x="164" y="16" on="0"/>
        <pt x="226" y="16" on="1"/>
        <pt x="270" y="16" on="0"/>
        <pt x="346" y="62" on="0"/>
        <pt x="392" y="146" on="0"/>
        <pt x="392" y="198" on="1"/>
        <pt x="392" y="279" on="0"/>
        <pt x="303" y="372" on="0"/>
        <pt x="228" y="372" on="1"/>
        <pt x="193" y="372" on="0"/>
        <pt x="138" y="350" on="0"/>
        <pt x="106" y="328" on="1"/>
        <pt x="80" y="344" on="1"/>
        <pt x="104" y="640" on="1"/>
        <pt x="390" y="640" on="1"/>
        <pt x="390" y="612" on="1"/>
        <pt x="132" y="612" on="1"/>
        <pt x="110" y="366" on="1"/>
        <pt x="138" y="383" on="0"/>
        <pt x="195" y="402" on="0"/>
        <pt x="230" y="402" on="1"/>
        <pt x="316" y="402" on="0"/>
        <pt x="424" y="300" on="0"/>
        <pt x="424" y="200" on="1"/>
        <pt x="424" y="135" on="0"/>
        <pt x="367" y="39" on="0"/>
        <pt x="275" y="-12" on="0"/>
        <pt x="224" y="-12" on="1"/>
      </contour>
    </TTGlyph>
    <TTGlyph name="five.pnumheb" xMin="26" yMin="-12" xMax="424" yMax="640">
      <component glyphName="five.heb" x="0" y="0" flags="0x0"/>
    </TTGlyph>
    <TTGlyph name="five.pnumlat" xMin="26" yMin="-12" xMax="424" yMax="640">
      <component glyphName="five" x="0" y="0" flags="0x0"/>
    </TTGlyph>
    <TTGlyph name="fl" xMin="34" yMin="-12" xMax="422" yMax="734">
      <component glyphName="f" x="0" y="0" flags="0x0"/>
      <component glyphName="l" x="252" y="0" flags="0x0"/>
    </TTGlyph>
    <TTGlyph name="florin" xMin="8" yMin="-98" xMax="436" yMax="672">
      <contour>
        <pt x="274" y="644" on="0"/>
        <pt x="256" y="472" on="1"/>
        <pt x="249" y="404" on="1"/>
        <pt x="392" y="404" on="1"/>
        <pt x="392" y="376" on="1"/>
        <pt x="246" y="376" on="1"/>
        <pt x="216" y="100" on="1"/>
        <pt x="206" y="3" on="0"/>
        <pt x="137" y="-98" on="0"/>
        <pt x="70" y="-98" on="1"/>
        <pt x="37" y="-98" on="0"/>
        <pt x="8" y="-82" on="1"/>
        <pt x="20" y="-58" on="1"/>
        <pt x="44" y="-70" on="0"/>
        <pt x="74" y="-70" on="1"/>
        <pt x="126" y="-70" on="0"/>
        <pt x="178" y="21" on="0"/>
        <pt x="186" y="98" on="1"/>
        <pt x="216" y="376" on="1"/>
        <pt x="118" y="376" on="1"/>
        <pt x="118" y="400" on="1"/>
        <pt x="184" y="404" on="1"/>
        <pt x="219" y="404" on="1"/>
        <pt x="226" y="470" on="1"/>
        <pt x="236" y="567" on="0"/>
        <pt x="302" y="672" on="0"/>
        <pt x="364" y="672" on="1"/>
        <pt x="386" y="672" on="0"/>
        <pt x="416" y="663" on="0"/>
        <pt x="436" y="654" on="1"/>
        <pt x="426" y="628" on="1"/>
        <pt x="408" y="636" on="0"/>
        <pt x="381" y="644" on="0"/>
        <pt x="362" y="644" on="1"/>
      </contour>
    </TTGlyph>
    <TTGlyph name="florin.lat" xMin="8" yMin="-98" xMax="436" yMax="672">
      <contour>
        <pt x="274" y="644" on="0"/>
        <pt x="256" y="472" on="1"/>
        <pt x="249" y="404" on="1"/>
        <pt x="392" y="404" on="1"/>
        <pt x="392" y="376" on="1"/>
        <pt x="246" y="376" on="1"/>
        <pt x="216" y="100" on="1"/>
        <pt x="206" y="3" on="0"/>
        <pt x="137" y="-98" on="0"/>
        <pt x="70" y="-98" on="1"/>
        <pt x="37" y="-98" on="0"/>
        <pt x="8" y="-82" on="1"/>
        <pt x="20" y="-58" on="1"/>
        <pt x="44" y="-70" on="0"/>
        <pt x="74" y="-70" on="1"/>
        <pt x="126" y="-70" on="0"/>
        <pt x="178" y="21" on="0"/>
        <pt x="186" y="98" on="1"/>
        <pt x="216" y="376" on="1"/>
        <pt x="118" y="376" on="1"/>
        <pt x="118" y="400" on="1"/>
        <pt x="184" y="404" on="1"/>
        <pt x="219" y="404" on="1"/>
        <pt x="226" y="470" on="1"/>
        <pt x="236" y="567" on="0"/>
        <pt x="302" y="672" on="0"/>
        <pt x="364" y="672" on="1"/>
        <pt x="386" y="672" on="0"/>
        <pt x="416" y="663" on="0"/>
        <pt x="436" y="654" on="1"/>
        <pt x="426" y="628" on="1"/>
        <pt x="408" y="636" on="0"/>
        <pt x="381" y="644" on="0"/>
        <pt x="362" y="644" on="1"/>
      </contour>
    </TTGlyph>
    <TTGlyph name="four" xMin="16" yMin="0" xMax="440" yMax="640">
      <contour>
        <pt x="440" y="196" on="1"/>
        <pt x="342" y="196" on="1"/>
        <pt x="342" y="0" on="1"/>
        <pt x="312" y="0" on="1"/>
        <pt x="312" y="196" on="1"/>
        <pt x="16" y="196" on="1"/>
        <pt x="16" y="212" on="1"/>
        <pt x="322" y="640" on="1"/>
        <pt x="342" y="640" on="1"/>
        <pt x="342" y="224" on="1"/>
        <pt x="440" y="224" on="1"/>
      </contour>
      <contour>
        <pt x="312" y="224" on="1"/>
        <pt x="312" y="476" on="1"/>
        <pt x="312" y="526" on="0"/>
        <pt x="316" y="582" on="1"/>
        <pt x="312" y="582" on="1"/>
        <pt x="307" y="574" on="0"/>
        <pt x="291" y="551" on="0"/>
        <pt x="285" y="542" on="1"/>
        <pt x="267" y="517" on="0"/>
        <pt x="260" y="506" on="1"/>
        <pt x="58" y="224" on="1"/>
      </contour>
    </TTGlyph>
    <TTGlyph name="four.heb" xMin="16" yMin="0" xMax="440" yMax="640">
      <contour>
        <pt x="440" y="196" on="1"/>
        <pt x="342" y="196" on="1"/>
        <pt x="342" y="0" on="1"/>
        <pt x="312" y="0" on="1"/>
        <pt x="312" y="196" on="1"/>
        <pt x="16" y="196" on="1"/>
        <pt x="16" y="212" on="1"/>
        <pt x="322" y="640" on="1"/>
        <pt x="342" y="640" on="1"/>
        <pt x="342" y="224" on="1"/>
        <pt x="440" y="224" on="1"/>
      </contour>
      <contour>
        <pt x="312" y="224" on="1"/>
        <pt x="312" y="476" on="1"/>
        <pt x="312" y="526" on="0"/>
        <pt x="316" y="582" on="1"/>
        <pt x="312" y="582" on="1"/>
        <pt x="307" y="574" on="0"/>
        <pt x="291" y="551" on="0"/>
        <pt x="285" y="542" on="1"/>
        <pt x="267" y="517" on="0"/>
        <pt x="260" y="506" on="1"/>
        <pt x="58" y="224" on="1"/>
      </contour>
    </TTGlyph>
    <TTGlyph name="four.lat" xMin="16" yMin="0" xMax="440" yMax="640">
      <contour>
        <pt x="440" y="196" on="1"/>
        <pt x="342" y="196" on="1"/>
        <pt x="342" y="0" on="1"/>
        <pt x="312" y="0" on="1"/>
        <pt x="312" y="196" on="1"/>
        <pt x="16" y="196" on="1"/>
        <pt x="16" y="212" on="1"/>
        <pt x="322" y="640" on="1"/>
        <pt x="342" y="640" on="1"/>
        <pt x="342" y="224" on="1"/>
        <pt x="440" y="224" on="1"/>
      </contour>
      <contour>
        <pt x="312" y="224" on="1"/>
        <pt x="312" y="476" on="1"/>
        <pt x="312" y="526" on="0"/>
        <pt x="316" y="582" on="1"/>
        <pt x="312" y="582" on="1"/>
        <pt x="307" y="574" on="0"/>
        <pt x="291" y="551" on="0"/>
        <pt x="285" y="542" on="1"/>
        <pt x="267" y="517" on="0"/>
        <pt x="260" y="506" on="1"/>
        <pt x="58" y="224" on="1"/>
      </contour>
    </TTGlyph>
    <TTGlyph name="four.pnumheb" xMin="32" yMin="0" xMax="456" yMax="640">
      <component glyphName="four.heb" x="16" y="0" flags="0x0"/>
    </TTGlyph>
    <TTGlyph name="four.pnumlat" xMin="32" yMin="0" xMax="456" yMax="640">
      <component glyphName="four" x="16" y="0" flags="0x0"/>
    </TTGlyph>
    <TTGlyph name="fraction" xMin="-164" yMin="-12" xMax="238" yMax="672">
      <contour>
        <pt x="206" y="672" on="1"/>
        <pt x="238" y="672" on="1"/>
        <pt x="-132" y="-12" on="1"/>
        <pt x="-164" y="-12" on="1"/>
      </contour>
    </TTGlyph>
    <TTGlyph name="fraction.lat" xMin="-164" yMin="-12" xMax="238" yMax="672">
      <contour>
        <pt x="206" y="672" on="1"/>
        <pt x="238" y="672" on="1"/>
        <pt x="-132" y="-12" on="1"/>
        <pt x="-164" y="-12" on="1"/>
      </contour>
    </TTGlyph>
    <TTGlyph name="g" xMin="54" yMin="-234" xMax="470" yMax="490">
      <contour>
        <pt x="159" y="-234" on="0"/>
        <pt x="54" y="-161" on="0"/>
        <pt x="54" y="-100" on="1"/>
        <pt x="54" y="-69" on="0"/>
        <pt x="93" y="-6" on="0"/>
        <pt x="126" y="18" on="1"/>
        <pt x="126" y="22" on="1"/>
        <pt x="107" y="33" on="0"/>
        <pt x="84" y="72" on="0"/>
        <pt x="84" y="98" on="1"/>
        <pt x="84" y="127" on="0"/>
        <pt x="116" y="172" on="0"/>
        <pt x="136" y="186" on="1"/>
        <pt x="136" y="190" on="1"/>
        <pt x="111" y="212" on="0"/>
        <pt x="76" y="282" on="0"/>
        <pt x="76" y="322" on="1"/>
        <pt x="76" y="369" on="0"/>
        <pt x="119" y="446" on="0"/>
        <pt x="195" y="490" on="0"/>
        <pt x="240" y="490" on="1"/>
        <pt x="274" y="490" on="0"/>
        <pt x="302" y="478" on="1"/>
        <pt x="462" y="478" on="1"/>
        <pt x="462" y="450" on="1"/>
        <pt x="346" y="450" on="1"/>
        <pt x="372" y="428" on="0"/>
        <pt x="404" y="361" on="0"/>
        <pt x="404" y="322" on="1"/>
        <pt x="404" y="275" on="0"/>
        <pt x="360" y="197" on="0"/>
        <pt x="285" y="152" on="0"/>
        <pt x="240" y="152" on="1"/>
        <pt x="219" y="152" on="0"/>
        <pt x="174" y="164" on="0"/>
        <pt x="158" y="174" on="1"/>
        <pt x="138" y="158" on="0"/>
        <pt x="116" y="123" on="0"/>
        <pt x="116" y="100" on="1"/>
        <pt x="116" y="34" on="0"/>
        <pt x="210" y="34" on="1"/>
        <pt x="316" y="34" on="1"/>
        <pt x="395" y="34" on="0"/>
        <pt x="470" y="-18" on="0"/>
        <pt x="470" y="-74" on="1"/>
        <pt x="470" y="-115" on="0"/>
        <pt x="415" y="-188" on="0"/>
        <pt x="314" y="-234" on="0"/>
        <pt x="250" y="-234" on="1"/>
      </contour>
      <contour>
        <pt x="275" y="180" on="0"/>
        <pt x="336" y="216" on="0"/>
        <pt x="372" y="281" on="0"/>
        <pt x="372" y="322" on="1"/>
        <pt x="372" y="384" on="0"/>
        <pt x="295" y="462" on="0"/>
        <pt x="240" y="462" on="1"/>
        <pt x="184" y="462" on="0"/>
        <pt x="108" y="385" on="0"/>
        <pt x="108" y="322" on="1"/>
        <pt x="108" y="281" on="0"/>
        <pt x="144" y="216" on="0"/>
        <pt x="205" y="180" on="0"/>
        <pt x="240" y="180" on="1"/>
      </contour>
      <contour>
        <pt x="307" y="-206" on="0"/>
        <pt x="392" y="-169" on="0"/>
        <pt x="438" y="-109" on="0"/>
        <pt x="438" y="-76" on="1"/>
        <pt x="438" y="-35" on="0"/>
        <pt x="380" y="2" on="0"/>
        <pt x="322" y="2" on="1"/>
        <pt x="212" y="2" on="1"/>
        <pt x="189" y="2" on="0"/>
        <pt x="154" y="10" on="1"/>
        <pt x="120" y="-13" on="0"/>
        <pt x="86" y="-69" on="0"/>
        <pt x="86" y="-98" on="1"/>
        <pt x="86" y="-147" on="0"/>
        <pt x="174" y="-206" on="0"/>
        <pt x="252" y="-206" on="1"/>
      </contour>
    </TTGlyph>
    <TTGlyph name="gammalatin" xMin="12" yMin="-234" xMax="410" yMax="478">
      <contour>
        <pt x="232" y="26" on="1"/>
        <pt x="263" y="-44" on="0"/>
        <pt x="288" y="-112" on="0"/>
        <pt x="288" y="-142" on="1"/>
        <pt x="288" y="-184" on="0"/>
        <pt x="250" y="-234" on="0"/>
        <pt x="212" y="-234" on="1"/>
        <pt x="174" y="-234" on="0"/>
        <pt x="136" y="-184" on="0"/>
        <pt x="136" y="-142" on="1"/>
        <pt x="136" y="-113" on="0"/>
        <pt x="159" y="-48" on="0"/>
        <pt x="191" y="27" on="1"/>
        <pt x="12" y="478" on="1"/>
        <pt x="46" y="478" on="1"/>
        <pt x="160" y="178" on="1"/>
        <pt x="167" y="158" on="0"/>
        <pt x="190" y="102" on="1"/>
        <pt x="196" y="88" on="0"/>
        <pt x="206" y="63" on="0"/>
        <pt x="210" y="52" on="1"/>
        <pt x="214" y="52" on="1"/>
        <pt x="218" y="63" on="0"/>
        <pt x="228" y="88" on="0"/>
        <pt x="234" y="102" on="1"/>
        <pt x="257" y="158" on="0"/>
        <pt x="264" y="178" on="1"/>
        <pt x="378" y="478" on="1"/>
        <pt x="410" y="478" on="1"/>
      </contour>
      <contour>
        <pt x="235" y="-206" on="0"/>
        <pt x="256" y="-172" on="0"/>
        <pt x="256" y="-144" on="1"/>
        <pt x="256" y="-114" on="0"/>
        <pt x="233" y="-38" on="0"/>
        <pt x="214" y="0" on="1"/>
        <pt x="210" y="0" on="1"/>
        <pt x="192" y="-37" on="0"/>
        <pt x="168" y="-116" on="0"/>
        <pt x="168" y="-144" on="1"/>
        <pt x="168" y="-172" on="0"/>
        <pt x="189" y="-206" on="0"/>
        <pt x="212" y="-206" on="1"/>
      </contour>
    </TTGlyph>
    <TTGlyph name="gcaron" xMin="54" yMin="-234" xMax="470" yMax="734">
      <component glyphName="g" x="0" y="0" flags="0x0"/>
      <component glyphName="uni030C" x="248" y="0" flags="0x0"/>
    </TTGlyph>
    <TTGlyph name="gdotaccent" xMin="54" yMin="-234" xMax="470" yMax="670">
      <component glyphName="g" x="0" y="0" flags="0x0"/>
      <component glyphName="uni0307" x="248" y="0" flags="0x0"/>
    </TTGlyph>
    <TTGlyph name="germandbls" xMin="96" yMin="-12" xMax="500" yMax="732">
      <contour>
        <pt x="285" y="-12" on="0"/>
        <pt x="226" y="40" on="1"/>
        <pt x="244" y="64" on="1"/>
        <pt x="273" y="39" on="0"/>
        <pt x="328" y="16" on="0"/>
        <pt x="360" y="16" on="1"/>
        <pt x="411" y="16" on="0"/>
        <pt x="468" y="78" on="0"/>
        <pt x="468" y="122" on="1"/>
        <pt x="468" y="157" on="0"/>
        <pt x="439" y="203" on="0"/>
        <pt x="396" y="232" on="0"/>
        <pt x="360" y="250" on="1"/>
        <pt x="324" y="268" on="0"/>
        <pt x="283" y="296" on="0"/>
        <pt x="254" y="342" on="0"/>
        <pt x="254" y="376" on="1"/>
        <pt x="254" y="410" on="0"/>
        <pt x="280" y="459" on="0"/>
        <pt x="307" y="493" on="1"/>
        <pt x="331" y="523" on="0"/>
        <pt x="356" y="570" on="0"/>
        <pt x="356" y="600" on="1"/>
        <pt x="356" y="647" on="0"/>
        <pt x="304" y="704" on="0"/>
        <pt x="256" y="704" on="1"/>
        <pt x="195" y="704" on="0"/>
        <pt x="126" y="614" on="0"/>
        <pt x="126" y="524" on="1"/>
        <pt x="126" y="0" on="1"/>
        <pt x="96" y="0" on="1"/>
        <pt x="96" y="538" on="1"/>
        <pt x="96" y="628" on="0"/>
        <pt x="185" y="732" on="0"/>
        <pt x="258" y="732" on="1"/>
        <pt x="317" y="732" on="0"/>
        <pt x="388" y="659" on="0"/>
        <pt x="388" y="602" on="1"/>
        <pt x="388" y="565" on="0"/>
        <pt x="360" y="511" on="0"/>
        <pt x="333" y="477" on="1"/>
        <pt x="309" y="447" on="0"/>
        <pt x="286" y="405" on="0"/>
        <pt x="286" y="378" on="1"/>
        <pt x="286" y="341" on="0"/>
        <pt x="332" y="300" on="0"/>
        <pt x="380" y="276" on="1"/>
        <pt x="419" y="256" on="0"/>
        <pt x="466" y="223" on="0"/>
        <pt x="500" y="167" on="0"/>
        <pt x="500" y="124" on="1"/>
        <pt x="500" y="66" on="0"/>
        <pt x="420" y="-12" on="0"/>
        <pt x="360" y="-12" on="1"/>
      </contour>
    </TTGlyph>
    <TTGlyph name="glottalstopreversedsupmod" xMin="16" yMin="410" xMax="267" yMax="893">
      <contour>
        <pt x="135" y="610" on="1"/>
        <pt x="76" y="646" on="0"/>
        <pt x="16" y="718" on="0"/>
        <pt x="16" y="771" on="1"/>
        <pt x="16" y="829" on="0"/>
        <pt x="91" y="893" on="0"/>
        <pt x="150" y="893" on="1"/>
        <pt x="218" y="893" on="0"/>
        <pt x="267" y="836" on="1"/>
        <pt x="250" y="817" on="1"/>
        <pt x="209" y="868" on="0"/>
        <pt x="150" y="868" on="1"/>
        <pt x="101" y="868" on="0"/>
        <pt x="45" y="816" on="0"/>
        <pt x="45" y="772" on="1"/>
        <pt x="45" y="726" on="0"/>
        <pt x="101" y="660" on="0"/>
        <pt x="163" y="627" on="1"/>
        <pt x="163" y="410" on="1"/>
        <pt x="135" y="410" on="1"/>
      </contour>
    </TTGlyph>
    <TTGlyph name="grave" xMin="162" yMin="574" xMax="318" yMax="744">
      <component glyphName="gravecomb" x="266" y="0" flags="0x0"/>
    </TTGlyph>
    <TTGlyph name="gravecomb" xMin="-104" yMin="574" xMax="52" yMax="744">
      <contour>
        <pt x="-104" y="724" on="1"/>
        <pt x="-80" y="744" on="1"/>
        <pt x="52" y="590" on="1"/>
        <pt x="34" y="574" on="1"/>
      </contour>
    </TTGlyph>
    <TTGlyph name="gravecomb.cap" xMin="-104" yMin="710" xMax="36" yMax="846">
      <contour>
        <pt x="-104" y="822" on="1"/>
        <pt x="-82" y="846" on="1"/>
        <pt x="36" y="726" on="1"/>
        <pt x="22" y="710" on="1"/>
      </contour>
    </TTGlyph>
    <TTGlyph name="greater" xMin="34" yMin="152" xMax="438" yMax="512">
      <contour>
        <pt x="34" y="184" on="1"/>
        <pt x="406" y="330" on="1"/>
        <pt x="406" y="334" on="1"/>
        <pt x="34" y="480" on="1"/>
        <pt x="34" y="512" on="1"/>
        <pt x="438" y="350" on="1"/>
        <pt x="438" y="314" on="1"/>
        <pt x="34" y="152" on="1"/>
      </contour>
    </TTGlyph>
    <TTGlyph name="greaterequal" xMin="34" yMin="0" xMax="438" yMax="512">
      <contour>
        <pt x="34" y="184" on="1"/>
        <pt x="406" y="330" on="1"/>
        <pt x="406" y="334" on="1"/>
        <pt x="34" y="480" on="1"/>
        <pt x="34" y="512" on="1"/>
        <pt x="438" y="350" on="1"/>
        <pt x="438" y="314" on="1"/>
        <pt x="34" y="152" on="1"/>
      </contour>
      <contour>
        <pt x="34" y="28" on="1"/>
        <pt x="438" y="28" on="1"/>
        <pt x="438" y="0" on="1"/>
        <pt x="34" y="0" on="1"/>
      </contour>
    </TTGlyph>
    <TTGlyph name="guillemotleft" xMin="42" yMin="74" xMax="334" yMax="430">
      <component glyphName="guilsinglleft" x="0" y="0" flags="0x0"/>
      <component glyphName="guilsinglleft" x="134" y="0" flags="0x0"/>
    </TTGlyph>
    <TTGlyph name="guillemotleft.lat" xMin="42" yMin="74" xMax="334" yMax="430">
      <contour>
        <pt x="42" y="238" on="1"/>
        <pt x="42" y="266" on="1"/>
        <pt x="180" y="430" on="1"/>
        <pt x="200" y="412" on="1"/>
        <pt x="76" y="252" on="1"/>
        <pt x="200" y="90" on="1"/>
        <pt x="180" y="74" on="1"/>
      </contour>
      <contour>
        <pt x="176" y="238" on="1"/>
        <pt x="176" y="266" on="1"/>
        <pt x="314" y="430" on="1"/>
        <pt x="334" y="412" on="1"/>
        <pt x="210" y="252" on="1"/>
        <pt x="334" y="90" on="1"/>
        <pt x="314" y="74" on="1"/>
      </contour>
    </TTGlyph>
    <TTGlyph name="guillemotright" xMin="54" yMin="74" xMax="346" yMax="430">
      <component glyphName="guilsinglright" x="0" y="0" flags="0x0"/>
      <component glyphName="guilsinglright" x="134" y="0" flags="0x0"/>
    </TTGlyph>
    <TTGlyph name="guillemotright.lat" xMin="54" yMin="74" xMax="346" yMax="430">
      <contour>
        <pt x="54" y="90" on="1"/>
        <pt x="178" y="252" on="1"/>
        <pt x="54" y="412" on="1"/>
        <pt x="74" y="430" on="1"/>
        <pt x="212" y="266" on="1"/>
        <pt x="212" y="238" on="1"/>
        <pt x="74" y="74" on="1"/>
      </contour>
      <contour>
        <pt x="188" y="90" on="1"/>
        <pt x="312" y="252" on="1"/>
        <pt x="188" y="412" on="1"/>
        <pt x="208" y="430" on="1"/>
        <pt x="346" y="266" on="1"/>
        <pt x="346" y="238" on="1"/>
        <pt x="208" y="74" on="1"/>
      </contour>
    </TTGlyph>
    <TTGlyph name="guilsinglleft" xMin="42" yMin="74" xMax="200" yMax="430">
      <contour>
        <pt x="42" y="238" on="1"/>
        <pt x="42" y="266" on="1"/>
        <pt x="180" y="430" on="1"/>
        <pt x="200" y="412" on="1"/>
        <pt x="76" y="252" on="1"/>
        <pt x="200" y="90" on="1"/>
        <pt x="180" y="74" on="1"/>
      </contour>
    </TTGlyph>
    <TTGlyph name="guilsinglleft.lat" xMin="42" yMin="74" xMax="200" yMax="430">
      <contour>
        <pt x="42" y="238" on="1"/>
        <pt x="42" y="266" on="1"/>
        <pt x="180" y="430" on="1"/>
        <pt x="200" y="412" on="1"/>
        <pt x="76" y="252" on="1"/>
        <pt x="200" y="90" on="1"/>
        <pt x="180" y="74" on="1"/>
      </contour>
    </TTGlyph>
    <TTGlyph name="guilsinglright" xMin="54" yMin="74" xMax="212" yMax="430">
      <contour>
        <pt x="54" y="90" on="1"/>
        <pt x="178" y="252" on="1"/>
        <pt x="54" y="412" on="1"/>
        <pt x="74" y="430" on="1"/>
        <pt x="212" y="266" on="1"/>
        <pt x="212" y="238" on="1"/>
        <pt x="74" y="74" on="1"/>
      </contour>
    </TTGlyph>
    <TTGlyph name="guilsinglright.lat" xMin="54" yMin="74" xMax="212" yMax="430">
      <contour>
        <pt x="54" y="90" on="1"/>
        <pt x="178" y="252" on="1"/>
        <pt x="54" y="412" on="1"/>
        <pt x="74" y="430" on="1"/>
        <pt x="212" y="266" on="1"/>
        <pt x="212" y="238" on="1"/>
        <pt x="74" y="74" on="1"/>
      </contour>
    </TTGlyph>
    <TTGlyph name="h" xMin="96" yMin="0" xMax="438" yMax="722">
      <contour>
        <pt x="96" y="722" on="1"/>
        <pt x="126" y="722" on="1"/>
        <pt x="126" y="400" on="1"/>
        <pt x="170" y="444" on="0"/>
        <pt x="248" y="490" on="0"/>
        <pt x="294" y="490" on="1"/>
        <pt x="368" y="490" on="0"/>
        <pt x="438" y="401" on="0"/>
        <pt x="438" y="308" on="1"/>
        <pt x="438" y="0" on="1"/>
        <pt x="408" y="0" on="1"/>
        <pt x="408" y="304" on="1"/>
        <pt x="408" y="385" on="0"/>
        <pt x="353" y="462" on="0"/>
        <pt x="292" y="462" on="1"/>
        <pt x="249" y="462" on="0"/>
        <pt x="176" y="417" on="0"/>
        <pt x="126" y="366" on="1"/>
        <pt x="126" y="0" on="1"/>
        <pt x="96" y="0" on="1"/>
      </contour>
    </TTGlyph>
    <TTGlyph name="hbar" xMin="18" yMin="0" xMax="438" yMax="722">
      <contour>
        <pt x="368" y="458" on="0"/>
        <pt x="438" y="369" on="0"/>
        <pt x="438" y="276" on="1"/>
        <pt x="438" y="0" on="1"/>
        <pt x="408" y="0" on="1"/>
        <pt x="408" y="272" on="1"/>
        <pt x="408" y="353" on="0"/>
        <pt x="353" y="430" on="0"/>
        <pt x="292" y="430" on="1"/>
        <pt x="249" y="430" on="0"/>
        <pt x="176" y="385" on="0"/>
        <pt x="126" y="334" on="1"/>
        <pt x="126" y="0" on="1"/>
        <pt x="96" y="0" on="1"/>
        <pt x="96" y="584" on="1"/>
        <pt x="18" y="584" on="1"/>
        <pt x="18" y="608" on="1"/>
        <pt x="96" y="612" on="1"/>
        <pt x="96" y="722" on="1"/>
        <pt x="126" y="722" on="1"/>
        <pt x="126" y="612" on="1"/>
        <pt x="318" y="612" on="1"/>
        <pt x="318" y="584" on="1"/>
        <pt x="126" y="584" on="1"/>
        <pt x="126" y="368" on="1"/>
        <pt x="170" y="412" on="0"/>
        <pt x="248" y="458" on="0"/>
        <pt x="294" y="458" on="1"/>
      </contour>
    </TTGlyph>
    <TTGlyph name="hungarumlaut" xMin="196" yMin="570" xMax="436" yMax="746">
      <component glyphName="uni030B" x="266" y="0" flags="0x0"/>
    </TTGlyph>
    <TTGlyph name="hyphen" xMin="40" yMin="234" xMax="256" yMax="264">
      <contour>
        <pt x="40" y="264" on="1"/>
        <pt x="256" y="264" on="1"/>
        <pt x="256" y="234" on="1"/>
        <pt x="40" y="234" on="1"/>
      </contour>
    </TTGlyph>
    <TTGlyph name="i" xMin="80" yMin="0" xMax="144" yMax="670">
      <component glyphName="dotlessi" x="0" y="0" flags="0x0"/>
      <component glyphName="uni0307" x="112" y="0" flags="0x0"/>
    </TTGlyph>
    <TTGlyph name="iacute" xMin="60" yMin="0" xMax="216" yMax="744">
      <component glyphName="dotlessi" x="0" y="0" flags="0x0"/>
      <component glyphName="acutecomb" x="112" y="0" flags="0x0"/>
    </TTGlyph>
    <TTGlyph name="icircumflex" xMin="-20" yMin="0" xMax="244" yMax="736">
      <component glyphName="dotlessi" x="0" y="0" flags="0x0"/>
      <component glyphName="uni0302" x="112" y="0" flags="0x0"/>
    </TTGlyph>
    <TTGlyph name="idieresis" xMin="-6" yMin="0" xMax="230" yMax="666">
      <component glyphName="dotlessi" x="0" y="0" flags="0x0"/>
      <component glyphName="uni0308" x="112" y="0" flags="0x0"/>
    </TTGlyph>
    <TTGlyph name="igrave" xMin="8" yMin="0" xMax="164" yMax="744">
      <component glyphName="dotlessi" x="0" y="0" flags="0x0"/>
      <component glyphName="gravecomb" x="112" y="0" flags="0x0"/>
    </TTGlyph>
    <TTGlyph name="imacron" xMin="-8" yMin="0" xMax="232" yMax="636">
      <component glyphName="dotlessi" x="0" y="0" flags="0x0"/>
      <component glyphName="uni0304" x="112" y="0" flags="0x0"/>
    </TTGlyph>
    <TTGlyph name="infinity" xMin="42" yMin="174" xMax="714" yMax="488">
      <contour>
        <pt x="503" y="174" on="0"/>
        <pt x="415" y="237" on="0"/>
        <pt x="362" y="300" on="1"/>
        <pt x="358" y="300" on="1"/>
        <pt x="352" y="293" on="0"/>
        <pt x="295" y="230" on="0"/>
        <pt x="219" y="188" on="0"/>
        <pt x="178" y="188" on="1"/>
        <pt x="142" y="188" on="0"/>
        <pt x="80" y="225" on="0"/>
        <pt x="42" y="290" on="0"/>
        <pt x="42" y="330" on="1"/>
        <pt x="42" y="393" on="0"/>
        <pt x="124" y="472" on="0"/>
        <pt x="184" y="472" on="1"/>
        <pt x="239" y="472" on="0"/>
        <pt x="318" y="409" on="0"/>
        <pt x="358" y="358" on="1"/>
        <pt x="362" y="358" on="1"/>
        <pt x="404" y="415" on="0"/>
        <pt x="498" y="488" on="0"/>
        <pt x="558" y="488" on="1"/>
        <pt x="628" y="488" on="0"/>
        <pt x="714" y="401" on="0"/>
        <pt x="714" y="332" on="1"/>
        <pt x="714" y="288" on="0"/>
        <pt x="676" y="216" on="0"/>
        <pt x="607" y="174" on="0"/>
        <pt x="562" y="174" on="1"/>
      </contour>
      <contour>
        <pt x="619" y="206" on="0"/>
        <pt x="684" y="277" on="0"/>
        <pt x="684" y="330" on="1"/>
        <pt x="684" y="387" on="0"/>
        <pt x="616" y="460" on="0"/>
        <pt x="556" y="460" on="1"/>
        <pt x="507" y="460" on="0"/>
        <pt x="423" y="396" on="0"/>
        <pt x="378" y="332" on="1"/>
        <pt x="430" y="265" on="0"/>
        <pt x="515" y="206" on="0"/>
        <pt x="564" y="206" on="1"/>
      </contour>
      <contour>
        <pt x="267" y="216" on="0"/>
        <pt x="342" y="328" on="1"/>
        <pt x="299" y="384" on="0"/>
        <pt x="224" y="440" on="0"/>
        <pt x="182" y="440" on="1"/>
        <pt x="135" y="440" on="0"/>
        <pt x="72" y="383" on="0"/>
        <pt x="72" y="332" on="1"/>
        <pt x="72" y="281" on="0"/>
        <pt x="137" y="216" on="0"/>
        <pt x="182" y="216" on="1"/>
      </contour>
    </TTGlyph>
    <TTGlyph name="integral" xMin="60" yMin="-158" xMax="262" yMax="788">
      <contour>
        <pt x="72" y="-158" on="0"/>
        <pt x="60" y="-152" on="1"/>
        <pt x="66" y="-126" on="1"/>
        <pt x="82" y="-130" on="0"/>
        <pt x="100" y="-130" on="1"/>
        <pt x="142" y="-130" on="0"/>
        <pt x="170" y="-41" on="0"/>
        <pt x="170" y="52" on="1"/>
        <pt x="170" y="99" on="0"/>
        <pt x="159" y="208" on="0"/>
        <pt x="147" y="318" on="1"/>
        <pt x="124" y="502" on="0"/>
        <pt x="124" y="574" on="1"/>
        <pt x="124" y="676" on="0"/>
        <pt x="167" y="788" on="0"/>
        <pt x="224" y="788" on="1"/>
        <pt x="253" y="788" on="0"/>
        <pt x="262" y="782" on="1"/>
        <pt x="256" y="756" on="1"/>
        <pt x="240" y="760" on="0"/>
        <pt x="222" y="760" on="1"/>
        <pt x="182" y="760" on="0"/>
        <pt x="154" y="669" on="0"/>
        <pt x="154" y="576" on="1"/>
        <pt x="154" y="529" on="0"/>
        <pt x="165" y="405" on="0"/>
        <pt x="176" y="311" on="1"/>
        <pt x="187" y="215" on="0"/>
        <pt x="198" y="100" on="0"/>
        <pt x="198" y="56" on="1"/>
        <pt x="198" y="-47" on="0"/>
        <pt x="156" y="-158" on="0"/>
        <pt x="100" y="-158" on="1"/>
      </contour>
    </TTGlyph>
    <TTGlyph name="ismall" xMin="42" yMin="0" xMax="256" yMax="478">
      <contour>
        <pt x="42" y="28" on="1"/>
        <pt x="134" y="28" on="1"/>
        <pt x="134" y="450" on="1"/>
        <pt x="42" y="450" on="1"/>
        <pt x="42" y="478" on="1"/>
        <pt x="256" y="478" on="1"/>
        <pt x="256" y="450" on="1"/>
        <pt x="164" y="450" on="1"/>
        <pt x="164" y="28" on="1"/>
        <pt x="256" y="28" on="1"/>
        <pt x="256" y="0" on="1"/>
        <pt x="42" y="0" on="1"/>
      </contour>
    </TTGlyph>
    <TTGlyph name="j" xMin="-30" yMin="-234" xMax="144" yMax="670">
      <contour>
        <pt x="126" y="670" on="0"/>
        <pt x="144" y="651" on="0"/>
        <pt x="144" y="636" on="1"/>
        <pt x="144" y="620" on="0"/>
        <pt x="126" y="600" on="0"/>
        <pt x="112" y="600" on="1"/>
        <pt x="98" y="600" on="0"/>
        <pt x="80" y="620" on="0"/>
        <pt x="80" y="636" on="1"/>
        <pt x="80" y="651" on="0"/>
        <pt x="98" y="670" on="0"/>
        <pt x="112" y="670" on="1"/>
      </contour>
      <contour>
        <pt x="96" y="478" on="1"/>
        <pt x="126" y="478" on="1"/>
        <pt x="126" y="-102" on="1"/>
        <pt x="126" y="-170" on="0"/>
        <pt x="78" y="-234" on="0"/>
        <pt x="28" y="-234" on="1"/>
        <pt x="14" y="-234" on="0"/>
        <pt x="-19" y="-227" on="0"/>
        <pt x="-30" y="-222" on="1"/>
        <pt x="-22" y="-196" on="1"/>
        <pt x="8" y="-206" on="0"/>
        <pt x="30" y="-206" on="1"/>
        <pt x="69" y="-206" on="0"/>
        <pt x="96" y="-151" on="0"/>
        <pt x="96" y="-98" on="1"/>
      </contour>
    </TTGlyph>
    <TTGlyph name="j.sups" xMin="-20" yMin="258" xMax="106" yMax="858">
      <contour>
        <pt x="66" y="802" on="0"/>
        <pt x="50" y="818" on="0"/>
        <pt x="50" y="830" on="1"/>
        <pt x="50" y="842" on="0"/>
        <pt x="66" y="858" on="0"/>
        <pt x="78" y="858" on="1"/>
        <pt x="90" y="858" on="0"/>
        <pt x="106" y="842" on="0"/>
        <pt x="106" y="830" on="1"/>
        <pt x="106" y="818" on="0"/>
        <pt x="90" y="802" on="0"/>
        <pt x="78" y="802" on="1"/>
      </contour>
      <contour>
        <pt x="8" y="258" on="0"/>
        <pt x="-9" y="262" on="0"/>
        <pt x="-20" y="266" on="1"/>
        <pt x="-12" y="292" on="1"/>
        <pt x="3" y="286" on="0"/>
        <pt x="18" y="286" on="1"/>
        <pt x="43" y="286" on="0"/>
        <pt x="62" y="319" on="0"/>
        <pt x="62" y="352" on="1"/>
        <pt x="62" y="726" on="1"/>
        <pt x="90" y="726" on="1"/>
        <pt x="90" y="356" on="1"/>
        <pt x="90" y="305" on="0"/>
        <pt x="55" y="258" on="0"/>
        <pt x="20" y="258" on="1"/>
      </contour>
    </TTGlyph>
    <TTGlyph name="k" xMin="96" yMin="0" xMax="440" yMax="722">
      <contour>
        <pt x="96" y="722" on="1"/>
        <pt x="126" y="722" on="1"/>
        <pt x="126" y="174" on="1"/>
        <pt x="128" y="174" on="1"/>
        <pt x="376" y="478" on="1"/>
        <pt x="412" y="478" on="1"/>
        <pt x="258" y="290" on="1"/>
        <pt x="440" y="0" on="1"/>
        <pt x="406" y="0" on="1"/>
        <pt x="240" y="266" on="1"/>
        <pt x="126" y="132" on="1"/>
        <pt x="126" y="0" on="1"/>
        <pt x="96" y="0" on="1"/>
      </contour>
    </TTGlyph>
    <TTGlyph name="l" xMin="96" yMin="-12" xMax="170" yMax="722">
      <contour>
        <pt x="96" y="-12" on="0"/>
        <pt x="96" y="52" on="1"/>
        <pt x="96" y="722" on="1"/>
        <pt x="126" y="722" on="1"/>
        <pt x="126" y="46" on="1"/>
        <pt x="126" y="31" on="0"/>
        <pt x="137" y="16" on="0"/>
        <pt x="146" y="16" on="1"/>
        <pt x="154" y="16" on="0"/>
        <pt x="164" y="18" on="1"/>
        <pt x="170" y="-8" on="1"/>
        <pt x="154" y="-12" on="0"/>
        <pt x="144" y="-12" on="1"/>
      </contour>
    </TTGlyph>
    <TTGlyph name="lefttorightembed" xMin="-129" yMin="767" xMax="144" yMax="984">
      <contour>
        <pt x="14" y="792" on="1"/>
        <pt x="77" y="858" on="1"/>
        <pt x="1" y="858" on="1"/>
        <pt x="1" y="894" on="1"/>
        <pt x="77" y="894" on="1"/>
        <pt x="14" y="957" on="1"/>
        <pt x="39" y="984" on="1"/>
        <pt x="144" y="875" on="1"/>
        <pt x="39" y="767" on="1"/>
      </contour>
      <contour>
        <pt x="-129" y="894" on="1"/>
        <pt x="-41" y="894" on="1"/>
        <pt x="-41" y="858" on="1"/>
        <pt x="-129" y="858" on="1"/>
      </contour>
    </TTGlyph>
    <TTGlyph name="less" xMin="34" yMin="152" xMax="438" yMax="512">
      <contour>
        <pt x="34" y="314" on="1"/>
        <pt x="34" y="350" on="1"/>
        <pt x="438" y="512" on="1"/>
        <pt x="438" y="480" on="1"/>
        <pt x="66" y="334" on="1"/>
        <pt x="66" y="330" on="1"/>
        <pt x="438" y="184" on="1"/>
        <pt x="438" y="152" on="1"/>
      </contour>
    </TTGlyph>
    <TTGlyph name="lessequal" xMin="34" yMin="0" xMax="438" yMax="512">
      <contour>
        <pt x="34" y="314" on="1"/>
        <pt x="34" y="350" on="1"/>
        <pt x="438" y="512" on="1"/>
        <pt x="438" y="480" on="1"/>
        <pt x="66" y="334" on="1"/>
        <pt x="66" y="330" on="1"/>
        <pt x="438" y="184" on="1"/>
        <pt x="438" y="152" on="1"/>
      </contour>
      <contour>
        <pt x="34" y="28" on="1"/>
        <pt x="438" y="28" on="1"/>
        <pt x="438" y="0" on="1"/>
        <pt x="34" y="0" on="1"/>
      </contour>
    </TTGlyph>
    <TTGlyph name="litre" xMin="30" yMin="-12" xMax="342" yMax="734">
      <contour>
        <pt x="342" y="40" on="1"/>
        <pt x="290" y="-12" on="0"/>
        <pt x="234" y="-12" on="1"/>
        <pt x="179" y="-12" on="0"/>
        <pt x="106" y="80" on="0"/>
        <pt x="106" y="162" on="1"/>
        <pt x="106" y="185" on="1"/>
        <pt x="71" y="154" on="0"/>
        <pt x="46" y="136" on="1"/>
        <pt x="30" y="158" on="1"/>
        <pt x="69" y="187" on="0"/>
        <pt x="106" y="222" on="1"/>
        <pt x="106" y="538" on="1"/>
        <pt x="106" y="640" on="0"/>
        <pt x="167" y="734" on="0"/>
        <pt x="218" y="734" on="1"/>
        <pt x="265" y="734" on="0"/>
        <pt x="324" y="660" on="0"/>
        <pt x="324" y="592" on="1"/>
        <pt x="324" y="500" on="0"/>
        <pt x="218" y="297" on="0"/>
        <pt x="136" y="214" on="1"/>
        <pt x="136" y="172" on="1"/>
        <pt x="136" y="92" on="0"/>
        <pt x="192" y="16" on="0"/>
        <pt x="236" y="16" on="1"/>
        <pt x="265" y="16" on="0"/>
        <pt x="304" y="38" on="0"/>
        <pt x="326" y="60" on="1"/>
      </contour>
      <contour>
        <pt x="183" y="706" on="0"/>
        <pt x="136" y="624" on="0"/>
        <pt x="136" y="548" on="1"/>
        <pt x="136" y="253" on="1"/>
        <pt x="206" y="329" on="0"/>
        <pt x="292" y="507" on="0"/>
        <pt x="292" y="590" on="1"/>
        <pt x="292" y="651" on="0"/>
        <pt x="252" y="706" on="0"/>
        <pt x="218" y="706" on="1"/>
      </contour>
    </TTGlyph>
    <TTGlyph name="logicalnot" xMin="34" yMin="112" xMax="438" yMax="344">
      <contour>
        <pt x="406" y="316" on="1"/>
        <pt x="34" y="316" on="1"/>
        <pt x="34" y="344" on="1"/>
        <pt x="438" y="344" on="1"/>
        <pt x="438" y="112" on="1"/>
        <pt x="406" y="112" on="1"/>
      </contour>
    </TTGlyph>
    <TTGlyph name="lozenge" xMin="60" yMin="-10" xMax="432" yMax="670">
      <contour>
        <pt x="60" y="330" on="1"/>
        <pt x="226" y="670" on="1"/>
        <pt x="266" y="670" on="1"/>
        <pt x="432" y="330" on="1"/>
        <pt x="266" y="-10" on="1"/>
        <pt x="226" y="-10" on="1"/>
      </contour>
      <contour>
        <pt x="248" y="16" on="1"/>
        <pt x="318" y="158" on="1"/>
        <pt x="398" y="330" on="1"/>
        <pt x="318" y="500" on="1"/>
        <pt x="248" y="644" on="1"/>
        <pt x="244" y="644" on="1"/>
        <pt x="174" y="500" on="1"/>
        <pt x="94" y="330" on="1"/>
        <pt x="174" y="158" on="1"/>
        <pt x="244" y="16" on="1"/>
      </contour>
    </TTGlyph>
    <TTGlyph name="lslash" xMin="14" yMin="-12" xMax="198" yMax="722">
      <contour>
        <pt x="154" y="16" on="0"/>
        <pt x="164" y="18" on="1"/>
        <pt x="170" y="-8" on="1"/>
        <pt x="154" y="-12" on="0"/>
        <pt x="144" y="-12" on="1"/>
        <pt x="96" y="-12" on="0"/>
        <pt x="96" y="52" on="1"/>
        <pt x="96" y="376" on="1"/>
        <pt x="28" y="332" on="1"/>
        <pt x="14" y="354" on="1"/>
        <pt x="96" y="408" on="1"/>
        <pt x="96" y="722" on="1"/>
        <pt x="126" y="722" on="1"/>
        <pt x="126" y="426" on="1"/>
        <pt x="184" y="466" on="1"/>
        <pt x="198" y="444" on="1"/>
        <pt x="126" y="394" on="1"/>
        <pt x="126" y="46" on="1"/>
        <pt x="126" y="31" on="0"/>
        <pt x="137" y="16" on="0"/>
        <pt x="146" y="16" on="1"/>
      </contour>
    </TTGlyph>
    <TTGlyph name="m" xMin="96" yMin="0" xMax="718" yMax="490">
      <contour>
        <pt x="96" y="478" on="1"/>
        <pt x="122" y="478" on="1"/>
        <pt x="126" y="402" on="1"/>
        <pt x="128" y="402" on="1"/>
        <pt x="163" y="442" on="0"/>
        <pt x="243" y="490" on="0"/>
        <pt x="280" y="490" on="1"/>
        <pt x="385" y="490" on="0"/>
        <pt x="412" y="390" on="1"/>
        <pt x="502" y="490" on="0"/>
        <pt x="576" y="490" on="1"/>
        <pt x="647" y="490" on="0"/>
        <pt x="718" y="400" on="0"/>
        <pt x="718" y="308" on="1"/>
        <pt x="718" y="0" on="1"/>
        <pt x="688" y="0" on="1"/>
        <pt x="688" y="304" on="1"/>
        <pt x="688" y="384" on="0"/>
        <pt x="632" y="462" on="0"/>
        <pt x="574" y="462" on="1"/>
        <pt x="539" y="462" on="0"/>
        <pt x="465" y="415" on="0"/>
        <pt x="422" y="366" on="1"/>
        <pt x="422" y="0" on="1"/>
        <pt x="392" y="0" on="1"/>
        <pt x="392" y="304" on="1"/>
        <pt x="392" y="384" on="0"/>
        <pt x="336" y="462" on="0"/>
        <pt x="278" y="462" on="1"/>
        <pt x="210" y="462" on="0"/>
        <pt x="126" y="366" on="1"/>
        <pt x="126" y="0" on="1"/>
        <pt x="96" y="0" on="1"/>
      </contour>
    </TTGlyph>
    <TTGlyph name="macron" xMin="146" yMin="608" xMax="386" yMax="636">
      <component glyphName="uni0304" x="266" y="0" flags="0x0"/>
    </TTGlyph>
    <TTGlyph name="minus" xMin="34" yMin="316" xMax="438" yMax="344">
      <contour>
        <pt x="34" y="344" on="1"/>
        <pt x="438" y="344" on="1"/>
        <pt x="438" y="316" on="1"/>
        <pt x="34" y="316" on="1"/>
      </contour>
    </TTGlyph>
    <TTGlyph name="multiply" xMin="52" yMin="138" xMax="420" yMax="522">
      <contour>
        <pt x="52" y="160" on="1"/>
        <pt x="216" y="330" on="1"/>
        <pt x="52" y="500" on="1"/>
        <pt x="72" y="522" on="1"/>
        <pt x="236" y="350" on="1"/>
        <pt x="400" y="522" on="1"/>
        <pt x="420" y="500" on="1"/>
        <pt x="256" y="330" on="1"/>
        <pt x="420" y="160" on="1"/>
        <pt x="400" y="138" on="1"/>
        <pt x="236" y="310" on="1"/>
        <pt x="72" y="138" on="1"/>
      </contour>
    </TTGlyph>
    <TTGlyph name="n" xMin="96" yMin="0" xMax="438" yMax="490">
      <contour>
        <pt x="96" y="478" on="1"/>
        <pt x="122" y="478" on="1"/>
        <pt x="126" y="402" on="1"/>
        <pt x="128" y="402" on="1"/>
        <pt x="171" y="445" on="0"/>
        <pt x="248" y="490" on="0"/>
        <pt x="294" y="490" on="1"/>
        <pt x="368" y="490" on="0"/>
        <pt x="438" y="401" on="0"/>
        <pt x="438" y="308" on="1"/>
        <pt x="438" y="0" on="1"/>
        <pt x="408" y="0" on="1"/>
        <pt x="408" y="304" on="1"/>
        <pt x="408" y="385" on="0"/>
        <pt x="353" y="462" on="0"/>
        <pt x="292" y="462" on="1"/>
        <pt x="249" y="462" on="0"/>
        <pt x="176" y="417" on="0"/>
        <pt x="126" y="366" on="1"/>
        <pt x="126" y="0" on="1"/>
        <pt x="96" y="0" on="1"/>
      </contour>
    </TTGlyph>
    <TTGlyph name="nine" xMin="44" yMin="-12" xMax="418" yMax="652">
      <contour>
        <pt x="310" y="652" on="0"/>
        <pt x="418" y="494" on="0"/>
        <pt x="418" y="352" on="1"/>
        <pt x="418" y="162" on="0"/>
        <pt x="288" y="-12" on="0"/>
        <pt x="186" y="-12" on="1"/>
        <pt x="110" y="-12" on="0"/>
        <pt x="58" y="48" on="1"/>
        <pt x="78" y="70" on="1"/>
        <pt x="99" y="43" on="0"/>
        <pt x="156" y="16" on="0"/>
        <pt x="188" y="16" on="1"/>
        <pt x="275" y="16" on="0"/>
        <pt x="385" y="174" on="0"/>
        <pt x="386" y="347" on="1"/>
        <pt x="351" y="304" on="0"/>
        <pt x="265" y="256" on="0"/>
        <pt x="220" y="256" on="1"/>
        <pt x="136" y="256" on="0"/>
        <pt x="44" y="358" on="0"/>
        <pt x="44" y="454" on="1"/>
        <pt x="44" y="510" on="0"/>
        <pt x="90" y="600" on="0"/>
        <pt x="168" y="652" on="0"/>
        <pt x="214" y="652" on="1"/>
      </contour>
      <contour>
        <pt x="260" y="284" on="0"/>
        <pt x="346" y="333" on="0"/>
        <pt x="385" y="385" on="1"/>
        <pt x="379" y="495" on="0"/>
        <pt x="293" y="624" on="0"/>
        <pt x="212" y="624" on="1"/>
        <pt x="174" y="624" on="0"/>
        <pt x="112" y="578" on="0"/>
        <pt x="76" y="501" on="0"/>
        <pt x="76" y="454" on="1"/>
        <pt x="76" y="377" on="0"/>
        <pt x="148" y="284" on="0"/>
        <pt x="222" y="284" on="1"/>
      </contour>
    </TTGlyph>
    <TTGlyph name="nine.heb" xMin="44" yMin="-12" xMax="418" yMax="652">
      <contour>
        <pt x="310" y="652" on="0"/>
        <pt x="418" y="494" on="0"/>
        <pt x="418" y="352" on="1"/>
        <pt x="418" y="162" on="0"/>
        <pt x="288" y="-12" on="0"/>
        <pt x="186" y="-12" on="1"/>
        <pt x="110" y="-12" on="0"/>
        <pt x="58" y="48" on="1"/>
        <pt x="78" y="70" on="1"/>
        <pt x="99" y="43" on="0"/>
        <pt x="156" y="16" on="0"/>
        <pt x="188" y="16" on="1"/>
        <pt x="275" y="16" on="0"/>
        <pt x="385" y="174" on="0"/>
        <pt x="386" y="347" on="1"/>
        <pt x="351" y="304" on="0"/>
        <pt x="265" y="256" on="0"/>
        <pt x="220" y="256" on="1"/>
        <pt x="136" y="256" on="0"/>
        <pt x="44" y="358" on="0"/>
        <pt x="44" y="454" on="1"/>
        <pt x="44" y="510" on="0"/>
        <pt x="90" y="600" on="0"/>
        <pt x="168" y="652" on="0"/>
        <pt x="214" y="652" on="1"/>
      </contour>
      <contour>
        <pt x="260" y="284" on="0"/>
        <pt x="346" y="333" on="0"/>
        <pt x="385" y="385" on="1"/>
        <pt x="379" y="495" on="0"/>
        <pt x="293" y="624" on="0"/>
        <pt x="212" y="624" on="1"/>
        <pt x="174" y="624" on="0"/>
        <pt x="112" y="578" on="0"/>
        <pt x="76" y="501" on="0"/>
        <pt x="76" y="454" on="1"/>
        <pt x="76" y="377" on="0"/>
        <pt x="148" y="284" on="0"/>
        <pt x="222" y="284" on="1"/>
      </contour>
    </TTGlyph>
    <TTGlyph name="nine.lat" xMin="44" yMin="-12" xMax="418" yMax="652">
      <contour>
        <pt x="310" y="652" on="0"/>
        <pt x="418" y="494" on="0"/>
        <pt x="418" y="352" on="1"/>
        <pt x="418" y="162" on="0"/>
        <pt x="288" y="-12" on="0"/>
        <pt x="186" y="-12" on="1"/>
        <pt x="110" y="-12" on="0"/>
        <pt x="58" y="48" on="1"/>
        <pt x="78" y="70" on="1"/>
        <pt x="99" y="43" on="0"/>
        <pt x="156" y="16" on="0"/>
        <pt x="188" y="16" on="1"/>
        <pt x="275" y="16" on="0"/>
        <pt x="385" y="174" on="0"/>
        <pt x="386" y="347" on="1"/>
        <pt x="351" y="304" on="0"/>
        <pt x="265" y="256" on="0"/>
        <pt x="220" y="256" on="1"/>
        <pt x="136" y="256" on="0"/>
        <pt x="44" y="358" on="0"/>
        <pt x="44" y="454" on="1"/>
        <pt x="44" y="510" on="0"/>
        <pt x="90" y="600" on="0"/>
        <pt x="168" y="652" on="0"/>
        <pt x="214" y="652" on="1"/>
      </contour>
      <contour>
        <pt x="260" y="284" on="0"/>
        <pt x="346" y="333" on="0"/>
        <pt x="385" y="385" on="1"/>
        <pt x="379" y="495" on="0"/>
        <pt x="293" y="624" on="0"/>
        <pt x="212" y="624" on="1"/>
        <pt x="174" y="624" on="0"/>
        <pt x="112" y="578" on="0"/>
        <pt x="76" y="501" on="0"/>
        <pt x="76" y="454" on="1"/>
        <pt x="76" y="377" on="0"/>
        <pt x="148" y="284" on="0"/>
        <pt x="222" y="284" on="1"/>
      </contour>
    </TTGlyph>
    <TTGlyph name="nine.pnumheb" xMin="52" yMin="-12" xMax="426" yMax="652">
      <component glyphName="nine.heb" x="8" y="0" flags="0x0"/>
    </TTGlyph>
    <TTGlyph name="nine.pnumlat" xMin="52" yMin="-12" xMax="426" yMax="652">
      <component glyphName="nine" x="8" y="0" flags="0x0"/>
    </TTGlyph>
    <TTGlyph name="notequal" xMin="34" yMin="86" xMax="438" yMax="574">
      <contour>
        <pt x="148" y="216" on="1"/>
        <pt x="34" y="216" on="1"/>
        <pt x="34" y="244" on="1"/>
        <pt x="166" y="244" on="1"/>
        <pt x="272" y="416" on="1"/>
        <pt x="34" y="416" on="1"/>
        <pt x="34" y="444" on="1"/>
        <pt x="290" y="444" on="1"/>
        <pt x="370" y="574" on="1"/>
        <pt x="404" y="574" on="1"/>
        <pt x="324" y="444" on="1"/>
        <pt x="438" y="444" on="1"/>
        <pt x="438" y="416" on="1"/>
        <pt x="306" y="416" on="1"/>
        <pt x="200" y="244" on="1"/>
        <pt x="438" y="244" on="1"/>
        <pt x="438" y="216" on="1"/>
        <pt x="182" y="216" on="1"/>
        <pt x="102" y="86" on="1"/>
        <pt x="68" y="86" on="1"/>
      </contour>
    </TTGlyph>
    <TTGlyph name="ntilde" xMin="96" yMin="0" xMax="438" yMax="706">
      <component glyphName="n" x="0" y="0" flags="0x0"/>
      <component glyphName="tildecomb" x="278" y="0" flags="0x0"/>
    </TTGlyph>
    <TTGlyph name="numbersign" xMin="36" yMin="0" xMax="442" yMax="650">
      <contour>
        <pt x="120" y="218" on="1"/>
        <pt x="36" y="218" on="1"/>
        <pt x="36" y="246" on="1"/>
        <pt x="124" y="246" on="1"/>
        <pt x="146" y="424" on="1"/>
        <pt x="56" y="424" on="1"/>
        <pt x="56" y="452" on="1"/>
        <pt x="148" y="452" on="1"/>
        <pt x="174" y="650" on="1"/>
        <pt x="202" y="650" on="1"/>
        <pt x="176" y="452" on="1"/>
        <pt x="332" y="452" on="1"/>
        <pt x="358" y="650" on="1"/>
        <pt x="386" y="650" on="1"/>
        <pt x="360" y="452" on="1"/>
        <pt x="442" y="452" on="1"/>
        <pt x="442" y="424" on="1"/>
        <pt x="358" y="424" on="1"/>
        <pt x="336" y="246" on="1"/>
        <pt x="422" y="246" on="1"/>
        <pt x="422" y="218" on="1"/>
        <pt x="332" y="218" on="1"/>
        <pt x="306" y="0" on="1"/>
        <pt x="278" y="0" on="1"/>
        <pt x="304" y="218" on="1"/>
        <pt x="148" y="218" on="1"/>
        <pt x="122" y="0" on="1"/>
        <pt x="94" y="0" on="1"/>
      </contour>
      <contour>
        <pt x="308" y="246" on="1"/>
        <pt x="330" y="424" on="1"/>
        <pt x="174" y="424" on="1"/>
        <pt x="152" y="246" on="1"/>
      </contour>
    </TTGlyph>
    <TTGlyph name="numbersign.lat" xMin="36" yMin="0" xMax="442" yMax="650">
      <contour>
        <pt x="120" y="218" on="1"/>
        <pt x="36" y="218" on="1"/>
        <pt x="36" y="246" on="1"/>
        <pt x="124" y="246" on="1"/>
        <pt x="146" y="424" on="1"/>
        <pt x="56" y="424" on="1"/>
        <pt x="56" y="452" on="1"/>
        <pt x="148" y="452" on="1"/>
        <pt x="174" y="650" on="1"/>
        <pt x="202" y="650" on="1"/>
        <pt x="176" y="452" on="1"/>
        <pt x="332" y="452" on="1"/>
        <pt x="358" y="650" on="1"/>
        <pt x="386" y="650" on="1"/>
        <pt x="360" y="452" on="1"/>
        <pt x="442" y="452" on="1"/>
        <pt x="442" y="424" on="1"/>
        <pt x="358" y="424" on="1"/>
        <pt x="336" y="246" on="1"/>
        <pt x="422" y="246" on="1"/>
        <pt x="422" y="218" on="1"/>
        <pt x="332" y="218" on="1"/>
        <pt x="306" y="0" on="1"/>
        <pt x="278" y="0" on="1"/>
        <pt x="304" y="218" on="1"/>
        <pt x="148" y="218" on="1"/>
        <pt x="122" y="0" on="1"/>
        <pt x="94" y="0" on="1"/>
      </contour>
      <contour>
        <pt x="308" y="246" on="1"/>
        <pt x="330" y="424" on="1"/>
        <pt x="174" y="424" on="1"/>
        <pt x="152" y="246" on="1"/>
      </contour>
    </TTGlyph>
    <TTGlyph name="o" xMin="54" yMin="-12" xMax="478" yMax="490">
      <contour>
        <pt x="208" y="-12" on="0"/>
        <pt x="111" y="48" on="0"/>
        <pt x="54" y="162" on="0"/>
        <pt x="54" y="238" on="1"/>
        <pt x="54" y="315" on="0"/>
        <pt x="111" y="430" on="0"/>
        <pt x="208" y="490" on="0"/>
        <pt x="266" y="490" on="1"/>
        <pt x="324" y="490" on="0"/>
        <pt x="421" y="430" on="0"/>
        <pt x="478" y="315" on="0"/>
        <pt x="478" y="238" on="1"/>
        <pt x="478" y="162" on="0"/>
        <pt x="421" y="48" on="0"/>
        <pt x="324" y="-12" on="0"/>
        <pt x="266" y="-12" on="1"/>
      </contour>
      <contour>
        <pt x="317" y="16" on="0"/>
        <pt x="399" y="72" on="0"/>
        <pt x="446" y="173" on="0"/>
        <pt x="446" y="238" on="1"/>
        <pt x="446" y="303" on="0"/>
        <pt x="399" y="405" on="0"/>
        <pt x="317" y="462" on="0"/>
        <pt x="266" y="462" on="1"/>
        <pt x="215" y="462" on="0"/>
        <pt x="133" y="405" on="0"/>
        <pt x="86" y="303" on="0"/>
        <pt x="86" y="238" on="1"/>
        <pt x="86" y="173" on="0"/>
        <pt x="133" y="72" on="0"/>
        <pt x="215" y="16" on="0"/>
        <pt x="266" y="16" on="1"/>
      </contour>
    </TTGlyph>
    <TTGlyph name="o.sups" xMin="34" yMin="402" xMax="322" yMax="734">
      <contour>
        <pt x="116" y="402" on="0"/>
        <pt x="34" y="492" on="0"/>
        <pt x="34" y="568" on="1"/>
        <pt x="34" y="645" on="0"/>
        <pt x="116" y="734" on="0"/>
        <pt x="178" y="734" on="1"/>
        <pt x="240" y="734" on="0"/>
        <pt x="322" y="645" on="0"/>
        <pt x="322" y="568" on="1"/>
        <pt x="322" y="492" on="0"/>
        <pt x="240" y="402" on="0"/>
        <pt x="178" y="402" on="1"/>
      </contour>
      <contour>
        <pt x="229" y="428" on="0"/>
        <pt x="292" y="506" on="0"/>
        <pt x="292" y="568" on="1"/>
        <pt x="292" y="631" on="0"/>
        <pt x="229" y="708" on="0"/>
        <pt x="178" y="708" on="1"/>
        <pt x="127" y="708" on="0"/>
        <pt x="64" y="631" on="0"/>
        <pt x="64" y="568" on="1"/>
        <pt x="64" y="506" on="0"/>
        <pt x="127" y="428" on="0"/>
        <pt x="178" y="428" on="1"/>
      </contour>
    </TTGlyph>
    <TTGlyph name="oacute" xMin="54" yMin="-12" xMax="478" yMax="744">
      <component glyphName="o" x="0" y="0" flags="0x0"/>
      <component glyphName="acutecomb" x="266" y="0" flags="0x0"/>
    </TTGlyph>
    <TTGlyph name="obreve" xMin="54" yMin="-12" xMax="478" yMax="720">
      <component glyphName="o" x="0" y="0" flags="0x0"/>
      <component glyphName="uni0306" x="266" y="0" flags="0x0"/>
    </TTGlyph>
    <TTGlyph name="ocircumflex" xMin="54" yMin="-12" xMax="478" yMax="736">
      <component glyphName="o" x="0" y="0" flags="0x0"/>
      <component glyphName="uni0302" x="266" y="0" flags="0x0"/>
    </TTGlyph>
</ttFont>
